<svg width="175" height="43" viewBox="0 0 175 43" fill="none" xmlns="http://www.w3.org/2000/svg">
<path d="M36.8571 6.13779C28.2496 -2.21976 14.4977 -2.01746 6.14286 6.59297C-2.04762 15.0264 -2.04762 28.4414 6.14286 36.8622C14.7504 45.2198 28.5023 45.0175 36.8571 36.407C45.0476 27.9736 45.0476 14.5586 36.8571 6.13779ZM21.5 41.5151C10.4656 41.5151 1.49149 32.538 1.49149 21.5C1.49149 10.462 10.4656 1.48487 21.5 1.48487C32.5344 1.48487 41.5086 10.462 41.5086 21.5C41.5086 32.538 32.5344 41.5151 21.5 41.5151ZM31.3084 11.7011C31.637 12.0298 31.637 12.5735 31.3084 12.9022L12.9177 31.2989C12.5764 31.6277 12.0329 31.615 11.7169 31.261C11.4009 30.9323 11.4009 30.4139 11.7169 30.0851L30.1076 11.6884C30.4362 11.3597 30.9671 11.3597 31.3084 11.6884V11.7011ZM18.4286 18.2505C20.6784 18.2505 22.4985 16.4298 22.4985 14.1792C22.4985 11.9286 20.6784 10.1079 18.4286 10.1079C16.1787 10.1079 14.3586 11.9286 14.3586 14.1792C14.3586 15.254 14.7884 16.2908 15.5594 17.062C16.3178 17.8207 17.3542 18.2632 18.4286 18.2505ZM16.7601 12.5103C17.6702 11.5746 19.149 11.5493 20.0844 12.4597C21.0197 13.37 21.045 14.8494 20.1349 15.785L20.0844 15.8356C19.1743 16.7712 17.6955 16.7965 16.7601 15.8862C15.8248 14.9758 15.7996 13.4965 16.7096 12.5608L16.7601 12.5103ZM21.7022 25.9506C20.1096 27.5437 20.1096 30.1104 21.7022 31.6909C23.2948 33.284 25.8607 33.284 27.4406 31.6909C29.0206 30.0978 29.0332 27.5311 27.4406 25.9506C25.848 24.3701 23.2822 24.3701 21.7022 25.9506ZM26.2525 30.4897C25.3425 31.4001 23.8383 31.4001 22.9283 30.4897C22.0182 29.5794 22.0182 28.0748 22.9283 27.1644C23.8383 26.2541 25.3425 26.2541 26.2525 27.1644C27.1626 28.0748 27.1626 29.5794 26.2525 30.4897Z" fill="white"/>
<path d="M61.9072 1.60352L61.6143 4.40137L64.4268 3.60303L64.6465 5.16309L62.0171 5.39746L63.7236 7.67529L62.3027 8.44434L61.0649 5.99072L59.959 8.43701L58.4795 7.67529L60.1714 5.39746L57.5566 5.15576L57.8057 3.60303L60.5669 4.40137L60.2739 1.60352H61.9072Z" fill="white"/>
<path d="M70.3374 13H68.5723V3.78613H65.4375V2.29199H73.4648V3.78613H70.3374V13Z" fill="white"/>
<path d="M78.1084 4.73828C79.1338 4.73828 79.9077 4.96533 80.4302 5.41943C80.9575 5.87354 81.2212 6.58154 81.2212 7.54346V13H79.998L79.6685 11.8501H79.6099C79.3804 12.1431 79.1436 12.3848 78.8994 12.5752C78.6553 12.7656 78.3721 12.9072 78.0498 13C77.7324 13.0977 77.3442 13.1465 76.8853 13.1465C76.4019 13.1465 75.9697 13.0586 75.5889 12.8828C75.208 12.7021 74.9077 12.4287 74.688 12.0625C74.4683 11.6963 74.3584 11.2324 74.3584 10.6709C74.3584 9.83594 74.6685 9.2085 75.2886 8.78857C75.9136 8.36865 76.856 8.13672 78.1157 8.09277L79.522 8.0415V7.6167C79.522 7.05518 79.3901 6.65479 79.1265 6.41553C78.8677 6.17627 78.5015 6.05664 78.0278 6.05664C77.6226 6.05664 77.2295 6.11523 76.8486 6.23242C76.4678 6.34961 76.0967 6.49365 75.7354 6.66455L75.1787 5.44873C75.5742 5.23877 76.0234 5.06787 76.5264 4.93604C77.0342 4.8042 77.5615 4.73828 78.1084 4.73828ZM79.5146 9.12549L78.4673 9.16211C77.6079 9.19141 77.0049 9.33789 76.6582 9.60156C76.3115 9.86523 76.1382 10.2266 76.1382 10.6855C76.1382 11.0859 76.2578 11.3789 76.4971 11.5645C76.7363 11.7451 77.0513 11.8354 77.4419 11.8354C78.0376 11.8354 78.5308 11.667 78.9214 11.3301C79.3169 10.9883 79.5146 10.4878 79.5146 9.82861V9.12549Z" fill="white"/>
<path d="M89.0801 10.6855C89.0801 11.2178 88.9507 11.667 88.6919 12.0332C88.4331 12.3994 88.0547 12.6777 87.5566 12.8682C87.0635 13.0537 86.458 13.1465 85.7402 13.1465C85.1738 13.1465 84.6855 13.105 84.2754 13.022C83.8701 12.9438 83.4868 12.8218 83.1255 12.6558V11.1689C83.5112 11.3496 83.9434 11.5059 84.4219 11.6377C84.9053 11.7695 85.3618 11.8354 85.7915 11.8354C86.3579 11.8354 86.7656 11.7476 87.0146 11.5718C87.2637 11.3911 87.3882 11.1519 87.3882 10.854C87.3882 10.6782 87.3369 10.522 87.2344 10.3853C87.1367 10.2437 86.9512 10.0996 86.6777 9.95312C86.4092 9.80176 86.0137 9.62109 85.4912 9.41113C84.9785 9.20605 84.5464 9.00098 84.1948 8.7959C83.8433 8.59082 83.5771 8.34424 83.3965 8.05615C83.2158 7.76318 83.1255 7.38965 83.1255 6.93555C83.1255 6.21777 83.4087 5.67334 83.9751 5.30225C84.5464 4.92627 85.3008 4.73828 86.2383 4.73828C86.7363 4.73828 87.2051 4.78955 87.6445 4.89209C88.0889 4.98975 88.5234 5.13379 88.9482 5.32422L88.4062 6.62061C88.04 6.45947 87.6714 6.32764 87.3003 6.2251C86.9341 6.11768 86.5605 6.06396 86.1797 6.06396C85.7354 6.06396 85.396 6.13232 85.1616 6.26904C84.9321 6.40576 84.8174 6.60107 84.8174 6.85498C84.8174 7.04541 84.8735 7.20654 84.9858 7.33838C85.0981 7.47021 85.291 7.60205 85.5645 7.73389C85.8428 7.86572 86.2285 8.0293 86.7217 8.22461C87.2051 8.41016 87.6226 8.60547 87.9741 8.81055C88.3306 9.01074 88.604 9.25732 88.7944 9.55029C88.9849 9.84326 89.0801 10.2217 89.0801 10.6855Z" fill="white"/>
<path d="M94.1191 4.73828C95.1445 4.73828 95.9185 4.96533 96.4409 5.41943C96.9683 5.87354 97.2319 6.58154 97.2319 7.54346V13H96.0088L95.6792 11.8501H95.6206C95.3911 12.1431 95.1543 12.3848 94.9102 12.5752C94.666 12.7656 94.3828 12.9072 94.0605 13C93.7432 13.0977 93.355 13.1465 92.896 13.1465C92.4126 13.1465 91.9805 13.0586 91.5996 12.8828C91.2188 12.7021 90.9185 12.4287 90.6987 12.0625C90.479 11.6963 90.3691 11.2324 90.3691 10.6709C90.3691 9.83594 90.6792 9.2085 91.2993 8.78857C91.9243 8.36865 92.8667 8.13672 94.1265 8.09277L95.5327 8.0415V7.6167C95.5327 7.05518 95.4009 6.65479 95.1372 6.41553C94.8784 6.17627 94.5122 6.05664 94.0386 6.05664C93.6333 6.05664 93.2402 6.11523 92.8594 6.23242C92.4785 6.34961 92.1074 6.49365 91.7461 6.66455L91.1895 5.44873C91.585 5.23877 92.0342 5.06787 92.5371 4.93604C93.0449 4.8042 93.5723 4.73828 94.1191 4.73828ZM95.5254 9.12549L94.478 9.16211C93.6187 9.19141 93.0156 9.33789 92.6689 9.60156C92.3223 9.86523 92.1489 10.2266 92.1489 10.6855C92.1489 11.0859 92.2686 11.3789 92.5078 11.5645C92.7471 11.7451 93.062 11.8354 93.4526 11.8354C94.0483 11.8354 94.5415 11.667 94.9321 11.3301C95.3276 10.9883 95.5254 10.4878 95.5254 9.82861V9.12549Z" fill="white"/>
<path d="M106.263 13.1465C105.296 13.1465 104.52 12.7949 103.934 12.0918C103.353 11.3838 103.062 10.3413 103.062 8.96436C103.062 7.57275 103.357 6.52051 103.948 5.80762C104.544 5.09473 105.328 4.73828 106.299 4.73828C106.709 4.73828 107.068 4.79443 107.376 4.90674C107.684 5.01416 107.947 5.16064 108.167 5.34619C108.392 5.53174 108.582 5.73926 108.738 5.96875H108.819C108.794 5.81738 108.765 5.6001 108.731 5.31689C108.702 5.02881 108.687 4.7627 108.687 4.51855V1.60352H110.416V13H109.068L108.76 11.894H108.687C108.541 12.1284 108.355 12.3408 108.13 12.5312C107.911 12.7168 107.647 12.8657 107.339 12.978C107.037 13.0903 106.678 13.1465 106.263 13.1465ZM106.746 11.7476C107.483 11.7476 108.003 11.5352 108.306 11.1104C108.609 10.6855 108.765 10.0483 108.775 9.19873V8.97168C108.775 8.06348 108.628 7.36768 108.335 6.88428C108.042 6.396 107.508 6.15186 106.731 6.15186C106.111 6.15186 105.638 6.40332 105.311 6.90625C104.988 7.4043 104.827 8.1001 104.827 8.99365C104.827 9.88721 104.988 10.5708 105.311 11.0444C105.638 11.5132 106.116 11.7476 106.746 11.7476Z" fill="white"/>
<path d="M116.114 4.73828C116.836 4.73828 117.457 4.88721 117.974 5.18506C118.492 5.48291 118.89 5.90527 119.168 6.45215C119.446 6.99902 119.585 7.65332 119.585 8.41504V9.33789H114.173C114.192 10.124 114.402 10.7295 114.803 11.1543C115.208 11.5791 115.774 11.7915 116.502 11.7915C117.02 11.7915 117.483 11.7427 117.894 11.645C118.309 11.5425 118.736 11.3936 119.175 11.1982V12.5972C118.77 12.7876 118.357 12.9268 117.938 13.0146C117.518 13.1025 117.015 13.1465 116.429 13.1465C115.633 13.1465 114.932 12.9927 114.327 12.6851C113.726 12.3726 113.255 11.9087 112.913 11.2935C112.576 10.6782 112.408 9.91406 112.408 9.00098C112.408 8.09277 112.562 7.32129 112.869 6.68652C113.177 6.05176 113.609 5.56836 114.166 5.23633C114.722 4.9043 115.372 4.73828 116.114 4.73828ZM116.114 6.03467C115.572 6.03467 115.132 6.21045 114.795 6.56201C114.463 6.91357 114.268 7.42871 114.209 8.10742H117.901C117.896 7.70215 117.828 7.34326 117.696 7.03076C117.569 6.71826 117.374 6.47412 117.11 6.29834C116.851 6.12256 116.519 6.03467 116.114 6.03467Z" fill="white"/>
<path d="M127.144 4.89209V13H125.423V4.89209H127.144ZM126.294 1.78662C126.558 1.78662 126.785 1.85742 126.976 1.99902C127.171 2.14062 127.269 2.38477 127.269 2.73145C127.269 3.07324 127.171 3.31738 126.976 3.46387C126.785 3.60547 126.558 3.67627 126.294 3.67627C126.021 3.67627 125.789 3.60547 125.599 3.46387C125.413 3.31738 125.32 3.07324 125.32 2.73145C125.32 2.38477 125.413 2.14062 125.599 1.99902C125.789 1.85742 126.021 1.78662 126.294 1.78662Z" fill="white"/>
<path d="M133.838 4.73828C134.751 4.73828 135.462 4.9751 135.97 5.44873C136.482 5.91748 136.739 6.67188 136.739 7.71191V13H135.018V8.03418C135.018 7.4043 134.888 6.93311 134.629 6.62061C134.371 6.30322 133.97 6.14453 133.428 6.14453C132.642 6.14453 132.095 6.38623 131.788 6.86963C131.485 7.35303 131.333 8.05371 131.333 8.97168V13H129.612V4.89209H130.953L131.194 5.99072H131.29C131.465 5.70752 131.683 5.47559 131.941 5.29492C132.205 5.10938 132.498 4.97021 132.82 4.87744C133.147 4.78467 133.487 4.73828 133.838 4.73828Z" fill="white"/>
<path d="M142.166 11.7549C142.391 11.7549 142.613 11.7354 142.833 11.6963C143.052 11.6523 143.252 11.6011 143.433 11.5425V12.8462C143.243 12.9292 142.996 13 142.693 13.0586C142.391 13.1172 142.076 13.1465 141.749 13.1465C141.29 13.1465 140.877 13.0708 140.511 12.9194C140.145 12.7632 139.854 12.4971 139.639 12.1211C139.424 11.7451 139.317 11.2251 139.317 10.561V6.20312H138.211V5.43408L139.397 4.82617L139.961 3.09033H141.045V4.89209H143.367V6.20312H141.045V10.5391C141.045 10.9492 141.148 11.2544 141.353 11.4546C141.558 11.6548 141.829 11.7549 142.166 11.7549Z" fill="white"/>
<path d="M148.311 4.73828C149.034 4.73828 149.654 4.88721 150.171 5.18506C150.689 5.48291 151.087 5.90527 151.365 6.45215C151.644 6.99902 151.783 7.65332 151.783 8.41504V9.33789H146.37C146.39 10.124 146.6 10.7295 147 11.1543C147.405 11.5791 147.972 11.7915 148.699 11.7915C149.217 11.7915 149.681 11.7427 150.091 11.645C150.506 11.5425 150.933 11.3936 151.373 11.1982V12.5972C150.967 12.7876 150.555 12.9268 150.135 13.0146C149.715 13.1025 149.212 13.1465 148.626 13.1465C147.83 13.1465 147.129 12.9927 146.524 12.6851C145.923 12.3726 145.452 11.9087 145.11 11.2935C144.773 10.6782 144.605 9.91406 144.605 9.00098C144.605 8.09277 144.759 7.32129 145.066 6.68652C145.374 6.05176 145.806 5.56836 146.363 5.23633C146.919 4.9043 147.569 4.73828 148.311 4.73828ZM148.311 6.03467C147.769 6.03467 147.33 6.21045 146.993 6.56201C146.661 6.91357 146.465 7.42871 146.407 8.10742H150.098C150.093 7.70215 150.025 7.34326 149.893 7.03076C149.766 6.71826 149.571 6.47412 149.307 6.29834C149.048 6.12256 148.716 6.03467 148.311 6.03467Z" fill="white"/>
<path d="M157.833 4.73828C157.969 4.73828 158.118 4.74561 158.279 4.76025C158.44 4.7749 158.58 4.79443 158.697 4.81885L158.536 6.43018C158.433 6.40088 158.306 6.37891 158.155 6.36426C158.008 6.34961 157.876 6.34229 157.759 6.34229C157.452 6.34229 157.159 6.39355 156.88 6.49609C156.602 6.59375 156.355 6.74512 156.141 6.9502C155.926 7.15039 155.757 7.40186 155.635 7.70459C155.513 8.00732 155.452 8.35889 155.452 8.75928V13H153.724V4.89209H155.071L155.306 6.32031H155.386C155.547 6.03223 155.748 5.76855 155.987 5.5293C156.226 5.29004 156.5 5.09961 156.807 4.95801C157.12 4.81152 157.461 4.73828 157.833 4.73828Z" fill="white"/>
<path d="M163.428 4.73828C164.151 4.73828 164.771 4.88721 165.289 5.18506C165.806 5.48291 166.204 5.90527 166.482 6.45215C166.761 6.99902 166.9 7.65332 166.9 8.41504V9.33789H161.487C161.507 10.124 161.717 10.7295 162.117 11.1543C162.522 11.5791 163.089 11.7915 163.816 11.7915C164.334 11.7915 164.798 11.7427 165.208 11.645C165.623 11.5425 166.05 11.3936 166.49 11.1982V12.5972C166.084 12.7876 165.672 12.9268 165.252 13.0146C164.832 13.1025 164.329 13.1465 163.743 13.1465C162.947 13.1465 162.247 12.9927 161.641 12.6851C161.041 12.3726 160.569 11.9087 160.228 11.2935C159.891 10.6782 159.722 9.91406 159.722 9.00098C159.722 8.09277 159.876 7.32129 160.184 6.68652C160.491 6.05176 160.923 5.56836 161.48 5.23633C162.037 4.9043 162.686 4.73828 163.428 4.73828ZM163.428 6.03467C162.886 6.03467 162.447 6.21045 162.11 6.56201C161.778 6.91357 161.583 7.42871 161.524 8.10742H165.215C165.21 7.70215 165.142 7.34326 165.01 7.03076C164.883 6.71826 164.688 6.47412 164.424 6.29834C164.166 6.12256 163.833 6.03467 163.428 6.03467ZM165.823 1.5083V1.65479C165.706 1.79639 165.547 1.96729 165.347 2.16748C165.147 2.36279 164.93 2.57031 164.695 2.79004C164.461 3.00488 164.229 3.2124 164 3.4126C163.77 3.60791 163.562 3.77393 163.377 3.91064H162.227V3.72021C162.388 3.53467 162.566 3.3125 162.762 3.05371C162.962 2.79492 163.157 2.52881 163.348 2.25537C163.543 1.98193 163.707 1.73291 163.838 1.5083H165.823Z" fill="white"/>
<path d="M174.29 10.6855C174.29 11.2178 174.161 11.667 173.902 12.0332C173.643 12.3994 173.265 12.6777 172.767 12.8682C172.273 13.0537 171.668 13.1465 170.95 13.1465C170.384 13.1465 169.896 13.105 169.485 13.022C169.08 12.9438 168.697 12.8218 168.335 12.6558V11.1689C168.721 11.3496 169.153 11.5059 169.632 11.6377C170.115 11.7695 170.572 11.8354 171.001 11.8354C171.568 11.8354 171.976 11.7476 172.225 11.5718C172.474 11.3911 172.598 11.1519 172.598 10.854C172.598 10.6782 172.547 10.522 172.444 10.3853C172.347 10.2437 172.161 10.0996 171.888 9.95312C171.619 9.80176 171.224 9.62109 170.701 9.41113C170.188 9.20605 169.756 9.00098 169.405 8.7959C169.053 8.59082 168.787 8.34424 168.606 8.05615C168.426 7.76318 168.335 7.38965 168.335 6.93555C168.335 6.21777 168.619 5.67334 169.185 5.30225C169.756 4.92627 170.511 4.73828 171.448 4.73828C171.946 4.73828 172.415 4.78955 172.854 4.89209C173.299 4.98975 173.733 5.13379 174.158 5.32422L173.616 6.62061C173.25 6.45947 172.881 6.32764 172.51 6.2251C172.144 6.11768 171.771 6.06396 171.39 6.06396C170.945 6.06396 170.606 6.13232 170.372 6.26904C170.142 6.40576 170.027 6.60107 170.027 6.85498C170.027 7.04541 170.083 7.20654 170.196 7.33838C170.308 7.47021 170.501 7.60205 170.774 7.73389C171.053 7.86572 171.438 8.0293 171.932 8.22461C172.415 8.41016 172.833 8.60547 173.184 8.81055C173.541 9.01074 173.814 9.25732 174.004 9.55029C174.195 9.84326 174.29 10.2217 174.29 10.6855Z" fill="white"/>
<path d="M67.7446 16.6035V19.4673C67.7446 19.7651 67.7349 20.0557 67.7153 20.3389C67.7007 20.6221 67.6836 20.8418 67.6641 20.998H67.7593C67.9302 20.7148 68.1401 20.4829 68.3892 20.3022C68.6382 20.1167 68.9165 19.9775 69.2241 19.8848C69.5366 19.792 69.8687 19.7456 70.2202 19.7456C70.8403 19.7456 71.3677 19.8506 71.8022 20.0605C72.2368 20.2656 72.5688 20.5854 72.7983 21.02C73.0327 21.4546 73.1499 22.0186 73.1499 22.7119V28H71.4287V23.0342C71.4287 22.4043 71.2993 21.9331 71.0405 21.6206C70.7817 21.3032 70.3813 21.1445 69.8394 21.1445C69.3169 21.1445 68.9019 21.2544 68.5942 21.4741C68.2915 21.689 68.0742 22.0088 67.9424 22.4336C67.8105 22.8535 67.7446 23.3662 67.7446 23.9717V28H66.0234V16.6035H67.7446Z" fill="white"/>
<path d="M78.7383 19.7383C79.7637 19.7383 80.5376 19.9653 81.0601 20.4194C81.5874 20.8735 81.8511 21.5815 81.8511 22.5435V28H80.6279L80.2983 26.8501H80.2397C80.0103 27.1431 79.7734 27.3848 79.5293 27.5752C79.2852 27.7656 79.002 27.9072 78.6797 28C78.3623 28.0977 77.9741 28.1465 77.5151 28.1465C77.0317 28.1465 76.5996 28.0586 76.2188 27.8828C75.8379 27.7021 75.5376 27.4287 75.3179 27.0625C75.0981 26.6963 74.9883 26.2324 74.9883 25.6709C74.9883 24.8359 75.2983 24.2085 75.9185 23.7886C76.5435 23.3687 77.4858 23.1367 78.7456 23.0928L80.1519 23.0415V22.6167C80.1519 22.0552 80.02 21.6548 79.7563 21.4155C79.4976 21.1763 79.1313 21.0566 78.6577 21.0566C78.2524 21.0566 77.8594 21.1152 77.4785 21.2324C77.0977 21.3496 76.7266 21.4937 76.3652 21.6646L75.8086 20.4487C76.2041 20.2388 76.6533 20.0679 77.1562 19.936C77.6641 19.8042 78.1914 19.7383 78.7383 19.7383ZM80.1445 24.1255L79.0972 24.1621C78.2378 24.1914 77.6348 24.3379 77.2881 24.6016C76.9414 24.8652 76.7681 25.2266 76.7681 25.6855C76.7681 26.0859 76.8877 26.3789 77.127 26.5645C77.3662 26.7451 77.6812 26.8354 78.0718 26.8354C78.6675 26.8354 79.1606 26.667 79.5513 26.3301C79.9468 25.9883 80.1445 25.4878 80.1445 24.8286V24.1255Z" fill="white"/>
<path d="M89.71 25.6855C89.71 26.2178 89.5806 26.667 89.3218 27.0332C89.063 27.3994 88.6846 27.6777 88.1865 27.8682C87.6934 28.0537 87.0879 28.1465 86.3701 28.1465C85.8037 28.1465 85.3154 28.105 84.9053 28.022C84.5 27.9438 84.1167 27.8218 83.7554 27.6558V26.1689C84.1411 26.3496 84.5732 26.5059 85.0518 26.6377C85.5352 26.7695 85.9917 26.8354 86.4214 26.8354C86.9878 26.8354 87.3955 26.7476 87.6445 26.5718C87.8936 26.3911 88.0181 26.1519 88.0181 25.854C88.0181 25.6782 87.9668 25.522 87.8643 25.3853C87.7666 25.2437 87.5811 25.0996 87.3076 24.9531C87.0391 24.8018 86.6436 24.6211 86.1211 24.4111C85.6084 24.2061 85.1763 24.001 84.8247 23.7959C84.4731 23.5908 84.207 23.3442 84.0264 23.0562C83.8457 22.7632 83.7554 22.3896 83.7554 21.9355C83.7554 21.2178 84.0386 20.6733 84.605 20.3022C85.1763 19.9263 85.9307 19.7383 86.8682 19.7383C87.3662 19.7383 87.835 19.7896 88.2744 19.8921C88.7188 19.9897 89.1533 20.1338 89.5781 20.3242L89.0361 21.6206C88.6699 21.4595 88.3013 21.3276 87.9302 21.2251C87.564 21.1177 87.1904 21.064 86.8096 21.064C86.3652 21.064 86.0259 21.1323 85.7915 21.269C85.562 21.4058 85.4473 21.6011 85.4473 21.855C85.4473 22.0454 85.5034 22.2065 85.6157 22.3384C85.728 22.4702 85.9209 22.6021 86.1943 22.7339C86.4727 22.8657 86.8584 23.0293 87.3516 23.2246C87.835 23.4102 88.2524 23.6055 88.604 23.8105C88.9604 24.0107 89.2339 24.2573 89.4243 24.5503C89.6147 24.8433 89.71 25.2217 89.71 25.6855Z" fill="white"/>
<path d="M94.5879 26.7549C94.8125 26.7549 95.0347 26.7354 95.2544 26.6963C95.4741 26.6523 95.6743 26.6011 95.855 26.5425V27.8462C95.6646 27.9292 95.418 28 95.1152 28.0586C94.8125 28.1172 94.4976 28.1465 94.1704 28.1465C93.7114 28.1465 93.2988 28.0708 92.9326 27.9194C92.5664 27.7632 92.2759 27.4971 92.061 27.1211C91.8462 26.7451 91.7388 26.2251 91.7388 25.561V21.2031H90.6328V20.4341L91.8193 19.8262L92.3833 18.0903H93.4673V19.8921H95.7891V21.2031H93.4673V25.5391C93.4673 25.9492 93.5698 26.2544 93.7749 26.4546C93.98 26.6548 94.251 26.7549 94.5879 26.7549Z" fill="white"/>
<path d="M100.682 19.7383C101.707 19.7383 102.481 19.9653 103.003 20.4194C103.531 20.8735 103.794 21.5815 103.794 22.5435V28H102.571L102.242 26.8501H102.183C101.954 27.1431 101.717 27.3848 101.473 27.5752C101.229 27.7656 100.945 27.9072 100.623 28C100.306 28.0977 99.9175 28.1465 99.4585 28.1465C98.9751 28.1465 98.543 28.0586 98.1621 27.8828C97.7812 27.7021 97.481 27.4287 97.2612 27.0625C97.0415 26.6963 96.9316 26.2324 96.9316 25.6709C96.9316 24.8359 97.2417 24.2085 97.8618 23.7886C98.4868 23.3687 99.4292 23.1367 100.689 23.0928L102.095 23.0415V22.6167C102.095 22.0552 101.963 21.6548 101.7 21.4155C101.441 21.1763 101.075 21.0566 100.601 21.0566C100.196 21.0566 99.8027 21.1152 99.4219 21.2324C99.041 21.3496 98.6699 21.4937 98.3086 21.6646L97.752 20.4487C98.1475 20.2388 98.5967 20.0679 99.0996 19.936C99.6074 19.8042 100.135 19.7383 100.682 19.7383ZM102.088 24.1255L101.041 24.1621C100.181 24.1914 99.5781 24.3379 99.2314 24.6016C98.8848 24.8652 98.7114 25.2266 98.7114 25.6855C98.7114 26.0859 98.8311 26.3789 99.0703 26.5645C99.3096 26.7451 99.6245 26.8354 100.015 26.8354C100.611 26.8354 101.104 26.667 101.495 26.3301C101.89 25.9883 102.088 25.4878 102.088 24.8286V24.1255Z" fill="white"/>
<path d="M117.668 20.1729C118.895 20.1729 119.97 20.3379 120.893 20.668C121.824 20.998 122.551 21.5016 123.076 22.1787C123.601 22.8473 123.863 23.6895 123.863 24.7051C123.863 25.4499 123.724 26.1058 123.444 26.6729C123.174 27.2314 122.797 27.7223 122.314 28.1455C121.84 28.5602 121.29 28.9199 120.664 29.2246C121.248 29.5547 121.828 29.9398 122.403 30.3799C122.979 30.82 123.457 31.3405 123.838 31.9414C124.219 32.5339 124.409 33.2406 124.409 34.0615C124.409 35.0518 124.168 35.9404 123.686 36.7275C123.203 37.5062 122.463 38.124 121.464 38.5811C120.465 39.0296 119.183 39.2539 117.617 39.2539C116.051 39.2539 114.769 39.0381 113.771 38.6064C112.772 38.1748 112.035 37.5739 111.562 36.8037C111.096 36.0251 110.863 35.1279 110.863 34.1123C110.863 33.249 111.007 32.5212 111.295 31.9287C111.591 31.3363 111.993 30.8327 112.501 30.418C113.009 30.0033 113.589 29.6309 114.24 29.3008C113.724 28.9538 113.25 28.5602 112.818 28.1201C112.387 27.68 112.044 27.1764 111.79 26.6094C111.536 26.0423 111.409 25.3991 111.409 24.6797C111.409 23.681 111.676 22.8473 112.209 22.1787C112.742 21.5101 113.479 21.0107 114.418 20.6807C115.366 20.3421 116.449 20.1729 117.668 20.1729ZM115.459 33.9092C115.459 34.4255 115.645 34.8444 116.018 35.166C116.39 35.4876 116.906 35.6484 117.566 35.6484C118.337 35.6484 118.899 35.5046 119.255 35.2168C119.619 34.9206 119.801 34.5186 119.801 34.0107C119.801 33.6299 119.687 33.2871 119.458 32.9824C119.238 32.6693 118.98 32.3984 118.684 32.1699C118.387 31.9414 118.129 31.7637 117.909 31.6367L117.566 31.4336C117.186 31.6283 116.834 31.8483 116.513 32.0938C116.2 32.3307 115.946 32.6016 115.751 32.9062C115.556 33.2025 115.459 33.5368 115.459 33.9092ZM117.643 23.791C117.228 23.791 116.868 23.9137 116.563 24.1592C116.259 24.3962 116.106 24.722 116.106 25.1367C116.106 25.4076 116.17 25.6615 116.297 25.8984C116.432 26.127 116.61 26.3385 116.83 26.5332C117.059 26.7279 117.312 26.9056 117.592 27.0664C117.837 26.9225 118.078 26.766 118.315 26.5967C118.552 26.4274 118.751 26.2243 118.912 25.9873C119.073 25.7503 119.153 25.4668 119.153 25.1367C119.153 24.722 119.001 24.3962 118.696 24.1592C118.4 23.9137 118.049 23.791 117.643 23.791Z" fill="white"/>
<path d="M130.439 20.1729C131.895 20.1729 133.063 20.6807 133.943 21.6963C134.832 22.7119 135.276 24.138 135.276 25.9746C135.276 27.8112 134.862 29.2458 134.032 30.2783C133.203 31.3109 132.005 31.8271 130.439 31.8271C129.018 31.8271 127.871 31.3109 126.999 30.2783C126.136 29.2458 125.704 27.8112 125.704 25.9746C125.704 24.138 126.11 22.7119 126.923 21.6963C127.744 20.6807 128.916 20.1729 130.439 20.1729ZM130.49 23.2705C130.126 23.2705 129.872 23.5202 129.729 24.0195C129.593 24.5104 129.525 25.179 129.525 26.0254C129.525 26.8548 129.593 27.5234 129.729 28.0312C129.872 28.5306 130.126 28.7803 130.49 28.7803C130.854 28.7803 131.104 28.5348 131.239 28.0439C131.375 27.5446 131.442 26.8717 131.442 26.0254C131.442 25.179 131.375 24.5104 131.239 24.0195C131.104 23.5202 130.854 23.2705 130.49 23.2705ZM144.531 20.4395L134.235 39H130.465L140.761 20.4395H144.531ZM144.557 27.5615C146.012 27.5615 147.18 28.0693 148.061 29.085C148.949 30.1006 149.394 31.5267 149.394 33.3633C149.394 35.1914 148.979 36.6217 148.149 37.6543C147.32 38.6868 146.122 39.2031 144.557 39.2031C143.135 39.2031 141.988 38.6868 141.116 37.6543C140.253 36.6217 139.821 35.1914 139.821 33.3633C139.821 31.5267 140.228 30.1006 141.04 29.085C141.861 28.0693 143.033 27.5615 144.557 27.5615ZM144.607 30.6592C144.243 30.6592 143.99 30.9089 143.846 31.4082C143.71 31.8991 143.643 32.5677 143.643 33.4141C143.643 34.2435 143.71 34.9121 143.846 35.4199C143.99 35.9193 144.243 36.1689 144.607 36.1689C144.971 36.1689 145.221 35.9235 145.356 35.4326C145.5 34.9333 145.572 34.2604 145.572 33.4141C145.572 32.5339 145.5 31.8568 145.356 31.3828C145.221 30.9004 144.971 30.6592 144.607 30.6592Z" fill="white"/>
</svg>
