<svg width="217" height="42" viewBox="0 0 217 42" fill="none" xmlns="http://www.w3.org/2000/svg">
<path d="M70.9072 0L70.6143 2.79785L73.4268 1.99951L73.6465 3.55957L71.0171 3.79395L72.7236 6.07178L71.3027 6.84082L70.0649 4.38721L68.959 6.8335L67.4795 6.07178L69.1714 3.79395L66.5566 3.55225L66.8057 1.99951L69.5669 2.79785L69.2739 0H70.9072Z" fill="white"/>
<path d="M75.624 0.688477H78.8101C80.1919 0.688477 81.2344 0.888672 81.9375 1.28906C82.6406 1.68945 82.9922 2.38037 82.9922 3.36182C82.9922 3.77197 82.9189 4.14307 82.7725 4.4751C82.6309 4.80225 82.4233 5.07324 82.1499 5.28809C81.8765 5.49805 81.5396 5.63965 81.1392 5.71289V5.78613C81.5542 5.85938 81.9229 5.98877 82.2451 6.17432C82.5723 6.35986 82.8286 6.62598 83.0142 6.97266C83.2046 7.31934 83.2998 7.76855 83.2998 8.32031C83.2998 8.97461 83.1436 9.53125 82.8311 9.99023C82.5234 10.4492 82.0815 10.7983 81.5054 11.0376C80.9341 11.2769 80.2554 11.3965 79.4692 11.3965H75.624V0.688477ZM77.3818 5.10498H79.0664C79.8623 5.10498 80.4141 4.97559 80.7217 4.7168C81.0293 4.45801 81.1831 4.07959 81.1831 3.58154C81.1831 3.07373 81 2.70752 80.6338 2.48291C80.2725 2.2583 79.6963 2.146 78.9053 2.146H77.3818V5.10498ZM77.3818 6.52588V9.92432H79.2349C80.0552 9.92432 80.6313 9.76562 80.9634 9.44824C81.2954 9.13086 81.4614 8.70117 81.4614 8.15918C81.4614 7.82715 81.3857 7.53906 81.2344 7.29492C81.0879 7.05078 80.8462 6.86279 80.5093 6.73096C80.1724 6.59424 79.7183 6.52588 79.147 6.52588H77.3818Z" fill="white"/>
<path d="M92.5137 7.32422C92.5137 7.99805 92.4258 8.59619 92.25 9.11865C92.0742 9.64111 91.8179 10.083 91.481 10.4443C91.144 10.8008 90.7388 11.0742 90.2651 11.2646C89.7915 11.4502 89.2568 11.543 88.6611 11.543C88.1045 11.543 87.5942 11.4502 87.1304 11.2646C86.6665 11.0742 86.2637 10.8008 85.9219 10.4443C85.585 10.083 85.3237 9.64111 85.1382 9.11865C84.9526 8.59619 84.8599 7.99805 84.8599 7.32422C84.8599 6.43066 85.0137 5.67383 85.3213 5.05371C85.6338 4.42871 86.0781 3.95264 86.6543 3.62549C87.2305 3.29834 87.9165 3.13477 88.7124 3.13477C89.4595 3.13477 90.1187 3.29834 90.6899 3.62549C91.2612 3.95264 91.708 4.42871 92.0303 5.05371C92.3525 5.67871 92.5137 6.43555 92.5137 7.32422ZM86.6323 7.32422C86.6323 7.91504 86.7031 8.42041 86.8447 8.84033C86.9912 9.26025 87.2158 9.58252 87.5186 9.80713C87.8213 10.0269 88.2119 10.1367 88.6904 10.1367C89.1689 10.1367 89.5596 10.0269 89.8623 9.80713C90.165 9.58252 90.3872 9.26025 90.5288 8.84033C90.6704 8.42041 90.7412 7.91504 90.7412 7.32422C90.7412 6.7334 90.6704 6.23291 90.5288 5.82275C90.3872 5.40771 90.165 5.09277 89.8623 4.87793C89.5596 4.6582 89.1665 4.54834 88.6831 4.54834C87.9702 4.54834 87.4502 4.7876 87.123 5.26611C86.7959 5.74463 86.6323 6.43066 86.6323 7.32422Z" fill="white"/>
<path d="M98.7173 3.13477C99.6304 3.13477 100.341 3.37158 100.849 3.84521C101.361 4.31396 101.618 5.06836 101.618 6.1084V11.3965H99.8965V6.43066C99.8965 5.80078 99.7671 5.32959 99.5083 5.01709C99.2495 4.69971 98.8491 4.54102 98.3071 4.54102C97.521 4.54102 96.9741 4.78271 96.6665 5.26611C96.3638 5.74951 96.2124 6.4502 96.2124 7.36816V11.3965H94.4912V3.28857H95.8315L96.0732 4.38721H96.1685C96.3442 4.104 96.5615 3.87207 96.8203 3.69141C97.084 3.50586 97.377 3.3667 97.6992 3.27393C98.0264 3.18115 98.3657 3.13477 98.7173 3.13477Z" fill="white"/>
<path d="M111.205 7.32422C111.205 7.99805 111.117 8.59619 110.941 9.11865C110.766 9.64111 110.509 10.083 110.172 10.4443C109.835 10.8008 109.43 11.0742 108.957 11.2646C108.483 11.4502 107.948 11.543 107.353 11.543C106.796 11.543 106.286 11.4502 105.822 11.2646C105.358 11.0742 104.955 10.8008 104.613 10.4443C104.276 10.083 104.015 9.64111 103.83 9.11865C103.644 8.59619 103.551 7.99805 103.551 7.32422C103.551 6.43066 103.705 5.67383 104.013 5.05371C104.325 4.42871 104.77 3.95264 105.346 3.62549C105.922 3.29834 106.608 3.13477 107.404 3.13477C108.151 3.13477 108.81 3.29834 109.381 3.62549C109.953 3.95264 110.399 4.42871 110.722 5.05371C111.044 5.67871 111.205 6.43555 111.205 7.32422ZM105.324 7.32422C105.324 7.91504 105.395 8.42041 105.536 8.84033C105.683 9.26025 105.907 9.58252 106.21 9.80713C106.513 10.0269 106.903 10.1367 107.382 10.1367C107.86 10.1367 108.251 10.0269 108.554 9.80713C108.856 9.58252 109.079 9.26025 109.22 8.84033C109.362 8.42041 109.433 7.91504 109.433 7.32422C109.433 6.7334 109.362 6.23291 109.22 5.82275C109.079 5.40771 108.856 5.09277 108.554 4.87793C108.251 4.6582 107.858 4.54834 107.375 4.54834C106.662 4.54834 106.142 4.7876 105.814 5.26611C105.487 5.74463 105.324 6.43066 105.324 7.32422Z" fill="white"/>
<path d="M119.804 11.543C118.837 11.543 118.061 11.1914 117.475 10.4883C116.894 9.78027 116.603 8.73779 116.603 7.36084C116.603 5.96924 116.898 4.91699 117.489 4.2041C118.085 3.49121 118.869 3.13477 119.84 3.13477C120.25 3.13477 120.609 3.19092 120.917 3.30322C121.225 3.41064 121.488 3.55713 121.708 3.74268C121.933 3.92822 122.123 4.13574 122.279 4.36523H122.36C122.335 4.21387 122.306 3.99658 122.272 3.71338C122.243 3.42529 122.228 3.15918 122.228 2.91504V0H123.957V11.3965H122.609L122.301 10.2905H122.228C122.082 10.5249 121.896 10.7373 121.671 10.9277C121.452 11.1133 121.188 11.2622 120.88 11.3745C120.578 11.4868 120.219 11.543 119.804 11.543ZM120.287 10.144C121.024 10.144 121.544 9.93164 121.847 9.50684C122.15 9.08203 122.306 8.44482 122.316 7.59521V7.36816C122.316 6.45996 122.169 5.76416 121.876 5.28076C121.583 4.79248 121.049 4.54834 120.272 4.54834C119.652 4.54834 119.179 4.7998 118.852 5.30273C118.529 5.80078 118.368 6.49658 118.368 7.39014C118.368 8.28369 118.529 8.96729 118.852 9.44092C119.179 9.90967 119.657 10.144 120.287 10.144Z" fill="white"/>
<path d="M129.655 3.13477C130.377 3.13477 130.998 3.28369 131.515 3.58154C132.033 3.87939 132.431 4.30176 132.709 4.84863C132.987 5.39551 133.126 6.0498 133.126 6.81152V7.73438H127.714C127.733 8.52051 127.943 9.12598 128.344 9.55078C128.749 9.97559 129.315 10.188 130.043 10.188C130.561 10.188 131.024 10.1392 131.435 10.0415C131.85 9.93896 132.277 9.79004 132.716 9.59473V10.9937C132.311 11.1841 131.898 11.3232 131.479 11.4111C131.059 11.499 130.556 11.543 129.97 11.543C129.174 11.543 128.473 11.3892 127.868 11.0815C127.267 10.769 126.796 10.3052 126.454 9.68994C126.117 9.07471 125.949 8.31055 125.949 7.39746C125.949 6.48926 126.103 5.71777 126.41 5.08301C126.718 4.44824 127.15 3.96484 127.707 3.63281C128.263 3.30078 128.913 3.13477 129.655 3.13477ZM129.655 4.43115C129.113 4.43115 128.673 4.60693 128.336 4.9585C128.004 5.31006 127.809 5.8252 127.75 6.50391H131.442C131.437 6.09863 131.369 5.73975 131.237 5.42725C131.11 5.11475 130.915 4.87061 130.651 4.69482C130.392 4.51904 130.06 4.43115 129.655 4.43115Z" fill="white"/>
<path d="M140.685 0V2.74658C140.685 3.06396 140.675 3.37646 140.656 3.68408C140.641 3.98682 140.626 4.22363 140.612 4.39453H140.685C140.905 4.04297 141.21 3.74756 141.601 3.5083C141.996 3.26416 142.501 3.14209 143.117 3.14209C144.079 3.14209 144.853 3.49609 145.438 4.2041C146.024 4.90723 146.317 5.94971 146.317 7.33154C146.317 8.24951 146.183 9.021 145.915 9.646C145.646 10.271 145.268 10.7446 144.779 11.0669C144.296 11.3843 143.727 11.543 143.073 11.543C142.458 11.543 141.959 11.4307 141.579 11.2061C141.203 10.9766 140.907 10.7104 140.692 10.4077H140.568L140.253 11.3965H138.964V0H140.685ZM142.663 4.54102C142.174 4.54102 141.786 4.63867 141.498 4.83398C141.215 5.0293 141.01 5.32227 140.883 5.71289C140.756 6.09863 140.69 6.58936 140.685 7.18506V7.33887C140.685 8.24219 140.827 8.93311 141.11 9.41162C141.398 9.89014 141.92 10.1294 142.677 10.1294C143.278 10.1294 143.739 9.8877 144.062 9.4043C144.384 8.91602 144.545 8.21777 144.545 7.30957C144.545 6.3916 144.384 5.70068 144.062 5.23682C143.744 4.77295 143.278 4.54102 142.663 4.54102Z" fill="white"/>
<path d="M150.031 3.28857V11.3965H148.31V3.28857H150.031ZM149.181 0.183105C149.445 0.183105 149.672 0.253906 149.862 0.395508C150.058 0.537109 150.155 0.78125 150.155 1.12793C150.155 1.46973 150.058 1.71387 149.862 1.86035C149.672 2.00195 149.445 2.07275 149.181 2.07275C148.908 2.07275 148.676 2.00195 148.485 1.86035C148.3 1.71387 148.207 1.46973 148.207 1.12793C148.207 0.78125 148.3 0.537109 148.485 0.395508C148.676 0.253906 148.908 0.183105 149.181 0.183105Z" fill="white"/>
<path d="M155.729 3.13477C156.452 3.13477 157.072 3.28369 157.589 3.58154C158.107 3.87939 158.505 4.30176 158.783 4.84863C159.062 5.39551 159.201 6.0498 159.201 6.81152V7.73438H153.788C153.808 8.52051 154.018 9.12598 154.418 9.55078C154.823 9.97559 155.39 10.188 156.117 10.188C156.635 10.188 157.099 10.1392 157.509 10.0415C157.924 9.93896 158.351 9.79004 158.791 9.59473V10.9937C158.385 11.1841 157.973 11.3232 157.553 11.4111C157.133 11.499 156.63 11.543 156.044 11.543C155.248 11.543 154.547 11.3892 153.942 11.0815C153.341 10.769 152.87 10.3052 152.528 9.68994C152.191 9.07471 152.023 8.31055 152.023 7.39746C152.023 6.48926 152.177 5.71777 152.484 5.08301C152.792 4.44824 153.224 3.96484 153.781 3.63281C154.337 3.30078 154.987 3.13477 155.729 3.13477ZM155.729 4.43115C155.187 4.43115 154.748 4.60693 154.411 4.9585C154.079 5.31006 153.883 5.8252 153.825 6.50391H157.516C157.511 6.09863 157.443 5.73975 157.311 5.42725C157.184 5.11475 156.989 4.87061 156.725 4.69482C156.466 4.51904 156.134 4.43115 155.729 4.43115Z" fill="white"/>
<path d="M165.368 3.13477C166.281 3.13477 166.991 3.37158 167.499 3.84521C168.012 4.31396 168.268 5.06836 168.268 6.1084V11.3965H166.547V6.43066C166.547 5.80078 166.417 5.32959 166.159 5.01709C165.9 4.69971 165.5 4.54102 164.958 4.54102C164.171 4.54102 163.625 4.78271 163.317 5.26611C163.014 5.74951 162.863 6.4502 162.863 7.36816V11.3965H161.142V3.28857H162.482L162.724 4.38721H162.819C162.995 4.104 163.212 3.87207 163.471 3.69141C163.734 3.50586 164.027 3.3667 164.35 3.27393C164.677 3.18115 165.016 3.13477 165.368 3.13477Z" fill="white"/>
<path d="M172.531 11.3965L169.447 3.28857H171.271L172.941 8.04932C173.048 8.35205 173.146 8.6792 173.234 9.03076C173.322 9.38232 173.383 9.67773 173.417 9.91699H173.476C173.51 9.66797 173.576 9.37012 173.673 9.02344C173.771 8.67188 173.871 8.34717 173.974 8.04932L175.644 3.28857H177.46L174.376 11.3965H172.531Z" fill="white"/>
<path d="M181.92 3.13477C182.643 3.13477 183.263 3.28369 183.781 3.58154C184.298 3.87939 184.696 4.30176 184.975 4.84863C185.253 5.39551 185.392 6.0498 185.392 6.81152V7.73438H179.979C179.999 8.52051 180.209 9.12598 180.609 9.55078C181.015 9.97559 181.581 10.188 182.309 10.188C182.826 10.188 183.29 10.1392 183.7 10.0415C184.115 9.93896 184.542 9.79004 184.982 9.59473V10.9937C184.577 11.1841 184.164 11.3232 183.744 11.4111C183.324 11.499 182.821 11.543 182.235 11.543C181.439 11.543 180.739 11.3892 180.133 11.0815C179.533 10.769 179.062 10.3052 178.72 9.68994C178.383 9.07471 178.214 8.31055 178.214 7.39746C178.214 6.48926 178.368 5.71777 178.676 5.08301C178.983 4.44824 179.416 3.96484 179.972 3.63281C180.529 3.30078 181.178 3.13477 181.92 3.13477ZM181.92 4.43115C181.378 4.43115 180.939 4.60693 180.602 4.9585C180.27 5.31006 180.075 5.8252 180.016 6.50391H183.708C183.703 6.09863 183.634 5.73975 183.502 5.42725C183.375 5.11475 183.18 4.87061 182.917 4.69482C182.658 4.51904 182.326 4.43115 181.92 4.43115Z" fill="white"/>
<path d="M191.559 3.13477C192.472 3.13477 193.183 3.37158 193.69 3.84521C194.203 4.31396 194.459 5.06836 194.459 6.1084V11.3965H192.738V6.43066C192.738 5.80078 192.609 5.32959 192.35 5.01709C192.091 4.69971 191.691 4.54102 191.149 4.54102C190.363 4.54102 189.816 4.78271 189.508 5.26611C189.206 5.74951 189.054 6.4502 189.054 7.36816V11.3965H187.333V3.28857H188.673L188.915 4.38721H189.01C189.186 4.104 189.403 3.87207 189.662 3.69141C189.926 3.50586 190.219 3.3667 190.541 3.27393C190.868 3.18115 191.208 3.13477 191.559 3.13477Z" fill="white"/>
<path d="M198.59 3.28857V11.3965H196.869V3.28857H198.59ZM197.741 0.183105C198.004 0.183105 198.231 0.253906 198.422 0.395508C198.617 0.537109 198.715 0.78125 198.715 1.12793C198.715 1.46973 198.617 1.71387 198.422 1.86035C198.231 2.00195 198.004 2.07275 197.741 2.07275C197.467 2.07275 197.235 2.00195 197.045 1.86035C196.859 1.71387 196.767 1.46973 196.767 1.12793C196.767 0.78125 196.859 0.537109 197.045 0.395508C197.235 0.253906 197.467 0.183105 197.741 0.183105Z" fill="white"/>
<path d="M203.783 11.543C202.816 11.543 202.04 11.1914 201.454 10.4883C200.873 9.78027 200.583 8.73779 200.583 7.36084C200.583 5.96924 200.878 4.91699 201.469 4.2041C202.064 3.49121 202.848 3.13477 203.82 3.13477C204.23 3.13477 204.589 3.19092 204.896 3.30322C205.204 3.41064 205.468 3.55713 205.688 3.74268C205.912 3.92822 206.103 4.13574 206.259 4.36523H206.339C206.315 4.21387 206.286 3.99658 206.251 3.71338C206.222 3.42529 206.208 3.15918 206.208 2.91504V0H207.936V11.3965H206.588L206.281 10.2905H206.208C206.061 10.5249 205.875 10.7373 205.651 10.9277C205.431 11.1133 205.167 11.2622 204.86 11.3745C204.557 11.4868 204.198 11.543 203.783 11.543ZM204.267 10.144C205.004 10.144 205.524 9.93164 205.827 9.50684C206.129 9.08203 206.286 8.44482 206.295 7.59521V7.36816C206.295 6.45996 206.149 5.76416 205.856 5.28076C205.563 4.79248 205.028 4.54834 204.252 4.54834C203.632 4.54834 203.158 4.7998 202.831 5.30273C202.509 5.80078 202.348 6.49658 202.348 7.39014C202.348 8.28369 202.509 8.96729 202.831 9.44092C203.158 9.90967 203.637 10.144 204.267 10.144Z" fill="white"/>
<path d="M213.583 3.13477C214.608 3.13477 215.382 3.36182 215.905 3.81592C216.432 4.27002 216.696 4.97803 216.696 5.93994V11.3965H215.473L215.143 10.2466H215.084C214.855 10.5396 214.618 10.7812 214.374 10.9717C214.13 11.1621 213.847 11.3037 213.524 11.3965C213.207 11.4941 212.819 11.543 212.36 11.543C211.876 11.543 211.444 11.4551 211.063 11.2793C210.683 11.0986 210.382 10.8252 210.163 10.459C209.943 10.0928 209.833 9.62891 209.833 9.06738C209.833 8.23242 210.143 7.60498 210.763 7.18506C211.388 6.76514 212.331 6.5332 213.59 6.48926L214.997 6.43799V6.01318C214.997 5.45166 214.865 5.05127 214.601 4.81201C214.342 4.57275 213.976 4.45312 213.502 4.45312C213.097 4.45312 212.704 4.51172 212.323 4.62891C211.942 4.74609 211.571 4.89014 211.21 5.06104L210.653 3.84521C211.049 3.63525 211.498 3.46436 212.001 3.33252C212.509 3.20068 213.036 3.13477 213.583 3.13477ZM214.989 7.52197L213.942 7.55859C213.083 7.58789 212.479 7.73438 212.133 7.99805C211.786 8.26172 211.613 8.62305 211.613 9.08203C211.613 9.48242 211.732 9.77539 211.972 9.96094C212.211 10.1416 212.526 10.2319 212.917 10.2319C213.512 10.2319 214.005 10.0635 214.396 9.72656C214.792 9.38477 214.989 8.88428 214.989 8.2251V7.52197Z" fill="white"/>
<path d="M76.7446 15V17.8638C76.7446 18.1616 76.7349 18.4521 76.7153 18.7354C76.7007 19.0186 76.6836 19.2383 76.6641 19.3945H76.7593C76.9302 19.1113 77.1401 18.8794 77.3892 18.6987C77.6382 18.5132 77.9165 18.374 78.2241 18.2812C78.5366 18.1885 78.8687 18.1421 79.2202 18.1421C79.8403 18.1421 80.3677 18.2471 80.8022 18.457C81.2368 18.6621 81.5688 18.9819 81.7983 19.4165C82.0327 19.8511 82.1499 20.415 82.1499 21.1084V26.3965H80.4287V21.4307C80.4287 20.8008 80.2993 20.3296 80.0405 20.0171C79.7817 19.6997 79.3813 19.541 78.8394 19.541C78.3169 19.541 77.9019 19.6509 77.5942 19.8706C77.2915 20.0854 77.0742 20.4053 76.9424 20.8301C76.8105 21.25 76.7446 21.7627 76.7446 22.3682V26.3965H75.0234V15H76.7446Z" fill="white"/>
<path d="M87.7383 18.1348C88.7637 18.1348 89.5376 18.3618 90.0601 18.8159C90.5874 19.27 90.8511 19.978 90.8511 20.9399V26.3965H89.6279L89.2983 25.2466H89.2397C89.0103 25.5396 88.7734 25.7812 88.5293 25.9717C88.2852 26.1621 88.002 26.3037 87.6797 26.3965C87.3623 26.4941 86.9741 26.543 86.5151 26.543C86.0317 26.543 85.5996 26.4551 85.2188 26.2793C84.8379 26.0986 84.5376 25.8252 84.3179 25.459C84.0981 25.0928 83.9883 24.6289 83.9883 24.0674C83.9883 23.2324 84.2983 22.605 84.9185 22.1851C85.5435 21.7651 86.4858 21.5332 87.7456 21.4893L89.1519 21.438V21.0132C89.1519 20.4517 89.02 20.0513 88.7563 19.812C88.4976 19.5728 88.1313 19.4531 87.6577 19.4531C87.2524 19.4531 86.8594 19.5117 86.4785 19.6289C86.0977 19.7461 85.7266 19.8901 85.3652 20.061L84.8086 18.8452C85.2041 18.6353 85.6533 18.4644 86.1562 18.3325C86.6641 18.2007 87.1914 18.1348 87.7383 18.1348ZM89.1445 22.522L88.0972 22.5586C87.2378 22.5879 86.6348 22.7344 86.2881 22.998C85.9414 23.2617 85.7681 23.623 85.7681 24.082C85.7681 24.4824 85.8877 24.7754 86.127 24.9609C86.3662 25.1416 86.6812 25.2319 87.0718 25.2319C87.6675 25.2319 88.1606 25.0635 88.5513 24.7266C88.9468 24.3848 89.1445 23.8843 89.1445 23.2251V22.522Z" fill="white"/>
<path d="M98.71 24.082C98.71 24.6143 98.5806 25.0635 98.3218 25.4297C98.063 25.7959 97.6846 26.0742 97.1865 26.2646C96.6934 26.4502 96.0879 26.543 95.3701 26.543C94.8037 26.543 94.3154 26.5015 93.9053 26.4185C93.5 26.3403 93.1167 26.2183 92.7554 26.0522V24.5654C93.1411 24.7461 93.5732 24.9023 94.0518 25.0342C94.5352 25.166 94.9917 25.2319 95.4214 25.2319C95.9878 25.2319 96.3955 25.144 96.6445 24.9683C96.8936 24.7876 97.0181 24.5483 97.0181 24.2505C97.0181 24.0747 96.9668 23.9185 96.8643 23.7817C96.7666 23.6401 96.5811 23.4961 96.3076 23.3496C96.0391 23.1982 95.6436 23.0176 95.1211 22.8076C94.6084 22.6025 94.1763 22.3975 93.8247 22.1924C93.4731 21.9873 93.207 21.7407 93.0264 21.4526C92.8457 21.1597 92.7554 20.7861 92.7554 20.332C92.7554 19.6143 93.0386 19.0698 93.605 18.6987C94.1763 18.3228 94.9307 18.1348 95.8682 18.1348C96.3662 18.1348 96.835 18.186 97.2744 18.2886C97.7188 18.3862 98.1533 18.5303 98.5781 18.7207L98.0361 20.0171C97.6699 19.856 97.3013 19.7241 96.9302 19.6216C96.564 19.5142 96.1904 19.4604 95.8096 19.4604C95.3652 19.4604 95.0259 19.5288 94.7915 19.6655C94.562 19.8022 94.4473 19.9976 94.4473 20.2515C94.4473 20.4419 94.5034 20.603 94.6157 20.7349C94.728 20.8667 94.9209 20.9985 95.1943 21.1304C95.4727 21.2622 95.8584 21.4258 96.3516 21.6211C96.835 21.8066 97.2524 22.002 97.604 22.207C97.9604 22.4072 98.2339 22.6538 98.4243 22.9468C98.6147 23.2397 98.71 23.6182 98.71 24.082Z" fill="white"/>
<path d="M103.588 25.1514C103.812 25.1514 104.035 25.1318 104.254 25.0928C104.474 25.0488 104.674 24.9976 104.855 24.939V26.2427C104.665 26.3257 104.418 26.3965 104.115 26.4551C103.812 26.5137 103.498 26.543 103.17 26.543C102.711 26.543 102.299 26.4673 101.933 26.3159C101.566 26.1597 101.276 25.8936 101.061 25.5176C100.846 25.1416 100.739 24.6216 100.739 23.9575V19.5996H99.6328V18.8306L100.819 18.2227L101.383 16.4868H102.467V18.2886H104.789V19.5996H102.467V23.9355C102.467 24.3457 102.57 24.6509 102.775 24.8511C102.98 25.0513 103.251 25.1514 103.588 25.1514Z" fill="white"/>
<path d="M109.682 18.1348C110.707 18.1348 111.481 18.3618 112.003 18.8159C112.531 19.27 112.794 19.978 112.794 20.9399V26.3965H111.571L111.242 25.2466H111.183C110.954 25.5396 110.717 25.7812 110.473 25.9717C110.229 26.1621 109.945 26.3037 109.623 26.3965C109.306 26.4941 108.917 26.543 108.458 26.543C107.975 26.543 107.543 26.4551 107.162 26.2793C106.781 26.0986 106.481 25.8252 106.261 25.459C106.042 25.0928 105.932 24.6289 105.932 24.0674C105.932 23.2324 106.242 22.605 106.862 22.1851C107.487 21.7651 108.429 21.5332 109.689 21.4893L111.095 21.438V21.0132C111.095 20.4517 110.963 20.0513 110.7 19.812C110.441 19.5728 110.075 19.4531 109.601 19.4531C109.196 19.4531 108.803 19.5117 108.422 19.6289C108.041 19.7461 107.67 19.8901 107.309 20.061L106.752 18.8452C107.147 18.6353 107.597 18.4644 108.1 18.3325C108.607 18.2007 109.135 18.1348 109.682 18.1348ZM111.088 22.522L110.041 22.5586C109.181 22.5879 108.578 22.7344 108.231 22.998C107.885 23.2617 107.711 23.623 107.711 24.082C107.711 24.4824 107.831 24.7754 108.07 24.9609C108.31 25.1416 108.625 25.2319 109.015 25.2319C109.611 25.2319 110.104 25.0635 110.495 24.7266C110.89 24.3848 111.088 23.8843 111.088 23.2251V22.522Z" fill="white"/>
<path d="M120.006 37.3965V18.8359H125.021V33.3467H132.168V37.3965H120.006Z" fill="white"/>
<path d="M134.225 35.2891C134.225 34.3919 134.487 33.7614 135.012 33.3975C135.545 33.0335 136.184 32.8516 136.929 32.8516C137.631 32.8516 138.241 33.0335 138.757 33.3975C139.273 33.7614 139.531 34.3919 139.531 35.2891C139.531 36.1439 139.273 36.7617 138.757 37.1426C138.241 37.5234 137.631 37.7139 136.929 37.7139C136.184 37.7139 135.545 37.5234 135.012 37.1426C134.487 36.7617 134.225 36.1439 134.225 35.2891Z" fill="white"/>
<path d="M143.302 37.3965L149.675 22.9873H141.639V18.8359H155.032V21.7939L148.494 37.3965H143.302Z" fill="white"/>
<path d="M162.205 33.6006L162.383 33.8926C162.23 34.5104 162.032 35.2552 161.786 36.127C161.549 36.9902 161.287 37.8577 160.999 38.7295C160.72 39.6097 160.436 40.3714 160.148 41.0146H156.606C156.776 40.2191 156.941 39.3812 157.102 38.501C157.262 37.6208 157.41 36.7575 157.546 35.9111C157.681 35.0648 157.787 34.2946 157.863 33.6006H162.205Z" fill="white"/>
<path d="M178.252 28.1416C178.252 29.6312 178.133 30.9642 177.896 32.1406C177.66 33.3086 177.279 34.3031 176.754 35.124C176.238 35.945 175.552 36.5713 174.697 37.0029C173.842 37.4346 172.793 37.6504 171.549 37.6504C170 37.6504 168.73 37.2738 167.74 36.5205C166.75 35.7588 166.018 34.6712 165.544 33.2578C165.078 31.8359 164.846 30.1305 164.846 28.1416C164.846 26.1357 165.057 24.4219 165.48 23C165.912 21.5697 166.619 20.4736 167.601 19.7119C168.582 18.9502 169.898 18.5693 171.549 18.5693C173.098 18.5693 174.363 18.9502 175.345 19.7119C176.335 20.4652 177.067 21.557 177.541 22.9873C178.015 24.4092 178.252 26.1273 178.252 28.1416ZM169.835 28.1416C169.835 29.3519 169.877 30.3675 169.962 31.1885C170.055 32.0094 170.224 32.6273 170.47 33.042C170.724 33.4482 171.083 33.6514 171.549 33.6514C172.014 33.6514 172.37 33.4482 172.615 33.042C172.861 32.6273 173.03 32.0137 173.123 31.2012C173.216 30.3802 173.263 29.3604 173.263 28.1416C173.263 26.9144 173.216 25.8903 173.123 25.0693C173.03 24.2484 172.861 23.6305 172.615 23.2158C172.37 22.7926 172.014 22.5811 171.549 22.5811C171.083 22.5811 170.724 22.7926 170.47 23.2158C170.224 23.6305 170.055 24.2484 169.962 25.0693C169.877 25.8903 169.835 26.9144 169.835 28.1416Z" fill="white"/>
<path d="M193.486 28.1416C193.486 29.6312 193.368 30.9642 193.131 32.1406C192.894 33.3086 192.513 34.3031 191.988 35.124C191.472 35.945 190.786 36.5713 189.932 37.0029C189.077 37.4346 188.027 37.6504 186.783 37.6504C185.234 37.6504 183.965 37.2738 182.975 36.5205C181.984 35.7588 181.252 34.6712 180.778 33.2578C180.313 31.8359 180.08 30.1305 180.08 28.1416C180.08 26.1357 180.292 24.4219 180.715 23C181.146 21.5697 181.853 20.4736 182.835 19.7119C183.817 18.9502 185.133 18.5693 186.783 18.5693C188.332 18.5693 189.597 18.9502 190.579 19.7119C191.569 20.4652 192.301 21.557 192.775 22.9873C193.249 24.4092 193.486 26.1273 193.486 28.1416ZM185.069 28.1416C185.069 29.3519 185.112 30.3675 185.196 31.1885C185.289 32.0094 185.459 32.6273 185.704 33.042C185.958 33.4482 186.318 33.6514 186.783 33.6514C187.249 33.6514 187.604 33.4482 187.85 33.042C188.095 32.6273 188.264 32.0137 188.357 31.2012C188.451 30.3802 188.497 29.3604 188.497 28.1416C188.497 26.9144 188.451 25.8903 188.357 25.0693C188.264 24.2484 188.095 23.6305 187.85 23.2158C187.604 22.7926 187.249 22.5811 186.783 22.5811C186.318 22.5811 185.958 22.7926 185.704 23.2158C185.459 23.6305 185.289 24.2484 185.196 25.0693C185.112 25.8903 185.069 26.9144 185.069 28.1416Z" fill="white"/>
<path d="M208.721 28.1416C208.721 29.6312 208.602 30.9642 208.365 32.1406C208.128 33.3086 207.747 34.3031 207.223 35.124C206.706 35.945 206.021 36.5713 205.166 37.0029C204.311 37.4346 203.262 37.6504 202.018 37.6504C200.469 37.6504 199.199 37.2738 198.209 36.5205C197.219 35.7588 196.487 34.6712 196.013 33.2578C195.547 31.8359 195.314 30.1305 195.314 28.1416C195.314 26.1357 195.526 24.4219 195.949 23C196.381 21.5697 197.088 20.4736 198.069 19.7119C199.051 18.9502 200.367 18.5693 202.018 18.5693C203.566 18.5693 204.832 18.9502 205.813 19.7119C206.804 20.4652 207.536 21.557 208.01 22.9873C208.484 24.4092 208.721 26.1273 208.721 28.1416ZM200.304 28.1416C200.304 29.3519 200.346 30.3675 200.431 31.1885C200.524 32.0094 200.693 32.6273 200.938 33.042C201.192 33.4482 201.552 33.6514 202.018 33.6514C202.483 33.6514 202.839 33.4482 203.084 33.042C203.329 32.6273 203.499 32.0137 203.592 31.2012C203.685 30.3802 203.731 29.3604 203.731 28.1416C203.731 26.9144 203.685 25.8903 203.592 25.0693C203.499 24.2484 203.329 23.6305 203.084 23.2158C202.839 22.7926 202.483 22.5811 202.018 22.5811C201.552 22.5811 201.192 22.7926 200.938 23.2158C200.693 23.6305 200.524 24.2484 200.431 25.0693C200.346 25.8903 200.304 26.9144 200.304 28.1416Z" fill="white"/>
<path d="M48.1429 1H4.8571C2.1702 1 0 3.18234 0 5.88428V35.1157C0 37.8177 2.1702 40 4.8571 40H48.1429C50.8298 40 53 37.8177 53 35.1157V5.88428C53 3.18234 50.8298 1 48.1429 1ZM51.3465 5.89913V14.1089H21.8791C22.9716 13.2627 23.6359 12.0156 23.6359 10.6053C23.6359 8.06662 21.5838 6.01789 19.0741 6.01789C17.6716 6.01789 16.4315 6.68595 15.59 7.78454V2.67758H48.1281C49.8997 2.67758 51.3318 4.11763 51.3318 5.89913H51.3465ZM6.99777 10.6053C6.99777 8.98706 8.29694 7.68062 9.90613 7.68062C11.6334 7.68062 12.6373 9.25428 12.8293 10.7092L13.2574 13.9604L10.0242 13.5299C8.57744 13.3369 7.01253 12.3422 7.01253 10.5904L6.99777 10.6053ZM15.7228 13.9604L16.151 10.7092C16.3429 9.25428 17.332 7.68062 19.0741 7.68062C20.6833 7.68062 21.9824 8.98706 21.9824 10.6053C21.9824 12.3422 20.4176 13.3517 18.9708 13.5447L15.7376 13.9753L15.7228 13.9604ZM4.84234 2.67758H13.9365V8.6753C13.154 7.04225 11.663 6.00305 9.90613 6.00305C7.38162 6.00305 5.34429 8.06662 5.34429 10.5904C5.34429 12.0008 6.00864 13.2478 7.10112 14.094H1.63872V5.88428C1.63872 4.10278 3.07075 2.66273 4.84234 2.66273V2.67758ZM1.63872 35.1306V15.7716H12.8293L9.46323 19.3346C9.13844 19.6612 9.1532 20.1957 9.47799 20.5074C9.80278 20.834 10.3343 20.8192 10.6443 20.4926L13.907 17.0335V38.367H4.81281C3.04123 38.367 1.60919 36.9269 1.60919 35.1454L1.63872 35.1306ZM48.1429 38.3521H15.6047V17.0483L21.4215 23.3133C21.7315 23.6547 22.2482 23.6696 22.5877 23.3727C22.9273 23.0757 22.9421 22.5413 22.6468 22.1998L16.6972 15.7865H51.3613V35.1454C51.3613 36.9269 49.9292 38.367 48.1577 38.367L48.1429 38.3521ZM46.2089 30.3205H30.427C29.9694 30.3205 29.6003 30.6917 29.6003 31.1519V35.0266C29.6003 35.4869 29.9694 35.858 30.427 35.858H46.2089C46.6666 35.858 47.0357 35.4869 47.0357 35.0266V31.1519C47.0357 30.6917 46.6666 30.3205 46.2089 30.3205ZM45.3822 34.1953H31.2538V31.9833H45.3822V34.1953Z" fill="white"/>
</svg>
