<svg width="225" height="65" viewBox="0 0 225 65" fill="none" xmlns="http://www.w3.org/2000/svg">
<circle cx="32.5" cy="32.5" r="32.065" fill="url(#paint0_linear_2136_2470)" stroke="white" stroke-width="0.87"/>
<path d="M43.8624 21.2243C37.5425 15.09 27.4454 15.2384 21.3111 21.5584C15.2974 27.7484 15.2974 37.595 21.3111 43.7757C27.631 49.9101 37.7281 49.7616 43.8624 43.4416C49.8762 37.2516 49.8762 27.4051 43.8624 21.2243ZM32.5868 47.1909C24.485 47.1909 17.8959 40.6018 17.8959 32.5C17.8959 24.3982 24.485 17.8091 32.5868 17.8091C40.6886 17.8091 47.2777 24.3982 47.2777 32.5C47.2777 40.6018 40.6886 47.1909 32.5868 47.1909ZM39.7884 25.3077C40.0297 25.549 40.0297 25.948 39.7884 26.1893L26.2854 39.6923C26.0348 39.9336 25.6357 39.9243 25.4037 39.6645C25.1717 39.4232 25.1717 39.0427 25.4037 38.8014L38.9067 25.2984C39.148 25.0571 39.5378 25.0571 39.7884 25.2984V25.3077ZM30.3316 30.1149C31.9835 30.1149 33.3199 28.7786 33.3199 27.1267C33.3199 25.4747 31.9835 24.1384 30.3316 24.1384C28.6797 24.1384 27.3433 25.4747 27.3433 27.1267C27.3433 27.9155 27.6589 28.6765 28.225 29.2426C28.7818 29.7994 29.5428 30.1242 30.3316 30.1149ZM29.1066 25.9016C29.7748 25.2149 30.8606 25.1963 31.5474 25.8645C32.2341 26.5327 32.2527 27.6185 31.5845 28.3053L31.5474 28.3424C30.8792 29.0291 29.7933 29.0477 29.1066 28.3795C28.4198 27.7113 28.4013 26.6255 29.0695 25.9388L29.1066 25.9016ZM32.7352 35.7667C31.5659 36.936 31.5659 38.82 32.7352 39.98C33.9046 41.1494 35.7885 41.1494 36.9486 39.98C38.1086 38.8107 38.1179 36.9268 36.9486 35.7667C35.7792 34.6067 33.8953 34.6067 32.7352 35.7667ZM36.0762 39.0984C35.408 39.7666 34.3036 39.7666 33.6354 39.0984C32.9673 38.4302 32.9673 37.3258 33.6354 36.6576C34.3036 35.9894 35.408 35.9894 36.0762 36.6576C36.7444 37.3258 36.7444 38.4302 36.0762 39.0984Z" fill="white"/>
<path d="M85.7623 23.4448H83.6803V15.3608H81.0146V13.6273H88.4279V15.3608H85.7623V23.4448Z" fill="white"/>
<path d="M94.2031 23.4447L93.811 22.4255H93.7588C93.4103 22.8611 93.0619 23.1573 92.696 23.3315C92.3301 23.5057 91.8597 23.5841 91.2674 23.5841C90.5443 23.5841 89.9781 23.375 89.5687 22.9656C89.1593 22.5562 88.9502 21.9638 88.9502 21.206C88.9502 20.4481 89.2289 19.8209 89.7865 19.4463C90.344 19.0717 91.1802 18.8626 92.304 18.8191L93.6107 18.7755V18.4445C93.6107 17.6866 93.2187 17.3033 92.4434 17.3033C91.8423 17.3033 91.1367 17.4863 90.3266 17.8434L89.6471 16.4583C90.5095 16.0054 91.4677 15.7789 92.5218 15.7789C93.5758 15.7789 94.2989 15.9967 94.839 16.4409C95.3791 16.8765 95.6404 17.5472 95.6404 18.4445V23.4447H94.2117H94.2031ZM93.5933 19.969L92.8005 19.9951C92.2082 20.0125 91.7639 20.1171 91.4677 20.3174C91.1803 20.5178 91.0322 20.814 91.0322 21.2147C91.0322 21.7896 91.3632 22.0771 92.0253 22.0771C92.4957 22.0771 92.8789 21.9377 93.1664 21.6676C93.4539 21.3976 93.5933 21.0317 93.5933 20.5787V19.9603V19.969Z" fill="white"/>
<path d="M102.627 21.2147C102.627 21.9813 102.357 22.5737 101.825 22.9744C101.294 23.3751 100.493 23.5755 99.4212 23.5755C98.8724 23.5755 98.4107 23.5406 98.0274 23.4622C97.6441 23.3838 97.2782 23.2793 96.9472 23.1399V21.4499C97.3305 21.6329 97.7573 21.7809 98.2364 21.9029C98.7156 22.0249 99.1337 22.0858 99.4996 22.0858C100.24 22.0858 100.615 21.8681 100.615 21.4412C100.615 21.2844 100.562 21.145 100.467 21.0492C100.371 20.9534 100.196 20.8314 99.9525 20.7095C99.7086 20.5875 99.3863 20.4307 98.9856 20.2652C98.4107 20.0213 97.9838 19.8035 97.7138 19.5944C97.4437 19.3854 97.2434 19.1502 97.1214 18.8888C96.9994 18.6188 96.9385 18.2965 96.9385 17.9045C96.9385 17.2337 97.1998 16.7197 97.7138 16.3539C98.2277 15.988 98.9595 15.8051 99.909 15.8051C100.859 15.8051 101.695 16.0054 102.548 16.3974L101.93 17.8783C101.555 17.7215 101.198 17.5821 100.876 17.4863C100.554 17.3818 100.214 17.3295 99.8742 17.3295C99.2731 17.3295 98.9682 17.495 98.9682 17.8173C98.9682 18.0003 99.064 18.1571 99.2644 18.2965C99.4647 18.4358 99.8829 18.6275 100.545 18.8975C101.129 19.1327 101.564 19.3592 101.834 19.5596C102.104 19.7687 102.305 20.0039 102.435 20.2739C102.566 20.544 102.627 20.8663 102.627 21.2321V21.2147Z" fill="white"/>
<path d="M108.655 23.4447L108.263 22.4255H108.211C107.862 22.8611 107.514 23.1573 107.148 23.3315C106.782 23.5057 106.312 23.5841 105.72 23.5841C104.996 23.5841 104.43 23.375 104.021 22.9656C103.611 22.5562 103.402 21.9638 103.402 21.206C103.402 20.4481 103.681 19.8209 104.239 19.4463C104.796 19.0717 105.632 18.8626 106.756 18.8191L108.063 18.7755V18.4445C108.063 17.6866 107.671 17.3033 106.896 17.3033C106.294 17.3033 105.589 17.4863 104.779 17.8434L104.099 16.4583C104.962 16.0054 105.92 15.7789 106.974 15.7789C108.028 15.7789 108.751 15.9967 109.291 16.4409C109.831 16.8765 110.093 17.5472 110.093 18.4445V23.4447H108.664H108.655ZM108.045 19.969L107.253 19.9951C106.66 20.0125 106.216 20.1171 105.92 20.3174C105.632 20.5178 105.484 20.814 105.484 21.2147C105.484 21.7896 105.815 22.0771 106.477 22.0771C106.948 22.0771 107.331 21.9377 107.619 21.6676C107.906 21.3976 108.045 21.0317 108.045 20.5787V19.9603V19.969Z" fill="white"/>
<path d="M117.453 23.5841C116.573 23.5841 115.876 23.2444 115.371 22.5562C114.866 21.868 114.613 20.9185 114.613 19.7076C114.613 18.4968 114.866 17.5211 115.38 16.8329C115.894 16.1447 116.599 15.805 117.497 15.805C118.438 15.805 119.161 16.1709 119.657 16.9026H119.727C119.622 16.3451 119.57 15.8486 119.57 15.4043V13H121.626V23.4447H120.058L119.666 22.4691H119.579C119.117 23.2095 118.403 23.5754 117.453 23.5754V23.5841ZM118.167 21.9464C118.69 21.9464 119.073 21.7983 119.317 21.4934C119.561 21.1885 119.692 20.6746 119.718 19.9428V19.7251C119.718 18.9236 119.596 18.34 119.343 17.9915C119.091 17.6431 118.69 17.4689 118.133 17.4689C117.68 17.4689 117.322 17.6605 117.07 18.0525C116.817 18.4358 116.687 19.002 116.687 19.7425C116.687 20.4829 116.817 21.0317 117.07 21.4063C117.322 21.7809 117.688 21.9638 118.167 21.9638V21.9464Z" fill="white"/>
<path d="M126.827 23.5842C125.616 23.5842 124.675 23.2531 123.996 22.5824C123.316 21.9116 122.977 20.9708 122.977 19.7512C122.977 18.5317 123.29 17.5212 123.917 16.833C124.545 16.1448 125.416 15.8051 126.522 15.8051C127.628 15.8051 128.412 16.1099 128.996 16.711C129.58 17.3121 129.885 18.1484 129.885 19.2111V20.2042H125.041C125.067 20.7879 125.233 21.2408 125.555 21.5632C125.877 21.8942 126.33 22.051 126.914 22.051C127.367 22.051 127.794 22.0074 128.195 21.9116C128.595 21.8158 129.022 21.6677 129.458 21.4586V23.0441C129.101 23.227 128.717 23.3577 128.308 23.4448C127.898 23.5319 127.402 23.5755 126.818 23.5755L126.827 23.5842ZM126.539 17.2598C126.104 17.2598 125.764 17.3992 125.52 17.6693C125.276 17.9393 125.137 18.3313 125.093 18.8366H127.968C127.959 18.3313 127.829 17.9393 127.576 17.6693C127.323 17.3992 126.975 17.2598 126.539 17.2598Z" fill="white"/>
<path d="M95.9535 40.301C95.9535 44.1426 95.126 46.9215 93.4709 48.6376C91.8157 50.3537 89.1675 51.2161 85.5262 51.2161C84.3241 51.2161 83.4094 51.1726 82.7909 51.0854V46.8866C83.5575 47.026 84.3328 47.1044 85.0994 47.1044C86.9984 47.1044 88.4619 46.7124 89.4898 45.9284C90.5178 45.1444 91.0753 43.9074 91.1711 42.2174H91.0143C90.6659 42.8621 90.3174 43.3238 89.9777 43.6112C89.6379 43.8987 89.2198 44.1165 88.732 44.2733C88.2354 44.4214 87.6256 44.4998 86.8939 44.4998C85.1952 44.4998 83.8624 43.9335 82.9042 42.7924C81.9459 41.6599 81.4668 40.0919 81.4668 38.097C81.4668 35.9192 82.0853 34.2205 83.3223 32.9835C84.5593 31.7465 86.258 31.1281 88.4184 31.1281C90.8139 31.1281 92.6781 31.9208 93.9935 33.5149C95.3089 35.1091 95.971 37.374 95.971 40.3097L95.9535 40.301ZM88.5577 35.353C87.9741 35.353 87.5037 35.5621 87.1378 35.9802C86.7719 36.3983 86.5977 37.0778 86.5977 38.0099C86.5977 38.7417 86.7545 39.3253 87.0681 39.7609C87.3817 40.1964 87.8608 40.4142 88.5055 40.4142C89.0891 40.4142 89.5944 40.2051 90.0212 39.787C90.4481 39.3689 90.6659 38.8636 90.6659 38.2712C90.6659 37.4785 90.4655 36.7903 90.0648 36.2154C89.6641 35.6405 89.1588 35.353 88.5577 35.353Z" fill="white"/>
<path d="M106.79 37.1649C106.79 39.1336 106.346 40.6581 105.458 41.7383C104.569 42.8185 103.306 43.3586 101.668 43.3586C100.126 43.3586 98.9067 42.8011 98.0094 41.686C97.1122 40.571 96.6592 39.0639 96.6592 37.1649C96.6592 35.2659 97.0947 33.6804 97.9746 32.6177C98.8544 31.5549 100.083 31.0235 101.668 31.0235C103.254 31.0235 104.482 31.5723 105.405 32.6786C106.329 33.7762 106.79 35.2746 106.79 37.1649ZM100.701 37.2259C100.701 38.2538 100.788 38.9943 100.954 39.456C101.119 39.9089 101.381 40.1441 101.72 40.1441C102.06 40.1441 102.313 39.9176 102.478 39.4734C102.644 39.0291 102.731 38.2799 102.731 37.2346C102.731 36.1892 102.644 35.4662 102.478 35.0045C102.313 34.5515 102.06 34.3163 101.72 34.3163C101.381 34.3163 101.111 34.5515 100.945 35.0132C100.78 35.4749 100.692 36.2154 100.692 37.2259H100.701ZM116.573 31.311L105.684 50.9373H101.694L112.583 31.311H116.573ZM121.721 44.9789C121.721 46.9389 121.277 48.4633 120.389 49.5348C119.5 50.615 118.237 51.1551 116.608 51.1551C115.066 51.1551 113.846 50.5976 112.949 49.4826C112.052 48.3675 111.599 46.8692 111.599 44.9789C111.599 43.0885 112.034 41.4944 112.914 40.4316C113.794 39.3688 115.022 38.8375 116.608 38.8375C118.193 38.8375 119.422 39.3863 120.345 40.4926C121.268 41.5902 121.73 43.0885 121.73 44.9789H121.721ZM115.632 45.0398C115.632 46.0678 115.719 46.8082 115.885 47.2699C116.05 47.7229 116.312 47.9581 116.651 47.9581C117.035 47.9581 117.305 47.6968 117.453 47.1741C117.601 46.6514 117.671 45.9371 117.671 45.0485C117.671 44.16 117.601 43.4457 117.453 42.923C117.305 42.4003 117.035 42.139 116.651 42.139C116.303 42.139 116.042 42.3742 115.876 42.8359C115.711 43.2976 115.624 44.038 115.624 45.0485L115.632 45.0398Z" fill="white"/>
<path d="M130.128 50.9461V31.3197H135.459V50.9461H130.128Z" fill="white"/>
<path d="M148.309 50.946V42.6442C148.309 41.6337 148.161 40.8671 147.873 40.3532C147.586 39.8392 147.115 39.5779 146.471 39.5779C145.582 39.5779 144.946 39.935 144.554 40.6406C144.162 41.3463 143.962 42.5571 143.962 44.2819V50.946H138.709V35.7362H142.673L143.335 37.6179H143.64C144.084 36.9035 144.711 36.3634 145.495 36.0063C146.288 35.6491 147.194 35.4662 148.23 35.4662C149.912 35.4662 151.218 35.954 152.159 36.9297C153.091 37.9053 153.562 39.2817 153.562 41.0501V50.946H148.309Z" fill="white"/>
<path d="M163.893 47.0608C164.599 47.0608 165.444 46.8866 166.428 46.5382V50.3624C165.723 50.6673 165.043 50.8851 164.407 51.0157C163.763 51.1464 163.013 51.2074 162.16 51.2074C160.4 51.2074 159.128 50.7718 158.344 49.9094C157.569 49.047 157.177 47.7229 157.177 45.9284V39.6563H155.339V37.5221L157.673 35.8669L159.032 32.6699H162.473V35.7188H166.21V39.6563H162.473V45.5799C162.473 46.5643 162.944 47.0608 163.893 47.0608Z" fill="white"/>
<path d="M175.749 51.2161C173.214 51.2161 171.245 50.5453 169.851 49.1951C168.449 47.8448 167.752 45.9284 167.752 43.4457C167.752 40.963 168.397 38.9071 169.695 37.5307C170.993 36.1544 172.848 35.4662 175.252 35.4662C177.657 35.4662 179.312 36.0673 180.566 37.2607C181.821 38.4541 182.439 40.179 182.439 42.4264V44.7611H173.057C173.092 45.6148 173.406 46.2768 173.989 46.7646C174.573 47.2437 175.374 47.4877 176.385 47.4877C177.308 47.4877 178.153 47.4005 178.928 47.2263C179.704 47.0521 180.54 46.7559 181.446 46.3291V50.101C180.618 50.5192 179.773 50.8153 178.894 50.9721C178.014 51.1289 176.968 51.2161 175.749 51.2161ZM175.444 39.0378C174.825 39.0378 174.312 39.2294 173.893 39.6214C173.475 40.0134 173.231 40.6232 173.162 41.4508H177.674C177.657 40.719 177.448 40.1267 177.047 39.6911C176.646 39.2556 176.115 39.0291 175.444 39.0291V39.0378Z" fill="white"/>
<path d="M193.902 35.4662C194.355 35.4662 194.791 35.501 195.209 35.5707L195.505 35.623L195.035 40.5797C194.608 40.4751 194.007 40.4229 193.249 40.4229C192.099 40.4229 191.272 40.6842 190.749 41.2069C190.226 41.7295 189.974 42.4874 189.974 43.4718V50.9547H184.721V35.7449H188.632L189.451 38.1754H189.703C190.139 37.3739 190.749 36.7206 191.533 36.2241C192.317 35.7275 193.11 35.4749 193.902 35.4749V35.4662Z" fill="white"/>
<path d="M204.278 51.2161C201.743 51.2161 199.774 50.5454 198.381 49.1951C196.978 47.8449 196.281 45.9284 196.281 43.4457C196.281 40.963 196.926 38.9072 198.224 37.5308C199.522 36.1544 201.377 35.4663 203.782 35.4663C206.186 35.4663 207.841 36.0673 209.095 37.2608C210.35 38.4542 210.968 40.179 210.968 42.4265V44.7611H201.586C201.621 45.6148 201.935 46.2769 202.519 46.7647C203.102 47.2438 203.904 47.4877 204.914 47.4877C205.837 47.4877 206.682 47.4006 207.458 47.2264C208.233 47.0522 209.069 46.756 209.975 46.3291V50.1011C209.148 50.5192 208.303 50.8154 207.423 50.9722C206.543 51.129 205.498 51.2161 204.278 51.2161ZM201.438 34.2815V33.8895C202.815 32.4086 203.695 31.4591 204.06 31.0322C204.435 30.6054 204.74 30.2221 204.984 29.8737H210.733V30.1524C210.019 30.7274 209.034 31.4591 207.78 32.3389C206.526 33.2275 205.576 33.8721 204.932 34.2728H201.438V34.2815ZM203.965 39.0379C203.346 39.0379 202.832 39.2295 202.414 39.6215C201.996 40.0135 201.752 40.6233 201.682 41.4509H206.195C206.177 40.7191 205.968 40.1268 205.567 39.6912C205.167 39.2556 204.635 39.0291 203.965 39.0291V39.0379Z" fill="white"/>
<path d="M224.994 46.2681C224.994 47.8971 224.436 49.1254 223.33 49.9617C222.223 50.7979 220.629 51.2074 218.547 51.2074C217.424 51.2074 216.439 51.1464 215.603 51.0244C214.767 50.9025 213.922 50.6847 213.051 50.3624V46.1636C213.861 46.5207 214.758 46.8169 215.734 47.0521C216.701 47.2873 217.572 47.4006 218.33 47.4006C219.462 47.4006 220.037 47.1392 220.037 46.6253C220.037 46.3552 219.88 46.12 219.558 45.9109C219.236 45.7019 218.312 45.2925 216.788 44.6827C215.394 44.1077 214.418 43.4544 213.861 42.7314C213.303 41.9996 213.024 41.0762 213.024 39.9612C213.024 38.55 213.573 37.4436 214.662 36.6596C215.751 35.8756 217.302 35.4749 219.296 35.4749C220.298 35.4749 221.239 35.5882 222.119 35.8059C222.999 36.0237 223.913 36.346 224.863 36.7642L223.443 40.1441C222.746 39.8305 222.006 39.5605 221.23 39.3427C220.455 39.1249 219.819 39.0117 219.323 39.0117C218.46 39.0117 218.033 39.2207 218.033 39.6389C218.033 39.9002 218.181 40.118 218.486 40.3009C218.783 40.4839 219.654 40.8584 221.082 41.4247C222.145 41.8602 222.938 42.2958 223.469 42.7139C223.992 43.1321 224.375 43.6286 224.628 44.1948C224.872 44.7611 224.994 45.458 224.994 46.2681Z" fill="white"/>
<defs>
<linearGradient id="paint0_linear_2136_2470" x1="10" y1="11" x2="37" y2="37.5" gradientUnits="userSpaceOnUse">
<stop stop-color="#00583C"/>
<stop offset="1" stop-color="#008664"/>
</linearGradient>
</defs>
</svg>
