<svg width="230" height="65" viewBox="0 0 230 65" fill="none" xmlns="http://www.w3.org/2000/svg">
<path d="M81.8848 12.6359H84.9424C86.3362 12.6359 87.3467 12.8363 87.9739 13.2283C88.6011 13.6203 88.9147 14.2562 88.9147 15.1186C88.9147 15.7023 88.7753 16.1901 88.5053 16.5647C88.2352 16.9392 87.8607 17.1657 87.4077 17.2441V17.3138C88.0262 17.4532 88.4792 17.7145 88.7579 18.0891C89.0367 18.4724 89.1673 18.9777 89.1673 19.6049C89.1673 20.5021 88.845 21.199 88.2004 21.6956C87.5558 22.2008 86.6759 22.4447 85.5696 22.4447H81.8935V12.6272L81.8848 12.6359ZM83.9667 16.5211H85.1776C85.7438 16.5211 86.1533 16.434 86.4059 16.2598C86.6585 16.0855 86.7892 15.7981 86.7892 15.3974C86.7892 15.0228 86.6498 14.7527 86.3798 14.5872C86.101 14.4217 85.6654 14.3433 85.0731 14.3433H83.9755V16.5211H83.9667ZM83.9667 18.1762V20.7373H85.3257C85.9006 20.7373 86.3188 20.6241 86.5975 20.4063C86.8676 20.1885 87.007 19.8488 87.007 19.3958C87.007 18.5857 86.4233 18.1762 85.2647 18.1762H83.9755H83.9667Z" fill="white"/>
<path d="M97.4437 18.6902C97.4437 19.9098 97.1214 20.868 96.4768 21.5562C95.8321 22.2444 94.9349 22.5929 93.785 22.5929C93.062 22.5929 92.426 22.436 91.8772 22.1224C91.3284 21.8088 90.9016 21.3559 90.6054 20.7635C90.3092 20.1711 90.1611 19.4829 90.1611 18.6989C90.1611 17.4707 90.4834 16.5211 91.1194 15.8417C91.7553 15.1622 92.6612 14.8224 93.8198 14.8224C94.5429 14.8224 95.1788 14.9793 95.7276 15.2929C96.2764 15.6065 96.7033 16.0594 96.9994 16.6431C97.2956 17.2267 97.4437 17.9149 97.4437 18.7076V18.6902ZM92.2518 18.6902C92.2518 19.4307 92.3738 19.9969 92.6177 20.3715C92.8616 20.7548 93.2623 20.9464 93.8111 20.9464C94.3599 20.9464 94.7519 20.7548 94.9871 20.3802C95.2223 20.0056 95.3443 19.4394 95.3443 18.6902C95.3443 17.9411 95.2223 17.3923 94.9784 17.0177C94.7345 16.6431 94.3425 16.4602 93.7937 16.4602C93.2449 16.4602 92.8529 16.6431 92.609 17.0177C92.3651 17.3923 92.2431 17.9411 92.2431 18.6902H92.2518Z" fill="white"/>
<path d="M105.718 22.4535H103.671V18.0717C103.671 17.5316 103.575 17.1222 103.384 16.8522C103.192 16.5821 102.887 16.4427 102.46 16.4427C101.885 16.4427 101.476 16.6344 101.215 17.0177C100.953 17.401 100.831 18.0369 100.831 18.9167V22.4448H98.7842V14.9357H100.352L100.631 15.8939H100.744C100.971 15.5281 101.284 15.258 101.685 15.0751C102.086 14.8922 102.539 14.7963 103.053 14.7963C103.924 14.7963 104.586 15.0315 105.039 15.5019C105.492 15.9723 105.718 16.6518 105.718 17.5491V22.4448V22.4535Z" fill="white"/>
<path d="M114.299 18.6902C114.299 19.9098 113.977 20.868 113.332 21.5562C112.688 22.2444 111.79 22.5929 110.64 22.5929C109.917 22.5929 109.282 22.436 108.733 22.1224C108.184 21.8088 107.757 21.3559 107.461 20.7635C107.165 20.1711 107.017 19.4829 107.017 18.6989C107.017 17.4707 107.339 16.5211 107.975 15.8417C108.611 15.1622 109.517 14.8224 110.675 14.8224C111.398 14.8224 112.034 14.9793 112.583 15.2929C113.132 15.6065 113.559 16.0594 113.855 16.6431C114.151 17.2267 114.299 17.9149 114.299 18.7076V18.6902ZM109.107 18.6902C109.107 19.4307 109.229 19.9969 109.473 20.3715C109.717 20.7548 110.118 20.9464 110.667 20.9464C111.215 20.9464 111.607 20.7548 111.843 20.3802C112.078 20.0056 112.2 19.4394 112.2 18.6902C112.2 17.9411 112.078 17.3923 111.834 17.0177C111.59 16.6431 111.198 16.4602 110.649 16.4602C110.1 16.4602 109.708 16.6431 109.464 17.0177C109.221 17.3923 109.099 17.9411 109.099 18.6902H109.107Z" fill="white"/>
<path d="M121.251 22.5841C120.371 22.5841 119.674 22.2444 119.169 21.5562C118.664 20.868 118.411 19.9185 118.411 18.7076C118.411 17.4968 118.664 16.5211 119.178 15.8329C119.692 15.1447 120.397 14.805 121.295 14.805C122.235 14.805 122.958 15.1709 123.455 15.9026H123.525C123.42 15.3451 123.368 14.8486 123.368 14.4043V12H125.424V22.4447H123.856L123.464 21.4691H123.377C122.915 22.2095 122.201 22.5754 121.251 22.5754V22.5841ZM121.974 20.9551C122.497 20.9551 122.88 20.807 123.124 20.5021C123.368 20.1973 123.498 19.6833 123.525 18.9515V18.7338C123.525 17.9323 123.403 17.3487 123.15 17.0002C122.897 16.6518 122.497 16.4776 121.939 16.4776C121.486 16.4776 121.129 16.6692 120.876 17.0612C120.624 17.4445 120.493 18.0107 120.493 18.7512C120.493 19.4916 120.624 20.0404 120.876 20.415C121.129 20.7896 121.495 20.9725 121.974 20.9725V20.9551Z" fill="white"/>
<path d="M130.634 22.5841C129.423 22.5841 128.482 22.2531 127.802 21.5823C127.123 20.9116 126.783 19.9707 126.783 18.7512C126.783 17.5316 127.097 16.5211 127.724 15.8329C128.351 15.1447 129.222 14.805 130.329 14.805C131.435 14.805 132.219 15.1099 132.803 15.711C133.386 16.312 133.691 17.1483 133.691 18.2111V19.2042H128.848C128.874 19.7878 129.039 20.2408 129.362 20.5631C129.684 20.8941 130.137 21.0509 130.721 21.0509C131.174 21.0509 131.601 21.0074 132.001 20.9116C132.402 20.8157 132.829 20.6676 133.264 20.4586V22.044C132.907 22.2269 132.524 22.3576 132.114 22.4447C131.705 22.5318 131.209 22.5754 130.625 22.5754L130.634 22.5841ZM130.346 16.2598C129.911 16.2598 129.571 16.3991 129.327 16.6692C129.083 16.948 128.944 17.3312 128.9 17.8365H131.775C131.766 17.3312 131.635 16.9392 131.383 16.6692C131.13 16.3991 130.782 16.2598 130.346 16.2598Z" fill="white"/>
<path d="M142.42 14.805C143.308 14.805 143.996 15.1535 144.502 15.8417C145.007 16.5298 145.251 17.4794 145.251 18.6815C145.251 19.8837 144.99 20.8855 144.476 21.5649C143.962 22.2444 143.256 22.5841 142.367 22.5841C141.479 22.5841 140.791 22.2618 140.294 21.6259H140.155L139.815 22.4535H138.247V12.0087H140.294V14.4392C140.294 14.744 140.268 15.2406 140.216 15.9201H140.294C140.773 15.1796 141.479 14.805 142.42 14.805ZM141.758 16.4427C141.252 16.4427 140.887 16.5995 140.651 16.9131C140.416 17.2267 140.294 17.7407 140.285 18.455V18.6728C140.285 19.4742 140.407 20.0579 140.643 20.4063C140.878 20.7548 141.261 20.929 141.784 20.929C142.202 20.929 142.542 20.7374 142.786 20.3454C143.038 19.9621 143.16 19.3958 143.16 18.6554C143.16 17.9149 143.038 17.3661 142.786 16.9915C142.533 16.6257 142.193 16.434 141.758 16.434V16.4427Z" fill="white"/>
<path d="M146.513 13.0105C146.513 12.3398 146.887 12.0087 147.628 12.0087C148.368 12.0087 148.743 12.3398 148.743 13.0105C148.743 13.3328 148.647 13.5767 148.464 13.751C148.281 13.9252 148.002 14.0123 147.628 14.0123C146.887 14.0123 146.513 13.6726 146.513 13.0018V13.0105ZM148.647 22.4535H146.6V14.9444H148.647V22.4535Z" fill="white"/>
<path d="M153.848 22.5841C152.638 22.5841 151.697 22.2531 151.017 21.5823C150.338 20.9116 149.998 19.9707 149.998 18.7512C149.998 17.5316 150.312 16.5211 150.939 15.8329C151.566 15.1447 152.437 14.805 153.544 14.805C154.65 14.805 155.434 15.1099 156.017 15.711C156.601 16.312 156.906 17.1483 156.906 18.2111V19.2042H152.063C152.089 19.7878 152.254 20.2408 152.577 20.5631C152.899 20.8941 153.352 21.0509 153.936 21.0509C154.389 21.0509 154.815 21.0074 155.216 20.9116C155.617 20.8157 156.044 20.6676 156.479 20.4586V22.044C156.122 22.2269 155.739 22.3576 155.329 22.4447C154.92 22.5318 154.423 22.5754 153.84 22.5754L153.848 22.5841ZM153.561 16.2598C153.125 16.2598 152.786 16.3991 152.542 16.6692C152.298 16.948 152.158 17.3312 152.115 17.8365H154.99C154.981 17.3312 154.85 16.9392 154.598 16.6692C154.345 16.3991 153.996 16.2598 153.561 16.2598Z" fill="white"/>
<path d="M165.156 22.4535H163.109V18.0717C163.109 17.5316 163.013 17.1222 162.821 16.8522C162.63 16.5821 162.325 16.4427 161.898 16.4427C161.323 16.4427 160.913 16.6344 160.652 17.0177C160.391 17.401 160.269 18.0369 160.269 18.9167V22.4448H158.222V14.9357H159.79L160.068 15.8939H160.182C160.408 15.5281 160.722 15.258 161.123 15.0751C161.523 14.8922 161.976 14.7963 162.49 14.7963C163.361 14.7963 164.023 15.0315 164.476 15.5019C164.929 15.9723 165.156 16.6518 165.156 17.5491V22.4448V22.4535Z" fill="white"/>
<path d="M168.71 22.4535L165.853 14.9444H167.996L169.442 19.2216C169.598 19.7617 169.703 20.2757 169.746 20.7548H169.79C169.816 20.3279 169.912 19.814 170.095 19.2216L171.541 14.9444H173.684L170.827 22.4535H168.727H168.71Z" fill="white"/>
<path d="M177.796 22.5841C176.585 22.5841 175.644 22.2531 174.965 21.5823C174.285 20.9116 173.945 19.9707 173.945 18.7512C173.945 17.5316 174.259 16.5211 174.886 15.8329C175.513 15.1447 176.384 14.805 177.491 14.805C178.597 14.805 179.381 15.1099 179.965 15.711C180.548 16.312 180.853 17.1483 180.853 18.2111V19.2042H176.01C176.036 19.7878 176.202 20.2408 176.524 20.5631C176.846 20.8941 177.299 21.0509 177.883 21.0509C178.336 21.0509 178.763 21.0074 179.163 20.9116C179.564 20.8157 179.991 20.6676 180.426 20.4586V22.044C180.069 22.2269 179.686 22.3576 179.277 22.4447C178.867 22.5318 178.371 22.5754 177.787 22.5754L177.796 22.5841ZM177.508 16.2598C177.073 16.2598 176.733 16.3991 176.489 16.6692C176.245 16.948 176.106 17.3312 176.062 17.8365H178.937C178.928 17.3312 178.797 16.9392 178.545 16.6692C178.292 16.3991 177.944 16.2598 177.508 16.2598Z" fill="white"/>
<path d="M189.111 22.4535H187.064V18.0717C187.064 17.5316 186.968 17.1222 186.776 16.8522C186.585 16.5821 186.28 16.4427 185.853 16.4427C185.278 16.4427 184.869 16.6344 184.607 17.0177C184.346 17.401 184.224 18.0369 184.224 18.9167V22.4448H182.177V14.9357H183.745L184.024 15.8939H184.137C184.363 15.5281 184.677 15.258 185.078 15.0751C185.478 14.8922 185.931 14.7963 186.445 14.7963C187.316 14.7963 187.978 15.0315 188.431 15.5019C188.884 15.9723 189.111 16.6518 189.111 17.5491V22.4448V22.4535Z" fill="white"/>
<path d="M190.784 13.0105C190.784 12.3398 191.159 12.0087 191.899 12.0087C192.64 12.0087 193.014 12.3398 193.014 13.0105C193.014 13.3328 192.918 13.5767 192.735 13.751C192.553 13.9252 192.274 14.0123 191.899 14.0123C191.159 14.0123 190.784 13.6726 190.784 13.0018V13.0105ZM192.918 22.4535H190.871V14.9444H192.918V22.4535Z" fill="white"/>
<path d="M197.1 22.5841C196.22 22.5841 195.523 22.2444 195.018 21.5562C194.512 20.868 194.26 19.9185 194.26 18.7076C194.26 17.4968 194.512 16.5211 195.026 15.8329C195.54 15.1447 196.246 14.805 197.143 14.805C198.084 14.805 198.807 15.1709 199.304 15.9026H199.373C199.269 15.3451 199.216 14.8486 199.216 14.4043V12H201.272V22.4447H199.704L199.312 21.4691H199.225C198.763 22.2095 198.049 22.5754 197.1 22.5754V22.5841ZM197.823 20.9551C198.345 20.9551 198.729 20.807 198.973 20.5021C199.216 20.1973 199.347 19.6833 199.373 18.9515V18.7338C199.373 17.9323 199.251 17.3487 198.999 17.0002C198.746 16.6518 198.345 16.4776 197.788 16.4776C197.335 16.4776 196.978 16.6692 196.725 17.0612C196.472 17.4445 196.342 18.0107 196.342 18.7512C196.342 19.4916 196.472 20.0404 196.725 20.415C196.978 20.7896 197.344 20.9725 197.823 20.9725V20.9551Z" fill="white"/>
<path d="M207.849 22.4535L207.457 21.4343H207.404C207.056 21.8698 206.707 22.166 206.342 22.3402C205.976 22.5057 205.505 22.5928 204.913 22.5928C204.19 22.5928 203.624 22.3838 203.214 21.9743C202.796 21.5649 202.596 20.9726 202.596 20.2147C202.596 19.4568 202.874 18.8296 203.432 18.455C203.989 18.0804 204.826 17.8714 205.95 17.8278L207.256 17.7843V17.4532C207.256 16.6954 206.864 16.3121 206.089 16.3121C205.488 16.3121 204.782 16.495 203.972 16.8522L203.293 15.4671C204.155 15.0141 205.113 14.7876 206.167 14.7876C207.221 14.7876 207.944 15.0054 208.484 15.4496C209.025 15.8852 209.286 16.556 209.286 17.4532V22.4535H207.857H207.849ZM207.247 18.9777L206.455 19.0038C205.862 19.0212 205.418 19.1258 205.122 19.3261C204.834 19.5265 204.686 19.8227 204.686 20.2234C204.686 20.7983 205.017 21.0858 205.679 21.0858C206.15 21.0858 206.533 20.9464 206.821 20.6764C207.108 20.4063 207.247 20.0405 207.247 19.5875V18.969V18.9777Z" fill="white"/>
<path d="M216.647 22.5841C215.768 22.5841 215.071 22.2444 214.565 21.5562C214.06 20.868 213.808 19.9185 213.808 18.7076C213.808 17.4968 214.06 16.5211 214.574 15.8329C215.088 15.1447 215.794 14.805 216.691 14.805C217.632 14.805 218.355 15.1709 218.851 15.9026H218.921C218.817 15.3451 218.764 14.8486 218.764 14.4043V12H220.82V22.4447H219.252L218.86 21.4691H218.773C218.311 22.2095 217.597 22.5754 216.647 22.5754V22.5841ZM217.371 20.9551C217.893 20.9551 218.276 20.807 218.52 20.5021C218.764 20.1973 218.895 19.6833 218.921 18.9515V18.7338C218.921 17.9323 218.799 17.3487 218.547 17.0002C218.294 16.6518 217.893 16.4776 217.336 16.4776C216.883 16.4776 216.526 16.6692 216.273 17.0612C216.02 17.4445 215.89 18.0107 215.89 18.7512C215.89 19.4916 216.02 20.0404 216.273 20.415C216.526 20.7896 216.891 20.9725 217.371 20.9725V20.9551Z" fill="white"/>
<path d="M226.029 22.5841C224.818 22.5841 223.877 22.2531 223.198 21.5823C222.518 20.9116 222.179 19.9707 222.179 18.7512C222.179 17.5316 222.492 16.5211 223.12 15.8329C223.747 15.1447 224.618 14.805 225.724 14.805C226.831 14.805 227.615 15.1099 228.198 15.711C228.782 16.312 229.087 17.1483 229.087 18.2111V19.2042H224.243C224.269 19.7878 224.435 20.2408 224.757 20.5631C225.08 20.8941 225.533 21.0509 226.116 21.0509C226.569 21.0509 226.996 21.0074 227.397 20.9116C227.797 20.8157 228.224 20.6676 228.66 20.4586V22.044C228.303 22.2269 227.919 22.3576 227.51 22.4447C227.101 22.5318 226.604 22.5754 226.02 22.5754L226.029 22.5841ZM225.733 16.2598C225.297 16.2598 224.958 16.3991 224.714 16.6692C224.47 16.948 224.33 17.3312 224.287 17.8365H227.162C227.153 17.3312 227.022 16.9392 226.77 16.6692C226.517 16.3991 226.168 16.2598 225.733 16.2598Z" fill="white"/>
<path d="M81.7109 49.9547V40.1372H84.3591V47.8118H88.1398V49.9547H81.7109Z" fill="white"/>
<path d="M100.954 49.9547H95.5701V39.5623C95.5701 38.2991 95.5962 37.1492 95.6485 36.0952C95.3175 36.4959 94.9081 36.9228 94.4115 37.3583L92.1815 39.1964L89.4287 35.8164L96.1712 30.3284H100.954V49.9547Z" fill="white"/>
<path d="M118.882 40.1633C118.882 43.6391 118.298 46.1828 117.14 47.7944C115.973 49.4059 114.195 50.2161 111.8 50.2161C109.404 50.2161 107.688 49.3711 106.495 47.6811C105.301 45.9912 104.709 43.4823 104.709 40.1546C104.709 36.827 105.293 34.1003 106.451 32.4713C107.619 30.8424 109.396 30.0235 111.791 30.0235C114.187 30.0235 115.894 30.8685 117.088 32.5672C118.281 34.2659 118.882 36.7921 118.882 40.1459V40.1633ZM109.979 40.1633C109.979 42.3847 110.119 43.9092 110.397 44.7454C110.676 45.5817 111.138 45.9911 111.791 45.9911C112.445 45.9911 112.924 45.5643 113.194 44.7019C113.464 43.8395 113.603 42.3324 113.603 40.1633C113.603 37.9943 113.464 36.4611 113.185 35.59C112.906 34.7188 112.445 34.2833 111.791 34.2833C111.138 34.2833 110.676 34.7014 110.397 35.5464C110.119 36.3914 109.979 37.9246 109.979 40.1633Z" fill="white"/>
<path d="M125.842 45.9389L126.033 46.2438C125.162 49.6586 124.378 52.1674 123.673 53.779H119.927C120.188 52.542 120.449 51.1569 120.711 49.6237C120.972 48.0906 121.155 46.8623 121.251 45.9389H125.842Z" fill="white"/>
<path d="M142.115 40.1633C142.115 43.6391 141.531 46.1828 140.372 47.7944C139.205 49.4059 137.428 50.2161 135.032 50.2161C132.637 50.2161 130.921 49.3711 129.727 47.6811C128.534 45.9912 127.941 43.4823 127.941 40.1546C127.941 36.827 128.525 34.1003 129.684 32.4713C130.851 30.8424 132.628 30.0235 135.024 30.0235C137.419 30.0235 139.127 30.8685 140.32 32.5672C141.513 34.2659 142.115 36.7921 142.115 40.1459V40.1633ZM133.212 40.1633C133.212 42.3847 133.351 43.9092 133.63 44.7454C133.909 45.5817 134.37 45.9911 135.024 45.9911C135.677 45.9911 136.156 45.5643 136.426 44.7019C136.696 43.8395 136.836 42.3324 136.836 40.1633C136.836 37.9943 136.696 36.4611 136.417 35.59C136.139 34.7188 135.677 34.2833 135.024 34.2833C134.37 34.2833 133.909 34.7014 133.63 35.5464C133.351 36.3914 133.212 37.9246 133.212 40.1633Z" fill="white"/>
<path d="M157.542 40.1633C157.542 43.6391 156.959 46.1828 155.8 47.7944C154.633 49.4059 152.856 50.2161 150.46 50.2161C148.064 50.2161 146.348 49.3711 145.155 47.6811C143.962 45.9912 143.369 43.4823 143.369 40.1546C143.369 36.827 143.953 34.1003 145.111 32.4713C146.279 30.8424 148.056 30.0235 150.451 30.0235C152.847 30.0235 154.554 30.8685 155.748 32.5672C156.941 34.2659 157.542 36.7921 157.542 40.1459V40.1633ZM148.639 40.1633C148.639 42.3847 148.779 43.9092 149.058 44.7454C149.336 45.5817 149.798 45.9911 150.451 45.9911C151.105 45.9911 151.584 45.5643 151.854 44.7019C152.124 43.8395 152.263 42.3324 152.263 40.1633C152.263 37.9943 152.124 36.4611 151.845 35.59C151.566 34.7188 151.105 34.2833 150.451 34.2833C149.798 34.2833 149.336 34.7014 149.058 35.5464C148.779 36.3914 148.639 37.9246 148.639 40.1633Z" fill="white"/>
<path d="M172.97 40.1633C172.97 43.6391 172.386 46.1828 171.228 47.7944C170.06 49.4059 168.283 50.2161 165.888 50.2161C163.492 50.2161 161.776 49.3711 160.583 47.6811C159.389 45.9912 158.797 43.4823 158.797 40.1546C158.797 36.827 159.381 34.1003 160.539 32.4713C161.706 30.8424 163.484 30.0235 165.879 30.0235C168.275 30.0235 169.982 30.8685 171.176 32.5672C172.369 34.2659 172.97 36.7921 172.97 40.1459V40.1633ZM164.067 40.1633C164.067 42.3847 164.207 43.9092 164.485 44.7454C164.764 45.5817 165.226 45.9911 165.879 45.9911C166.532 45.9911 167.012 45.5643 167.282 44.7019C167.552 43.8395 167.691 42.3324 167.691 40.1633C167.691 37.9943 167.552 36.4611 167.273 35.59C166.994 34.7188 166.532 34.2833 165.879 34.2833C165.226 34.2833 164.764 34.7014 164.485 35.5464C164.207 36.3914 164.067 37.9246 164.067 40.1633Z" fill="white"/>
<circle cx="32.5" cy="32.5" r="32.065" fill="url(#paint0_linear_2136_2469)" stroke="white" stroke-width="0.87"/>
<path d="M45.389 20.9551H19.628C18.0289 20.9551 16.7373 22.2466 16.7373 23.8457V41.1457C16.7373 42.7448 18.0289 44.0363 19.628 44.0363H45.389C46.988 44.0363 48.2796 42.7448 48.2796 41.1457V23.8457C48.2796 22.2466 46.988 20.9551 45.389 20.9551ZM47.2956 23.8545V28.7133H29.7584C30.4086 28.2124 30.8039 27.4744 30.8039 26.6397C30.8039 25.1373 29.5827 23.9248 28.089 23.9248C27.2543 23.9248 26.5163 24.3202 26.0155 24.9704V21.9479H45.3802C46.4345 21.9479 47.2868 22.8002 47.2868 23.8545H47.2956ZM20.9019 26.6397C20.9019 25.682 21.6751 24.9088 22.6328 24.9088C23.6608 24.9088 24.2583 25.8402 24.3725 26.7012L24.6273 28.6254L22.7031 28.3706C21.8421 28.2564 20.9107 27.6677 20.9107 26.6309L20.9019 26.6397ZM26.0946 28.6254L26.3494 26.7012C26.4636 25.8402 27.0523 24.9088 28.089 24.9088C29.0467 24.9088 29.8199 25.682 29.8199 26.6397C29.8199 27.6677 28.8886 28.2652 28.0275 28.3794L26.1033 28.6342L26.0946 28.6254ZM19.6192 21.9479H25.0314V25.4975C24.5658 24.531 23.6784 23.916 22.6328 23.916C21.1304 23.916 19.9179 25.1373 19.9179 26.6309C19.9179 27.4656 20.3133 28.2037 20.9634 28.7045H17.7126V23.8457C17.7126 22.7914 18.5648 21.9391 19.6192 21.9391V21.9479ZM17.7126 41.1545V29.6973H24.3725L22.3692 31.806C22.1759 31.9993 22.1847 32.3156 22.378 32.5001C22.5713 32.6934 22.8876 32.6846 23.0721 32.4913L25.0139 30.4441V43.0698H19.6016C18.5473 43.0698 17.695 42.2176 17.695 41.1632L17.7126 41.1545ZM45.389 43.0611H26.0243V30.4529L29.486 34.1607C29.6705 34.3628 29.978 34.3715 30.1801 34.1958C30.3822 34.0201 30.391 33.7038 30.2153 33.5017L26.6745 29.7061H47.3044V41.1632C47.3044 42.2176 46.4521 43.0698 45.3978 43.0698L45.389 43.0611ZM44.238 38.3077H34.8456C34.5732 38.3077 34.3536 38.5274 34.3536 38.7998V41.093C34.3536 41.3653 34.5732 41.585 34.8456 41.585H44.238C44.5104 41.585 44.73 41.3653 44.73 41.093V38.7998C44.73 38.5274 44.5104 38.3077 44.238 38.3077ZM43.746 40.6009H35.3376V39.2918H43.746V40.6009Z" fill="white"/>
<defs>
<linearGradient id="paint0_linear_2136_2469" x1="10" y1="11" x2="37" y2="37.5" gradientUnits="userSpaceOnUse">
<stop stop-color="#00583C"/>
<stop offset="1" stop-color="#008664"/>
</linearGradient>
</defs>
</svg>
