<svg width="98" height="90" viewBox="0 0 98 90" fill="none" xmlns="http://www.w3.org/2000/svg">
<mask id="mask0_4127_1105" style="mask-type:alpha" maskUnits="userSpaceOnUse" x="0" y="0" width="98" height="90">
<rect width="98" height="90" fill="#D9D9D9"/>
</mask>
<g mask="url(#mask0_4127_1105)">
<path fill-rule="evenodd" clip-rule="evenodd" d="M6.04636 18.8957C5.97658 19.4906 6.15104 20.0854 6.5174 20.5578C6.88376 21.0302 7.42458 21.3276 8.01774 21.4151L10.2508 21.6776C10.844 21.7475 11.4371 21.5726 11.9082 21.2052C12.3792 20.8377 12.6758 20.2954 12.763 19.7005L13.0247 17.4435C13.0945 16.8486 12.92 16.2538 12.5537 15.7814C12.1873 15.309 11.6465 15.0116 11.0533 14.9241L8.82025 14.6616C8.22709 14.5917 7.63393 14.7666 7.1629 15.134C6.69186 15.5014 6.39528 16.0438 6.30805 16.6387L6.04636 18.8957Z" fill="#FFAA00"/>
<path d="M5.14476 18.6663C5.04009 19.5586 5.28433 20.4684 5.8426 21.1682C6.40087 21.8681 7.20338 22.3404 8.11056 22.4454L10.3611 22.7079C11.2508 22.8128 12.158 22.5679 12.8558 22.008C13.5537 21.4481 14.0247 20.6433 14.1294 19.7335L14.3911 17.4765C14.4957 16.5842 14.2515 15.6744 13.6932 14.9746C13.135 14.2748 12.3325 13.8024 11.4253 13.6974L9.19221 13.4524C8.30247 13.3475 7.39528 13.6099 6.69745 14.1523C5.99961 14.7122 5.52857 15.517 5.4239 16.4093L5.14476 18.6663ZM8.91307 15.6919L11.1636 15.9544C11.4602 15.9894 11.7219 16.1468 11.9138 16.3743C12.1057 16.6017 12.1754 16.9167 12.1406 17.2141L11.8789 19.4711C11.844 19.7685 11.687 20.031 11.4602 20.2234C11.2334 20.4159 10.9193 20.4859 10.6228 20.4509L8.37225 20.1884C8.07567 20.1534 7.81398 19.996 7.62208 19.7685C7.43017 19.5411 7.36039 19.2261 7.39528 18.9287L7.65697 16.6717C7.69186 16.3743 7.84887 16.1118 8.07567 15.9194C8.31991 15.7444 8.61649 15.6569 8.91307 15.6919Z" fill="#005A3A"/>
<path fill-rule="evenodd" clip-rule="evenodd" d="M87.2554 67.6146C86.818 67.2083 86.5633 66.6312 86.5421 66.0364C86.5208 65.4417 86.7425 64.8521 87.1477 64.4135L88.6737 62.7523C89.0789 62.3136 89.6543 62.0582 90.2474 62.0369C90.8404 62.0156 91.4283 62.238 91.8657 62.6443L93.5221 64.1747C93.9595 64.5811 94.2141 65.1582 94.2354 65.7529C94.2566 66.3476 94.0349 66.9372 93.6297 67.3759L92.1037 69.0371C91.6986 69.4757 91.1393 69.7377 90.5301 69.7524C89.937 69.7737 89.3492 69.5514 88.9118 69.145L87.2554 67.6146Z" fill="#3A9EE9"/>
<path d="M86.4804 68.4502C85.8243 67.8407 85.4391 66.9831 85.4105 66.0829C85.3819 65.1827 85.6998 64.3112 86.3076 63.6532L87.8497 61.9987C88.4575 61.3407 89.3126 60.9543 90.2102 60.9257C91.1078 60.897 91.9768 61.2158 92.6329 61.8253L94.2798 63.3329C94.9359 63.9424 95.3212 64.8 95.3497 65.7002C95.3783 66.6004 95.0604 67.4719 94.4526 68.1299L92.9105 69.7844C92.3027 70.4424 91.4476 70.8288 90.55 70.8574C89.6524 70.8861 88.7834 70.5673 88.1273 69.9578L86.4804 68.4502ZM91.2702 68.2606L92.8124 66.6061C93.015 66.3867 93.1177 66.0886 93.1038 65.7994C93.0965 65.4939 92.9659 65.2135 92.7472 65.0103L91.0974 63.4637C90.8787 63.2605 90.5814 63.1574 90.293 63.1714C89.9884 63.1787 89.7087 63.3097 89.5062 63.5291L87.964 65.1836C87.7614 65.403 87.6586 65.7011 87.6726 65.9903C87.6799 66.2958 87.8105 66.5762 88.0292 66.7794L89.679 68.326C89.8977 68.5292 90.1949 68.6323 90.4834 68.6183C90.788 68.611 91.0676 68.48 91.2702 68.2606Z" fill="#005A3A"/>
<path d="M13.2015 24.4135C13.3733 23.9925 13.6999 23.6539 14.1256 23.4883C14.5352 23.3161 15.0115 23.3037 15.4313 23.4759C15.8511 23.6482 16.1887 23.9758 16.3538 24.4027C16.5256 24.8134 16.538 25.2912 16.3662 25.7122C16.1944 26.1332 15.8678 26.4717 15.4421 26.6373C15.0325 26.8095 14.5562 26.822 14.1364 26.6497C13.7166 26.4775 13.379 26.1499 13.2139 25.723C13.026 25.3056 13.0297 24.8345 13.2015 24.4135Z" fill="#005A3A"/>
</g>
<g clip-path="url(#clip0_4127_1105)">
<path d="M72.5959 26.8222H22.5709C20.9149 26.8222 19.5625 28.2574 19.5625 30.0376V71.7412H75.6043V30.0376C75.6043 28.2574 74.2519 26.8222 72.5959 26.8222Z" fill="white"/>
<path d="M77.0393 73.1764H18.1133V30.0376C18.1133 27.4708 20.1143 25.3732 22.5569 25.3732H72.5819C75.0383 25.3732 77.0255 27.457 77.0255 30.0376V73.1764H77.0393ZM21.0113 70.2922H74.1689V30.0376C74.1689 29.0578 73.4651 28.2574 72.6095 28.2574H22.5707C21.7013 28.2574 21.0113 29.0578 21.0113 30.0376V70.2922Z" fill="#00583C"/>
<path d="M75.3417 77.482H20.1417C17.5197 77.482 15.3945 73.9768 15.3945 71.3548V69.1744H80.0751V71.3548C80.0751 73.9768 77.9499 77.482 75.3417 77.482Z" fill="white"/>
<path d="M75.341 78.8758H20.141C18.4712 78.8758 16.8704 77.9236 15.656 76.2124C14.621 74.7634 14 72.9556 14 71.3548V67.7806H81.4682V71.3548C81.4682 72.9418 80.8472 74.7634 79.826 76.2124C78.5978 77.9374 77.0108 78.8758 75.341 78.8758ZM16.7876 70.5682V71.3548C16.7876 73.3282 18.4712 76.0882 20.141 76.0882H75.341C76.997 76.0882 78.6944 73.3282 78.6944 71.3548V70.5682H16.7876Z" fill="#00583C"/>
<path d="M74.1546 57.3064V67.7806L63.3906 67.753C67.779 65.2276 71.5878 61.6534 74.1546 57.3064Z" fill="#F2F2F2"/>
<path d="M34.3425 67.7806H21.0117V51.2206C23.2335 58.2586 28.0497 64.1512 34.3425 67.7806Z" fill="#F2F2F2"/>
<path d="M78.7237 70.5406V71.3686C78.7237 73.2316 77.2057 76.0606 75.3427 76.0606H20.1427C18.2797 76.0606 16.7617 73.2316 16.7617 71.3686V70.5406H40.5943C43.2439 71.3272 46.0453 71.7412 48.9433 71.7412C51.8413 71.7412 54.6427 71.3272 57.2923 70.5406H78.7237Z" fill="#F2F2F2"/>
<path d="M70.5665 32.4664H24.9023V64.993H70.5665V32.4664Z" fill="#E0E0E0"/>
<path d="M52.5036 73.3282H42.954C41.505 73.3282 40.332 72.1552 40.332 70.7062V70.5406H55.1256V70.7062C55.1256 72.1552 53.9526 73.3282 52.5036 73.3282Z" fill="#00583C"/>
<path d="M81.9387 56.7544C81.9387 58.4242 80.5863 59.7766 78.9165 59.7766H56.8503C55.1805 59.7766 53.8281 58.4242 53.8281 56.7544V14.0848C53.8281 12.415 55.1805 11.0626 56.8503 11.0626H78.9165C80.5863 11.0626 81.9387 12.415 81.9387 14.0848V56.7544Z" fill="white"/>
<path d="M80.2105 52.2142V56.7544C80.2105 57.8584 79.3411 58.7554 78.2923 58.7554H57.1231C56.0743 58.7554 55.2188 57.8584 55.2188 56.7682V42.8854C59.4139 49.054 66.3001 53.0836 74.0833 53.0836C76.2085 53.0836 78.2647 52.78 80.2105 52.2142Z" fill="#F2F2F2"/>
<path d="M79.052 61.1704H56.3648C54.1844 61.1704 52.418 59.404 52.418 57.2236V13.9468C52.4318 11.7664 54.1982 10 56.3648 10H79.052C81.2324 10 82.9988 11.7664 82.9988 13.9468V57.2374C82.9988 59.404 81.2324 61.1704 79.052 61.1704ZM56.3648 12.7876C55.73 12.7876 55.2056 13.312 55.2056 13.9468V57.2374C55.2056 57.8722 55.73 58.3966 56.3648 58.3966H79.052C79.6868 58.3966 80.2112 57.8722 80.2112 57.2374V13.9468C80.2112 13.312 79.6868 12.7876 79.052 12.7876H56.3648Z" fill="#00583C"/>
<path d="M71.3095 57.1684H64.4509C63.8851 57.1684 63.4297 56.713 63.4297 56.1472C63.4297 55.5814 63.8851 55.126 64.4509 55.126H71.3095C71.8753 55.126 72.3307 55.5814 72.3307 56.1472C72.3307 56.713 71.8753 57.1684 71.3095 57.1684Z" fill="#A7A5A6"/>
<path d="M75.4661 52.3936H60.1205C58.9889 52.3936 58.0781 51.4828 58.0781 50.3512V20.3638C58.0781 19.2322 58.9889 18.3214 60.1205 18.3214H75.4661C76.5977 18.3214 77.5085 19.2322 77.5085 20.3638V50.365C77.5085 51.4828 76.5977 52.3936 75.4661 52.3936Z" fill="#33BA75"/>
<path d="M75.8115 53.4976H59.7897C58.2441 53.4976 56.9883 52.2418 56.9883 50.6962V20.0326C56.9883 18.487 58.2441 17.2312 59.7897 17.2312H75.8115C77.3571 17.2312 78.6129 18.487 78.6129 20.0326V50.71C78.6129 52.2418 77.3571 53.4976 75.8115 53.4976ZM59.7897 19.4116C59.4585 19.4116 59.1825 19.6876 59.1825 20.0188V50.6962C59.1825 51.0274 59.4585 51.3034 59.7897 51.3034H75.8115C76.1427 51.3034 76.4187 51.0274 76.4187 50.6962V20.0326C76.4187 19.7014 76.1427 19.4254 75.8115 19.4254H59.7897V19.4116Z" fill="#00583C"/>
<path fill-rule="evenodd" clip-rule="evenodd" d="M65.8207 32.7148V32.701L63.6541 30.5344L61.7773 32.4112L64.2337 34.8676L61.8049 37.3102L63.6403 39.1594L65.7793 37.0204L67.9459 34.84L65.8207 32.7148Z" fill="white"/>
<path fill-rule="evenodd" clip-rule="evenodd" d="M71.6997 32.7148V32.701L69.5331 30.5344L67.6562 32.4112L70.1127 34.8676L67.6839 37.3102L69.5193 39.1594L71.6583 37.0204L73.8249 34.84L71.6997 32.7148Z" fill="white"/>
</g>
<defs>
<clipPath id="clip0_4127_1105">
<rect width="69" height="69" fill="white" transform="translate(14 10)"/>
</clipPath>
</defs>
</svg>
