<svg width="98" height="90" viewBox="0 0 98 90" fill="none" xmlns="http://www.w3.org/2000/svg">
<mask id="mask0_4127_1150" style="mask-type:alpha" maskUnits="userSpaceOnUse" x="0" y="0" width="98" height="90">
<rect width="98" height="90" fill="#D9D9D9"/>
</mask>
<g mask="url(#mask0_4127_1150)">
<path fill-rule="evenodd" clip-rule="evenodd" d="M89.2289 7.07663C89.1641 7.63703 89.3261 8.19743 89.6664 8.64246C90.0066 9.08748 90.5089 9.36769 91.0598 9.4501L93.1338 9.69733C93.6847 9.76326 94.2357 9.59844 94.6731 9.25231C95.1106 8.90618 95.3861 8.39522 95.4671 7.83482L95.7101 5.70859C95.775 5.14819 95.6129 4.58778 95.2727 4.14276C94.9324 3.69773 94.4301 3.41753 93.8792 3.33512L91.8052 3.08788C91.2543 3.02195 90.7034 3.18678 90.2659 3.53291C89.8284 3.87904 89.5529 4.38999 89.4719 4.9504L89.2289 7.07663Z" fill="#33BA75"/>
<path d="M88.3892 6.86045C88.292 7.70105 88.5188 8.55814 89.0373 9.21743C89.5558 9.87673 90.3011 10.3218 91.1437 10.4206L93.2339 10.6679C94.0603 10.7668 94.9028 10.536 95.551 10.0086C96.1991 9.48115 96.6366 8.72296 96.7338 7.86587L96.9768 5.73964C97.0741 4.89904 96.8472 4.04195 96.3287 3.38266C95.8102 2.72336 95.0649 2.27833 94.2223 2.17944L92.1483 1.94868C91.3219 1.84979 90.4794 2.09703 89.8313 2.60798C89.1831 3.13542 88.7456 3.89361 88.6484 4.73421L88.3892 6.86045ZM91.8891 4.05843L93.9793 4.30567C94.2547 4.33864 94.4978 4.48698 94.676 4.70125C94.8542 4.91552 94.919 5.2122 94.8866 5.49241L94.6436 7.61864C94.6112 7.89884 94.4654 8.14608 94.2547 8.32738C94.0441 8.50869 93.7524 8.57462 93.477 8.54165L91.3868 8.29442C91.1113 8.26145 90.8683 8.11311 90.69 7.89884C90.5118 7.68457 90.447 7.38788 90.4794 7.10768L90.7224 4.98145C90.7548 4.70125 90.9007 4.45401 91.1113 4.27271C91.3381 4.10788 91.6136 4.02547 91.8891 4.05843Z" fill="#005A3A"/>
<path fill-rule="evenodd" clip-rule="evenodd" d="M2.90282 82.6793C3.09725 83.2067 3.50233 83.6353 4.00463 83.866C4.50693 84.0968 5.09024 84.1132 5.60874 83.9155L7.56933 83.1737C8.08783 82.976 8.50911 82.5639 8.73596 82.0529C8.9628 81.542 8.979 80.9486 8.78457 80.4212L8.05542 78.4268C7.86099 77.8994 7.45591 77.4708 6.95361 77.2401C6.45131 77.0093 5.868 76.9929 5.34949 77.1906L3.38891 77.9324C2.87041 78.1301 2.44913 78.5257 2.22228 79.0532C1.99544 79.5641 1.97924 80.1575 2.17367 80.6849L2.90282 82.6793Z" fill="#00BD6E"/>
<path d="M1.91131 83.0585C2.20297 83.8496 2.80248 84.4924 3.56403 84.8386C4.32558 85.1847 5.18435 85.2177 5.9621 84.921L7.92268 84.1628C8.70044 83.8661 9.33236 83.2563 9.67263 82.4816C10.0129 81.7069 10.0453 80.8333 9.75364 80.0422L9.0407 78.0643C8.74905 77.2731 8.14953 76.6303 7.38798 76.2842C6.62643 75.9381 5.76766 75.9051 4.98991 76.2018L3.02933 76.96C2.25158 77.2567 1.61965 77.8665 1.27939 78.6412C0.93912 79.4159 0.906713 80.2894 1.19837 81.0806L1.91131 83.0585ZM3.75847 78.9379L5.71905 78.1797C5.9783 78.0808 6.26996 78.0973 6.51301 78.2126C6.77226 78.328 6.9667 78.5423 7.06392 78.806L7.80926 80.8004C7.90648 81.0641 7.89028 81.3608 7.77686 81.608C7.66343 81.8717 7.45279 82.0695 7.19354 82.1684L5.23296 82.9266C4.97371 83.0255 4.68205 83.009 4.439 82.8937C4.17975 82.7783 3.98532 82.564 3.8881 82.3003L3.14275 80.3059C3.04553 80.0422 3.06173 79.7455 3.17516 79.4983C3.28858 79.2346 3.49922 79.0368 3.75847 78.9379Z" fill="#005A3A"/>
<path d="M15.2988 79.7286C15.7201 79.7286 16.1252 79.5638 16.4169 79.2506C16.7085 78.9539 16.8868 78.5419 16.8868 78.1133C16.8868 77.6848 16.7247 77.2727 16.4169 76.976C16.1252 76.6794 15.7201 76.498 15.2988 76.498C14.8776 76.498 14.4725 76.6629 14.1808 76.976C13.8892 77.2727 13.7109 77.6848 13.7109 78.1133C13.7109 78.5419 13.873 78.9539 14.1808 79.2506C14.4725 79.5638 14.8776 79.7286 15.2988 79.7286Z" fill="#005A3A"/>
<path d="M78.061 63.3554L14.6568 64.3655C12.4459 64.4007 10.6326 62.6186 10.5969 60.3755L9.84192 12.9823C9.80618 10.7392 11.5618 8.90028 13.7727 8.86507L77.1769 7.85503C79.3878 7.81982 81.2011 9.60188 81.2368 11.845L81.9918 59.2382C82.0273 61.4653 80.2719 63.3202 78.061 63.3554Z" fill="white"/>
<path d="M79.9655 64.9278L12.8028 65.9977C10.7498 66.0304 9.06487 64.3745 9.03169 62.2916L8.21623 11.1011C8.18305 9.01825 9.81439 7.30952 11.8673 7.27682L79.03 6.20692C81.083 6.17421 82.7679 7.83012 82.8011 9.91298L83.6166 61.1035C83.6497 63.1863 82.0184 64.8951 79.9655 64.9278ZM11.9189 10.5133C11.6346 10.5178 11.4016 10.7619 11.4062 11.0503L12.2216 62.2408C12.2262 62.5292 12.4669 62.7657 12.7512 62.7612L79.9139 61.6913C80.1982 61.6868 80.4312 61.4427 80.4266 61.1543L79.6111 9.9638C79.6066 9.6754 79.3658 9.43884 79.0816 9.44337L11.9189 10.5133Z" fill="#00553A"/>
<path d="M80.1219 42.0564L80.4262 61.1547C80.4308 61.4431 80.1977 61.6872 79.9135 61.6917L12.7508 62.7616C12.4665 62.7661 12.2258 62.5296 12.2212 62.2412L11.7266 31.1904C18.4055 45.8922 33.1775 55.9937 50.1538 55.7233C62.045 55.5338 72.687 50.3001 80.1219 42.0564Z" fill="#F3F3F3"/>
<path d="M79.7469 23.1836L11.6367 24.2686L11.7822 33.4011L79.8924 32.3161L79.7469 23.1836Z" fill="#E1E1E1"/>
<path d="M29.6816 46.7224L20.6803 46.8658C19.8907 46.8784 19.2328 46.2318 19.22 45.4307L19.2029 44.3572C19.1902 43.5561 19.8272 42.8889 20.6167 42.8763L29.6181 42.7329C30.4077 42.7204 31.0656 43.367 31.0784 44.1681L31.0955 45.2415C31.1082 46.0426 30.4712 46.7099 29.6816 46.7224Z" fill="#A8A6A7"/>
<path d="M43.8652 46.4965L34.8639 46.6399C34.0743 46.6525 33.4164 46.0059 33.4036 45.2048L33.3865 44.1313C33.3737 43.3302 34.0107 42.663 34.8003 42.6504L43.8017 42.5071C44.5913 42.4945 45.2492 43.1411 45.262 43.9422L45.2791 45.0157C45.2918 45.8168 44.6548 46.484 43.8652 46.4965Z" fill="#A8A6A7"/>
<path d="M58.4082 46.2641L49.4069 46.4075C48.6173 46.4201 47.9593 45.7735 47.9466 44.9724L47.9295 43.8989C47.9167 43.0978 48.5537 42.4306 49.3433 42.418L58.3447 42.2746C59.1343 42.2621 59.7922 42.9086 59.8049 43.7098L59.822 44.7832C59.8506 45.5841 59.2136 46.2513 58.4082 46.2641Z" fill="#A8A6A7"/>
<path d="M72.9512 46.0322L63.9498 46.1756C63.1602 46.1882 62.5023 45.5416 62.4895 44.7405L62.4724 43.667C62.4597 42.8659 63.0967 42.1987 63.8863 42.1861L72.8876 42.0427C73.6772 42.0301 74.3351 42.6767 74.3479 43.4778L74.365 44.5513C74.3778 45.3524 73.7408 46.0196 72.9512 46.0322Z" fill="#A8A6A7"/>
<path d="M69.339 76.0589C78.5839 75.9116 85.9573 68.1885 85.8078 58.8088C85.6584 49.4292 78.0428 41.9448 68.7979 42.0921C59.5531 42.2394 52.1797 49.9625 52.3291 59.3421C52.4786 68.7218 60.0941 76.2061 69.339 76.0589Z" fill="#FFAA00"/>
<path d="M69.3645 77.6602C64.469 77.7382 59.8427 75.8728 56.3126 72.4193C52.7983 68.9655 50.8129 64.3175 50.7338 59.3507C50.6547 54.3839 52.4912 49.691 55.8935 46.1111C59.296 42.5471 63.8764 40.535 68.7718 40.457C73.6673 40.379 78.2936 42.2445 81.8237 45.698C85.338 49.1517 87.3234 53.7997 87.4025 58.7666C87.4816 63.7334 85.6451 68.4263 82.2428 72.0062C78.8405 75.5861 74.26 77.5822 69.3645 77.6602ZM68.8234 43.6935C60.4695 43.8266 53.7888 50.8242 53.9238 59.2999C54.0588 67.7755 60.959 74.5569 69.3129 74.4238C77.6668 74.2907 84.3476 67.293 84.2125 58.8174C84.0775 50.3417 77.1773 43.5604 68.8234 43.6935Z" fill="#00553A"/>
<path d="M66.6466 67.5442C66.2202 67.551 65.8226 67.3811 65.518 67.0974L60.0299 61.7039C59.404 61.0889 59.3877 60.0635 59.9936 59.4288C60.5995 58.7941 61.6102 58.778 62.2361 59.3931L66.4404 63.525L75.6739 51.182C76.1996 50.4685 77.2085 50.3402 77.8962 50.8741C78.5997 51.4078 78.7266 52.4315 78.2007 53.129L67.8847 66.9315C67.6063 67.3046 67.1993 67.5354 66.7416 67.5587C66.7097 67.5432 66.6782 67.5437 66.6466 67.5442Z" fill="white"/>
<path d="M86.1393 79.4456L81.5033 78.9585C80.823 78.8892 80.1659 79.2843 79.9076 79.9295L78.1605 84.2843L73.4525 76.2982C76.5548 75.7039 79.5037 74.4069 82.0642 72.5231L86.1393 79.4456Z" fill="#FFAA00"/>
<path d="M78.1874 85.9025C77.6189 85.9116 77.0929 85.6155 76.8007 85.1233L72.0927 77.1372C71.8329 76.6926 71.7924 76.1323 72.0058 75.6481C72.2192 75.1639 72.6561 74.8204 73.1601 74.7323C76.0261 74.1738 78.7713 72.9762 81.1285 71.2238C81.4876 70.9617 81.9441 70.8582 82.3878 70.9473C82.8315 71.0364 83.199 71.303 83.4265 71.7L87.5171 78.6062C87.8255 79.1302 87.8202 79.7873 87.4968 80.3053C87.1733 80.8233 86.5933 81.105 85.9922 81.0505L81.3879 80.5629L79.6405 84.9018C79.4125 85.4663 78.8975 85.8591 78.2979 85.9008C78.2506 85.9015 78.219 85.902 78.1874 85.9025ZM75.9189 77.3647L77.8834 80.6989L78.4302 79.3279C78.9622 78.0213 80.2762 77.2151 81.6529 77.3695L83.1244 77.5223L81.5334 74.8232C79.7973 75.9086 77.8998 76.7722 75.9189 77.3647Z" fill="#00553A"/>
<path d="M66.6937 76.2296L62.0891 84.6526L60.2041 80.3555C59.9255 79.7189 59.2561 79.345 58.5783 79.4359L53.9602 80.0704L58.2734 72.1969C60.7528 74.1447 63.6339 75.5251 66.6937 76.2296Z" fill="#FFAA00"/>
<path d="M62.1151 86.2544C62.0835 86.2549 62.052 86.2554 62.0204 86.2559C61.4198 86.2334 60.8767 85.8575 60.6309 85.3005L58.7464 81.0355L54.16 81.6695C53.5609 81.7431 52.9722 81.48 52.6324 80.9726C52.2927 80.4652 52.2664 79.8085 52.558 79.275L56.8712 71.4016C57.1017 70.9973 57.4919 70.7026 57.9484 70.5992C58.405 70.5118 58.8806 70.6164 59.2486 70.915C61.5204 72.7218 64.2262 74.0089 67.0324 74.6533C67.5237 74.7577 67.9241 75.1039 68.1368 75.5652C68.3337 76.0268 68.3263 76.5558 68.0808 77.0085L63.4762 85.4314C63.1999 85.9326 62.6836 86.2454 62.1151 86.2544ZM58.7267 77.8145C59.9743 77.7947 61.1391 78.5293 61.6475 79.7072L62.2377 81.06L64.3252 77.2446C62.3721 76.6026 60.5094 75.6867 58.8012 74.5601L56.8821 78.0362L58.3638 77.8364C58.4741 77.8186 58.6004 77.8166 58.7267 77.8145Z" fill="#00553A"/>
</g>
</svg>
