<svg width="98" height="90" viewBox="0 0 98 90" fill="none" xmlns="http://www.w3.org/2000/svg">
<mask id="mask0_4127_1082" style="mask-type:alpha" maskUnits="userSpaceOnUse" x="0" y="0" width="98" height="90">
<rect width="98" height="90" fill="#D9D9D9"/>
</mask>
<g mask="url(#mask0_4127_1082)">
<path fill-rule="evenodd" clip-rule="evenodd" d="M9.04636 15.8957C8.97658 16.4906 9.15104 17.0854 9.5174 17.5578C9.88376 18.0302 10.4246 18.3276 11.0177 18.4151L13.2508 18.6776C13.844 18.7475 14.4371 18.5726 14.9082 18.2052C15.3792 17.8377 15.6758 17.2954 15.763 16.7005L16.0247 14.4435C16.0945 13.8486 15.92 13.2538 15.5537 12.7814C15.1873 12.309 14.6465 12.0116 14.0533 11.9241L11.8203 11.6616C11.2271 11.5917 10.6339 11.7666 10.1629 12.134C9.69186 12.5014 9.39528 13.0438 9.30805 13.6387L9.04636 15.8957Z" fill="#FFAA00"/>
<path d="M8.14476 15.6663C8.04009 16.5586 8.28433 17.4684 8.8426 18.1682C9.40087 18.8681 10.2034 19.3404 11.1106 19.4454L13.3611 19.7079C14.2508 19.8128 15.158 19.5679 15.8558 19.008C16.5537 18.4481 17.0247 17.6433 17.1294 16.7335L17.3911 14.4765C17.4957 13.5842 17.2515 12.6744 16.6932 11.9746C16.135 11.2748 15.3325 10.8024 14.4253 10.6974L12.1922 10.4524C11.3025 10.3475 10.3953 10.6099 9.69745 11.1523C8.99961 11.7122 8.52857 12.517 8.4239 13.4093L8.14476 15.6663ZM11.9131 12.6919L14.1636 12.9544C14.4602 12.9894 14.7219 13.1468 14.9138 13.3743C15.1057 13.6017 15.1754 13.9167 15.1406 14.2141L14.8789 16.4711C14.844 16.7685 14.687 17.031 14.4602 17.2234C14.2334 17.4159 13.9193 17.4859 13.6228 17.4509L11.3722 17.1884C11.0757 17.1534 10.814 16.996 10.6221 16.7685C10.4302 16.5411 10.3604 16.2261 10.3953 15.9287L10.657 13.6717C10.6919 13.3743 10.8489 13.1118 11.0757 12.9194C11.3199 12.7444 11.6165 12.6569 11.9131 12.6919Z" fill="#005A3A"/>
<path fill-rule="evenodd" clip-rule="evenodd" d="M87.8345 42.6146C88.2719 42.2083 88.5265 41.6312 88.5478 41.0364C88.569 40.4417 88.3473 39.8521 87.9421 39.4135L86.4161 37.7523C86.0109 37.3136 85.4355 37.0582 84.8425 37.0369C84.2494 37.0156 83.6616 37.238 83.2242 37.6443L81.5677 39.1747C81.1303 39.5811 80.8757 40.1582 80.8545 40.7529C80.8332 41.3476 81.0549 41.9372 81.4601 42.3759L82.9861 44.0371C83.3913 44.4757 83.9506 44.7377 84.5598 44.7524C85.1528 44.7737 85.7407 44.5514 86.1781 44.145L87.8345 42.6146Z" fill="#3A9EE9"/>
<path d="M88.6055 43.4502C89.2616 42.8407 89.6469 41.9831 89.6754 41.0829C89.704 40.1827 89.3861 39.3112 88.7784 38.6532L87.2362 36.9987C86.6284 36.3407 85.7733 35.9543 84.8757 35.9257C83.9781 35.897 83.1091 36.2158 82.453 36.8253L80.8061 38.3329C80.15 38.9424 79.7648 39.8 79.7362 40.7002C79.7077 41.6004 80.0255 42.4719 80.6333 43.1299L82.1755 44.7844C82.7832 45.4424 83.6383 45.8288 84.5359 45.8574C85.4336 45.8861 86.3025 45.5673 86.9586 44.9578L88.6055 43.4502ZM83.8157 43.2606L82.2736 41.6061C82.071 41.3867 81.9682 41.0886 81.9821 40.7994C81.9894 40.4939 82.1201 40.2135 82.3388 40.0103L83.9886 38.4637C84.2073 38.2605 84.5045 38.1574 84.793 38.1714C85.0975 38.1787 85.3772 38.3097 85.5798 38.5291L87.1219 40.1836C87.3245 40.403 87.4273 40.7011 87.4134 40.9903C87.4061 41.2958 87.2754 41.5762 87.0567 41.7794L85.4069 43.326C85.1882 43.5292 84.891 43.6323 84.6025 43.6183C84.298 43.611 84.0183 43.48 83.8157 43.2606Z" fill="#005A3A"/>
<path d="M79.8883 31.4135C79.7166 30.9925 79.3899 30.6539 78.9642 30.4883C78.5547 30.3161 78.0783 30.3037 77.6585 30.4759C77.2387 30.6482 76.9011 30.9758 76.736 31.4027C76.5643 31.8134 76.5518 32.2912 76.7236 32.7122C76.8954 33.1332 77.222 33.4717 77.6477 33.6373C78.0573 33.8095 78.5336 33.822 78.9535 33.6497C79.3733 33.4775 79.7109 33.1499 79.876 32.723C80.0638 32.3056 80.0601 31.8345 79.8883 31.4135Z" fill="#005A3A"/>
<path d="M39.8515 22.4267L39.8515 22.4267L39.8449 22.4201L34.2902 16.9339L34.2451 16.8894L34.1964 16.8488C33.2287 16.0424 31.872 16.0424 30.9043 16.8488L30.8484 16.8954L30.7973 16.9471L25.3129 22.5001L25.3112 22.5019L10.2994 37.6508C10.2984 37.6518 10.2974 37.6528 10.2964 37.6538C9.23354 38.7198 9.23455 40.4217 10.2994 41.4865L14.7569 45.9441C15.8227 47.0099 17.5268 47.0099 18.5926 45.9441L32.6532 31.8835L33.9352 33.1654H33.8016L36.4406 35.7392L41.99 41.1516C42.9863 42.1396 44.5448 42.1383 45.5396 41.1475C45.5409 41.1462 45.5421 41.1449 45.5434 41.1437L51.0916 35.6641L51.0967 35.659L51.1018 35.6539L60.1298 26.5645L63.7209 30.1027C63.7225 30.1043 63.724 30.1058 63.7256 30.1074C65.44 31.8148 68.1086 30.629 68.3943 28.486L68.3951 28.4797L69.4919 19.9796L69.4924 19.9761L70.7235 10.6057C71.0235 8.68373 69.2875 7.26497 67.5767 7.53403L58.2036 8.83397L58.1979 8.83475L48.5395 10.1362C47.6144 10.2556 47.0027 10.9099 46.7715 11.6035C46.5469 12.2773 46.6341 13.1056 47.1707 13.7496L47.2113 13.7982L47.2558 13.8433L51.6299 18.2728L43.6934 26.2685L39.8515 22.4267Z" fill="white" stroke="#00583C" stroke-width="3"/>
<path d="M25.9585 71.9713L25.9584 71.9629L25.8899 59.696H24.3899L25.8898 59.6876L25.8899 59.691C25.8871 58.3161 24.7366 57.1673 23.3612 57.1673H15.2005C13.8235 57.1673 12.6719 58.3189 12.6719 59.696L12.6719 59.7044L12.7405 71.9713C12.7405 71.9729 12.7405 71.9746 12.7405 71.9763C12.7416 72.6241 12.9648 73.2798 13.4627 73.7777C13.9619 74.2769 14.6196 74.4999 15.2691 74.4999H23.4298C24.8068 74.4999 25.9584 73.3483 25.9585 71.9713ZM70.465 71.8341L70.465 71.8277L70.3278 39.8086H68.8278L70.3278 39.8022L70.3278 39.8052C70.3259 38.4297 69.1751 37.28 67.7992 37.28H59.6385C58.2615 37.28 57.1098 38.4316 57.1098 39.8086L57.1099 39.815L57.2467 71.7727C57.1959 72.4979 57.4588 73.1784 57.9685 73.6649C58.4778 74.1511 59.1431 74.3628 59.7757 74.3628H67.9363C69.3134 74.3628 70.465 73.2112 70.465 71.8341ZM56.0638 71.9027L56.0638 71.8972L55.9952 53.3869H54.4952L55.9952 53.3813L55.9952 53.384C55.9936 52.0082 54.8426 50.8582 53.4666 50.8582H45.3059C43.9288 50.8582 42.7772 52.0099 42.7772 53.3869L42.7772 53.3925L42.8458 71.9027H44.3458L42.8458 71.9083L42.8458 71.9065C42.8479 73.2819 43.9987 74.4314 45.3745 74.4314H53.5351C54.9122 74.4314 56.0638 73.2798 56.0638 71.9027ZM41.114 71.9713L41.114 71.9673L41.0454 46.4606H39.5454L41.0454 46.4566L41.0454 46.4583C41.0441 45.0823 39.893 43.9319 38.5168 43.9319H30.3561C28.979 43.9319 27.8274 45.0836 27.8274 46.4606L27.8274 46.4646L27.896 71.9713H29.396L27.896 71.9753L27.896 71.9736C27.8973 73.3496 29.0484 74.4999 30.4247 74.4999H38.5853C39.9624 74.4999 41.114 73.3483 41.114 71.9713Z" fill="white" stroke="#00583C" stroke-width="3"/>
<path d="M68.6609 78.5445C77.2658 78.7564 84.4132 71.9525 84.625 63.3477C84.8369 54.7428 78.033 47.5954 69.4281 47.3836C60.8233 47.1717 53.6759 53.9756 53.4641 62.5805C53.2522 71.1853 60.0561 78.3327 68.6609 78.5445Z" fill="#33BA75"/>
<path d="M66.8118 70.23C66.4301 70.2206 66.0666 70.0648 65.8092 69.7793L61.0262 64.7548C60.482 64.1832 60.5044 63.2729 61.0764 62.714C61.6481 62.1699 62.5584 62.1923 63.1172 62.7643L66.7833 66.6154L75.6114 55.9175C76.1114 55.2981 77.0243 55.2177 77.6436 55.7177C78.263 56.2178 78.3434 57.1306 77.8434 57.75L67.9854 69.7007C67.7279 70.0175 67.3411 70.2137 66.9296 70.2183C66.8705 70.2315 66.8412 70.2308 66.8118 70.23Z" fill="white"/>
<path d="M69.2076 79.841C65.2263 79.7427 61.4023 78.2669 58.3871 75.6653C55.372 73.0636 53.3521 69.4969 52.6718 65.573C51.9915 61.6491 52.6928 57.6107 54.6562 54.1458C56.6195 50.681 59.7236 48.0041 63.4393 46.5712C67.1551 45.1384 71.2528 45.0382 75.0341 46.2878C78.8154 47.5375 82.0465 50.0595 84.1768 53.4243C86.3071 56.7891 87.2048 60.7885 86.717 64.7409C86.2292 68.6934 84.386 72.3545 81.5015 75.1004C79.8675 76.6641 77.9396 77.8883 75.8294 78.7021C73.7191 79.5158 71.4684 79.9029 69.2076 79.841ZM69.9816 48.4011C66.689 48.3194 63.47 49.3819 60.873 51.4076C58.276 53.4332 56.4618 56.2968 55.7394 59.5102C55.0171 62.7236 55.4313 66.088 56.9116 69.0302C58.3918 71.9724 60.8465 74.3103 63.8573 75.6455C66.8681 76.9807 70.2487 77.2307 73.4231 76.3527C76.5975 75.4747 79.3693 73.5232 81.2661 70.8306C83.1629 68.138 84.0674 64.8711 83.8254 61.5864C83.5834 58.3017 82.2099 55.2026 79.939 52.817C78.6538 51.459 77.112 50.3694 75.4028 49.6114C73.6935 48.8534 71.8509 48.4421 69.9816 48.4011Z" fill="#00583C"/>
</g>
</svg>
