<svg width="98" height="90" viewBox="0 0 98 90" fill="none" xmlns="http://www.w3.org/2000/svg">
<mask id="mask0_4127_1136" style="mask-type:alpha" maskUnits="userSpaceOnUse" x="0" y="0" width="98" height="90">
<rect width="98" height="90" fill="#D9D9D9"/>
</mask>
<g mask="url(#mask0_4127_1136)">
<path fill-rule="evenodd" clip-rule="evenodd" d="M75.8816 80.2103C75.8149 80.7774 75.9817 81.3445 76.332 81.7948C76.6822 82.2452 77.1993 82.5287 77.7664 82.6121L79.9013 82.8623C80.4684 82.929 81.0355 82.7622 81.4858 82.4119C81.9361 82.0617 82.2197 81.5446 82.3031 80.9776L82.5532 78.826C82.62 78.2589 82.4532 77.6918 82.1029 77.2414C81.7527 76.7911 81.2356 76.5076 80.6685 76.4242L78.5336 76.174C77.9665 76.1073 77.3994 76.2741 76.9491 76.6243C76.4988 76.9746 76.2152 77.4916 76.1318 78.0587L75.8816 80.2103Z" fill="#FFAA00"/>
<path d="M75.0226 79.9919C74.9226 80.8426 75.1561 81.7099 75.6898 82.377C76.2235 83.0442 76.9908 83.4945 77.8581 83.5946L80.0097 83.8448C80.8603 83.9449 81.7276 83.7113 82.3948 83.1776C83.0619 82.6439 83.5123 81.8767 83.6123 81.0093L83.8625 78.8577C83.9626 78.0071 83.7291 77.1398 83.1954 76.4726C82.6616 75.8055 81.8944 75.3552 81.0271 75.2551L78.8922 75.0216C78.0415 74.9215 77.1742 75.1717 76.5071 75.6887C75.8399 76.2225 75.3896 76.9897 75.2895 77.8403L75.0226 79.9919ZM78.6253 77.1565L80.7769 77.4067C81.0604 77.44 81.3106 77.5901 81.4941 77.807C81.6776 78.0238 81.7443 78.324 81.7109 78.6076L81.4607 80.7592C81.4274 81.0427 81.2773 81.2929 81.0604 81.4764C80.8436 81.6598 80.5434 81.7265 80.2598 81.6932L78.1082 81.443C77.8247 81.4096 77.5745 81.2595 77.3911 81.0427C77.2076 80.8259 77.1409 80.5257 77.1742 80.2421L77.4244 78.0905C77.4578 77.807 77.6079 77.5568 77.8247 77.3733C78.0582 77.2065 78.3418 77.1231 78.6253 77.1565Z" fill="#005A3A"/>
<path fill-rule="evenodd" clip-rule="evenodd" d="M7.95553 30.5628C8.15568 31.0965 8.57265 31.5302 9.0897 31.7637C9.60675 31.9972 10.2072 32.0139 10.7409 31.8137L12.7591 31.0632C13.2928 30.863 13.7265 30.446 13.96 29.929C14.1935 29.4119 14.2102 28.8115 14.01 28.2778L13.2595 26.2596C13.0593 25.7259 12.6423 25.2922 12.1253 25.0587C11.6082 24.8252 11.0078 24.8085 10.4741 25.0087L8.4559 25.7592C7.92217 25.9594 7.48851 26.3597 7.25501 26.8934C7.0215 27.4105 7.00482 28.0109 7.20497 28.5446L7.95553 30.5628Z" fill="#00BD6E"/>
<path d="M6.93807 30.9465C7.2383 31.7471 7.85542 32.3976 8.63934 32.7478C9.42325 33.0981 10.3072 33.1315 11.1078 32.8312L13.126 32.064C13.9266 31.7638 14.5771 31.1467 14.9273 30.3627C15.2776 29.5788 15.3109 28.6948 15.0107 27.8942L14.2768 25.8928C13.9766 25.0922 13.3595 24.4417 12.5756 24.0914C11.7917 23.7412 10.9077 23.7078 10.1071 24.008L8.08893 24.7753C7.28833 25.0755 6.63785 25.6926 6.28759 26.4765C5.93733 27.2604 5.90397 28.1444 6.2042 28.945L6.93807 30.9465ZM8.83948 26.7767L10.8576 26.0095C11.1245 25.9094 11.4247 25.9261 11.6749 26.0429C11.9418 26.1596 12.1419 26.3764 12.242 26.6433L13.0092 28.6615C13.1093 28.9283 13.0926 29.2286 12.9759 29.4787C12.8591 29.7456 12.6423 29.9458 12.3754 30.0458L10.3573 30.8131C10.0904 30.9131 9.79019 30.8965 9.54 30.7797C9.27314 30.663 9.07299 30.4461 8.97292 30.1793L8.20568 28.1611C8.10561 27.8942 8.12229 27.594 8.23904 27.3438C8.35579 27.077 8.57262 26.8768 8.83948 26.7767Z" fill="#005A3A"/>
<g clip-path="url(#clip0_4127_1136)">
<path d="M21.1036 83.0154L8.82817 62.5888C8.12384 61.4282 8.50955 59.9195 9.70019 59.2231L19.1415 53.6688C20.3154 52.9724 21.8415 53.3538 22.5458 54.531L34.8212 74.9575C35.5255 76.1181 35.1398 77.6269 33.9492 78.3233L24.5078 83.8776C23.334 84.574 21.8079 84.1926 21.1036 83.0154Z" fill="white"/>
<path d="M23.2672 85.834C21.8586 85.834 20.4667 85.1211 19.6953 83.8278L7.41985 63.4344C6.24597 61.4945 6.89999 58.9578 8.86204 57.8138L18.2698 52.276C19.2257 51.7123 20.3325 51.5631 21.4058 51.8284C22.479 52.0937 23.3846 52.7734 23.9548 53.7019L36.2302 74.0954C36.8004 75.0404 36.9513 76.1347 36.683 77.1958C36.4146 78.2569 35.7271 79.1523 34.788 79.716L25.3802 85.2537C24.7094 85.6516 23.9883 85.834 23.2672 85.834ZM22.5126 82.1698C22.7473 82.5677 23.284 82.7004 23.6864 82.4683L33.0942 76.9305C33.2955 76.8145 33.4296 76.6321 33.4799 76.4166C33.5303 76.201 33.4967 75.9689 33.3793 75.7699L21.1039 55.3765C20.9865 55.1775 20.8021 55.0449 20.5841 54.9952C20.3661 54.9454 20.1313 54.9786 19.93 55.0947L10.5222 60.6324C10.1198 60.8645 9.98561 61.3951 10.2204 61.793L22.5126 82.1698Z" fill="#00583C"/>
<path d="M62.2905 38.9457H34.9224C34.0336 38.9457 33.3125 38.2328 33.3125 37.354V33.3251C33.3125 32.4463 34.0336 31.7334 34.9224 31.7334H62.2905C63.1793 31.7334 63.9004 32.4463 63.9004 33.3251V37.354C63.9172 38.2328 63.1793 38.9457 62.2905 38.9457Z" fill="#E1E1E1"/>
<path d="M63.0776 40.5706H34.1499C32.7748 40.5706 31.668 39.4763 31.668 38.1167V32.5458C31.668 31.1863 32.7748 30.092 34.1499 30.092H63.0776C64.4527 30.092 65.5595 31.1863 65.5595 32.5458V38.1167C65.5595 39.4763 64.436 40.5706 63.0776 40.5706ZM34.9548 37.3209H62.2559V33.3417H34.9548V37.3209Z" fill="#00583C"/>
<path d="M65.3257 46.1746H37.9575C37.0688 46.1746 36.3477 45.4616 36.3477 44.5829V40.554C36.3477 39.6752 37.0688 38.9623 37.9575 38.9623H65.3257C66.2145 38.9623 66.9356 39.6752 66.9356 40.554V44.5829C66.9356 45.4616 66.2145 46.1746 65.3257 46.1746Z" fill="white"/>
<path d="M66.0971 47.7994H37.1694C35.7943 47.7994 34.6875 46.7052 34.6875 45.3456V39.7747C34.6875 38.4151 35.7943 37.3209 37.1694 37.3209H66.0971C67.4722 37.3209 68.5791 38.4151 68.5791 39.7747V45.3456C68.5791 46.7052 67.4722 47.7994 66.0971 47.7994ZM37.9911 44.5498H65.2922V40.5705H37.9911V44.5498Z" fill="#00583C"/>
<path d="M68.6616 53.4035H41.2935C40.4047 53.4035 39.6836 52.6906 39.6836 51.8118V47.7663C39.6836 46.8876 40.4047 46.1746 41.2935 46.1746H68.6616C69.5504 46.1746 70.2715 46.8876 70.2715 47.7663V51.7953C70.2715 52.6906 69.5504 53.4035 68.6616 53.4035Z" fill="#E1E1E1"/>
<path d="M69.4526 55.0283H40.5249C39.1498 55.0283 38.043 53.934 38.043 52.5745V47.0036C38.043 45.644 39.1498 44.5497 40.5249 44.5497H69.4526C70.8277 44.5497 71.9345 45.644 71.9345 47.0036V52.5745C71.9345 53.934 70.811 55.0283 69.4526 55.0283ZM41.3298 51.7786H68.6309V47.7994H41.3298V51.7786Z" fill="#00583C"/>
<path d="M88.7715 56.1392C88.7715 56.1889 88.7715 56.2552 88.7715 56.305C88.7044 57.8469 87.6647 59.1899 86.1889 59.7039L75.3222 64.3131C71.9012 65.6395 69.2013 66.9162 65.797 68.7068C64.0194 69.6353 62.812 69.9172 60.0618 70.3648C59.6425 70.4311 57.3451 70.6301 56.9258 70.6798L33.901 73.3658L32.1067 70.3814L23.2188 55.7247L34.488 49.988C37.1711 48.6118 40.2903 48.2637 43.225 48.9932L59.2568 52.9724C61.1015 53.4366 62.3928 55.0615 62.3928 56.935C62.3928 58.0624 61.9232 59.0904 61.1853 59.8199C60.4307 60.566 59.4078 61.0137 58.2674 61.0137C60.4307 61.0137 62.3257 59.5381 62.812 57.449C63.03 56.4873 63.1139 55.6418 63.4492 55.2936L72.4546 54.1496C77.8544 53.0387 78.4749 52.9392 83.271 51.8615C84.5791 51.5631 85.9877 51.8284 87.0945 52.7237C88.2181 53.5693 88.7715 54.8459 88.7715 56.1392Z" fill="white"/>
<path d="M33.9157 74.9575C33.3456 74.9575 32.8089 74.6591 32.5071 74.1617L30.7127 71.1773L21.8415 56.5371C21.6068 56.1558 21.5397 55.6915 21.6738 55.2605C21.7912 54.8294 22.0931 54.4646 22.4956 54.2656L33.7648 48.529C36.8169 46.9704 40.3217 46.5725 43.6421 47.4015L59.674 51.3807C61.0994 51.7289 62.2733 52.5745 63.0614 53.7185C63.1285 53.7019 63.1788 53.6853 63.2459 53.6853L72.2009 52.5413C72.9388 52.3921 73.5928 52.2595 74.163 52.1434C77.8356 51.3973 78.825 51.1983 82.9168 50.2864C84.7782 49.8719 86.6732 50.303 88.1321 51.4636C89.5743 52.6076 90.4128 54.332 90.4128 56.1724C90.4128 56.2553 90.4128 56.3216 90.4128 56.4045C90.329 58.5599 88.87 60.4997 86.7906 61.2458L75.9741 65.8219C75.9573 65.8219 75.9406 65.8385 75.9238 65.8385C72.8214 67.0488 70.2053 68.2592 66.5663 70.1493C64.554 71.2104 63.1118 71.5089 60.328 71.9731C60.0261 72.0229 59.2547 72.0892 58.1144 72.2052C57.6951 72.2384 57.2424 72.2881 57.1082 72.3047L34.0834 74.9907C34.0499 74.9575 33.9828 74.9575 33.9157 74.9575ZM25.5476 56.3547L33.53 69.5193L34.7877 71.5918L56.756 69.0384C56.9237 69.0219 57.2759 68.9887 57.8293 68.939C58.4498 68.8892 59.5901 68.7732 59.8081 68.74C62.508 68.2923 63.5142 68.0602 65.0403 67.2478C68.1594 65.623 70.9935 64.2468 74.6996 62.7878L85.5496 58.1951C85.5831 58.1785 85.6167 58.162 85.6502 58.162C86.5055 57.8635 87.0924 57.1008 87.126 56.2387C87.126 56.2055 87.126 56.1723 87.126 56.1392C87.126 55.2936 86.7403 54.4978 86.0695 53.9672C85.3987 53.4366 84.5099 53.2377 83.6379 53.4366C79.5125 54.3651 78.4225 54.5807 74.817 55.3102C74.2133 55.4262 73.5593 55.5755 72.7879 55.7247C72.7543 55.7413 72.704 55.7413 72.6705 55.7413L64.621 56.7692C64.6043 56.8687 64.5875 56.9516 64.5707 57.0345C64.5204 57.2666 64.4701 57.5319 64.403 57.7972C63.7322 60.6324 61.2168 62.622 58.2653 62.622C57.3598 62.622 56.6051 61.8925 56.6051 60.9971C56.6051 60.1018 57.343 59.3723 58.2485 59.3723C58.9193 59.3723 59.5398 59.1236 60.0094 58.6428C60.4789 58.1785 60.7305 57.5651 60.7305 56.9019C60.7305 55.7744 59.9591 54.7796 58.8523 54.5143L42.8204 50.5351C40.2714 49.9051 37.5883 50.2035 35.2405 51.3973L25.5476 56.3547Z" fill="#00583C"/>
<path d="M58.2665 62.622C58.1659 62.622 58.0652 62.6054 57.9646 62.5888L43.8445 59.9858C42.9557 59.82 42.3688 58.9744 42.5197 58.0791C42.6874 57.2003 43.5427 56.62 44.4483 56.7692L58.5683 59.3723C59.4571 59.5381 60.0441 60.3837 59.8931 61.279C59.7422 62.0748 59.0547 62.622 58.2665 62.622Z" fill="#005738"/>
<path d="M87.1279 56.1226C87.1279 56.1558 87.1279 56.1889 87.1279 56.2221C87.0944 57.0677 86.5075 57.847 85.669 58.1454L85.6187 58.162L74.7016 62.7215C70.9955 64.1639 68.3794 65.4903 65.2603 67.1152C63.7342 67.911 62.51 68.2095 59.8101 68.6571C59.5921 68.6903 58.4518 68.7898 57.8313 68.8561C57.2779 68.9058 56.9257 68.939 56.758 68.9556L34.8065 71.5752L33.532 69.4364L25.5664 56.3216L32.9618 52.5579C40.156 59.7702 50.1172 64.2137 61.1852 64.2137C70.9787 64.2137 79.9505 60.6987 86.8764 54.8791C87.0273 55.277 87.1279 55.7081 87.1279 56.1226Z" fill="#F4F4F4"/>
<path d="M72.4844 37.155C81.5238 37.155 88.8516 29.9101 88.8516 20.9729C88.8516 12.0358 81.5238 4.79083 72.4844 4.79083C63.445 4.79083 56.1172 12.0358 56.1172 20.9729C56.1172 29.9101 63.445 37.155 72.4844 37.155Z" fill="#00ABEC"/>
<path d="M72.4872 38.7799C62.5596 38.7799 54.4766 30.7883 54.4766 20.973C54.4766 11.1576 62.5596 3.16602 72.4872 3.16602C82.4149 3.16602 90.4979 11.1576 90.4979 20.973C90.4979 30.7883 82.4149 38.7799 72.4872 38.7799ZM72.4872 6.4157C64.3707 6.4157 57.7802 12.9482 57.7802 20.973C57.7802 28.9977 64.3875 35.5136 72.4872 35.5136C80.587 35.5136 87.211 28.9811 87.211 20.973C87.211 12.9648 80.6037 6.4157 72.4872 6.4157Z" fill="#00583C"/>
<path d="M73.5937 23.9573L72.6211 24.1397L71.7994 24.1066C71.5478 24.0568 71.3298 23.9739 71.1118 23.8744C70.81 23.7252 70.5249 23.5263 70.2398 23.2776C70.005 23.062 69.7199 22.946 69.3678 22.946C68.9988 22.946 68.6802 23.0952 68.4287 23.3605C68.1771 23.6257 68.043 23.9408 68.043 24.2889C68.043 24.7034 68.2274 25.0682 68.5628 25.3666C69.0659 25.8143 69.5858 26.1459 70.1224 26.378C70.4913 26.5272 70.8938 26.6433 71.3466 26.7262V27.3728C71.3466 27.7542 71.4808 28.0858 71.7323 28.3345C71.9838 28.5832 72.3025 28.7158 72.6882 28.7158C73.0571 28.7158 73.4093 28.5666 73.644 28.3179C73.8956 28.0692 74.0298 27.7376 74.0298 27.3562V26.6267C74.7676 26.4112 75.4049 26.0464 75.908 25.549C76.5787 24.9024 76.8974 24.1066 76.8974 23.1947C76.8974 22.1501 76.5787 21.3377 75.9583 20.774C75.4384 20.2932 74.667 19.9118 73.6944 19.6465L71.7826 19.1491C71.5143 19.0497 71.3131 18.917 71.1454 18.7844C71.0112 18.6517 70.9441 18.5025 70.9441 18.2704C70.9441 18.0714 70.9944 17.9056 71.1454 17.773C71.5981 17.3751 71.9839 17.3088 72.6714 17.3088C73.7447 17.3088 74.2645 17.8559 74.4825 18.0549L74.5496 18.1212C75.0024 18.5191 75.8073 18.4694 76.2601 17.9885C76.5117 17.7233 76.6291 17.4082 76.6291 17.0766C76.6291 16.6621 76.4278 16.2808 76.0757 15.9824C75.7403 15.6673 75.3378 15.4186 74.8682 15.2197C74.5664 15.087 74.231 14.971 73.9124 14.9046V14.6228C73.9124 14.258 73.7782 13.9098 73.5434 13.6777C73.3087 13.4456 73.0068 13.313 72.5876 13.2964C72.2186 13.2964 71.8832 13.429 71.6317 13.6777C71.3634 13.9264 71.2292 14.258 71.2292 14.6394V14.9046C70.441 15.087 69.7703 15.4352 69.2504 15.9326C68.5796 16.5792 68.2442 17.3917 68.2442 18.3533C68.2442 19.3481 68.5964 20.1605 69.2504 20.7408C69.8206 21.2548 70.592 21.6361 71.5981 21.8683L72.6882 22.0672L73.4596 22.3822C73.5602 22.432 73.644 22.4983 73.8117 22.6309L73.8956 22.6807C73.9291 22.7138 73.9627 22.7304 73.9627 22.7304C74.0968 22.8796 74.1639 23.0454 74.1807 23.261C74.1807 23.4268 74.1304 23.576 73.9794 23.7086C73.8788 23.7915 73.7111 23.9076 73.5937 23.9573Z" fill="white"/>
</g>
</g>
<defs>
<clipPath id="clip0_4127_1136">
<rect width="84" height="83" fill="white" transform="translate(7 3)"/>
</clipPath>
</defs>
</svg>
