<svg width="98" height="90" viewBox="0 0 98 90" fill="none" xmlns="http://www.w3.org/2000/svg">
<mask id="mask0_4127_1210" style="mask-type:alpha" maskUnits="userSpaceOnUse" x="0" y="0" width="98" height="90">
<rect width="98" height="90" fill="#D9D9D9"/>
</mask>
<g mask="url(#mask0_4127_1210)">
<path fill-rule="evenodd" clip-rule="evenodd" d="M87.8697 13.0604C87.8041 13.6111 87.9679 14.1618 88.3119 14.5992C88.6559 15.0365 89.1637 15.3119 89.7206 15.3929L91.8173 15.6359C92.3742 15.7007 92.9311 15.5387 93.3734 15.1985C93.8156 14.8584 94.0941 14.3562 94.176 13.8055L94.4217 11.7159C94.4872 11.1652 94.3234 10.6145 93.9794 10.1771C93.6354 9.73976 93.1277 9.46439 92.5707 9.3834L90.4741 9.14043C89.9172 9.07564 89.3602 9.23762 88.918 9.57778C88.4757 9.91794 88.1973 10.4201 88.1154 10.9708L87.8697 13.0604Z" fill="#00ABEC"/>
<path d="M87.0222 12.848C86.9239 13.6741 87.1533 14.5164 87.6774 15.1644C88.2016 15.8123 88.9551 16.2496 89.8068 16.3468L91.9199 16.5898C92.7553 16.687 93.607 16.4602 94.2622 15.9419C94.9174 15.4235 95.3597 14.6784 95.458 13.8361L95.7037 11.7466C95.8019 10.9205 95.5726 10.0782 95.0485 9.43024C94.5243 8.78232 93.7708 8.34497 92.9191 8.24778L90.8224 8.02101C89.987 7.92382 89.1353 8.16679 88.4801 8.66893C87.8248 9.18727 87.3826 9.93238 87.2843 10.7585L87.0222 12.848ZM90.5603 10.0944L92.6734 10.3373C92.9518 10.3697 93.1975 10.5155 93.3777 10.7261C93.5579 10.9367 93.6234 11.2282 93.5906 11.5036L93.3449 13.5932C93.3122 13.8685 93.1648 14.1115 92.9518 14.2897C92.7389 14.4678 92.444 14.5326 92.1656 14.5002L90.0525 14.2573C89.7741 14.2249 89.5284 14.0791 89.3482 13.8685C89.168 13.6579 89.1025 13.3664 89.1353 13.091L89.381 11.0015C89.4137 10.7261 89.5611 10.4831 89.7741 10.3049C90.0034 10.143 90.2819 10.062 90.5603 10.0944Z" fill="#005A3A"/>
<path fill-rule="evenodd" clip-rule="evenodd" d="M8.91633 82.421C9.2694 82.8483 9.79275 83.1151 10.3465 83.1662C10.9003 83.2173 11.4637 83.0426 11.8973 82.6898L13.5388 81.3612C13.9724 81.0083 14.2451 80.4877 14.3005 79.9385C14.3558 79.3892 14.1834 78.8319 13.8303 78.4045L12.5011 76.7866C12.148 76.3592 11.6247 76.0924 11.0709 76.0413C10.5172 75.9902 9.95369 76.1649 9.5201 76.5177L7.87861 77.8463C7.44502 78.1992 7.16708 78.7044 7.11698 79.269C7.06166 79.8183 7.23401 80.3756 7.58709 80.803L8.91633 82.421Z" fill="#00BD6E"/>
<path d="M8.09129 83.0954C8.6209 83.7365 9.39817 84.1392 10.2366 84.2132C11.075 84.2872 11.9073 84.0382 12.5577 83.5089L14.1939 82.165C14.8443 81.6357 15.256 80.8625 15.3364 80.0309C15.4168 79.1994 15.1712 78.3761 14.6416 77.7351L13.3331 76.1271C12.8035 75.4861 12.0262 75.0833 11.1878 75.0093C10.3494 74.9353 9.51708 75.1843 8.86669 75.7136L7.23042 77.0575C6.58003 77.5868 6.16835 78.36 6.08798 79.1916C6.0076 80.0231 6.25317 80.8464 6.78278 81.4874L8.09129 83.0954ZM8.55444 78.6602L10.1907 77.3163C10.4075 77.1398 10.6918 77.0602 10.961 77.0884C11.2456 77.1113 11.4995 77.2473 11.6761 77.461L13.0208 79.0737C13.1974 79.2874 13.2758 79.5687 13.2455 79.8356C13.2205 80.1179 13.0815 80.3705 12.8647 80.547L11.2284 81.8909C11.0116 82.0673 10.7273 82.147 10.4582 82.1188C10.1735 82.0959 9.9196 81.9599 9.74306 81.7462L8.39832 80.1335C8.22178 79.9198 8.14336 79.6385 8.17363 79.3715C8.19868 79.0892 8.33764 78.8366 8.55444 78.6602Z" fill="#005A3A"/>
<path d="M19.8472 75.6384C20.2503 75.5012 20.5858 75.2159 20.7658 74.8296C20.951 74.4586 20.9911 74.0172 20.8554 73.6185C20.7197 73.2198 20.4342 72.8892 20.0457 72.7134C19.6726 72.5324 19.2275 72.4957 18.8243 72.6329C18.4212 72.7701 18.0857 73.0553 17.9057 73.4417C17.7205 73.8127 17.6804 74.2541 17.8161 74.6528C17.9518 75.0515 18.2373 75.3821 18.6259 75.5578C19.0041 75.7542 19.444 75.7756 19.8472 75.6384Z" fill="#005A3A"/>
<g clip-path="url(#clip0_4127_1210)">
<path d="M77.3113 64.209H14.6773C12.4933 64.209 10.7305 62.4688 10.7305 60.3128V14.7596C10.7305 12.6036 12.4933 10.8634 14.6773 10.8634H77.3113C79.4953 10.8634 81.2581 12.6036 81.2581 14.7596V60.3128C81.2581 62.4534 79.4953 64.209 77.3113 64.209Z" fill="white"/>
<path d="M79.169 65.749H12.8223C10.7943 65.749 9.15625 64.132 9.15625 62.13V12.927C9.15625 10.925 10.7943 9.30798 12.8223 9.30798H79.169C81.197 9.30798 82.835 10.925 82.835 12.927V62.13C82.835 64.132 81.197 65.749 79.169 65.749ZM12.8223 12.4188C12.5415 12.4188 12.3075 12.6498 12.3075 12.927V62.13C12.3075 62.4072 12.5415 62.6382 12.8223 62.6382H79.169C79.4498 62.6382 79.6839 62.4072 79.6839 62.13V12.927C79.6839 12.6498 79.4498 12.4188 79.169 12.4188H12.8223Z" fill="#00583C"/>
<path d="M79.685 43.7732V62.13C79.685 62.4072 79.451 62.6382 79.1702 62.6382H12.8234C12.5426 62.6382 12.3086 62.4072 12.3086 62.13V32.2848C18.6734 46.5144 33.1034 56.4474 49.8734 56.4474C61.6202 56.4474 72.2126 51.581 79.685 43.7732Z" fill="#F3F3F3"/>
<path d="M79.607 25.632H12.3242V34.41H79.607V25.632Z" fill="#E1E1E1"/>
<path d="M29.796 47.4846H20.904C20.124 47.4846 19.4844 46.8532 19.4844 46.0832V45.0514C19.4844 44.2814 20.124 43.65 20.904 43.65H29.796C30.576 43.65 31.2156 44.2814 31.2156 45.0514V46.0832C31.2156 46.8532 30.576 47.4846 29.796 47.4846Z" fill="#A8A6A7"/>
<path d="M43.8038 47.4846H34.9118C34.1318 47.4846 33.4922 46.8532 33.4922 46.0832V45.0514C33.4922 44.2814 34.1318 43.65 34.9118 43.65H43.8038C44.5838 43.65 45.2234 44.2814 45.2234 45.0514V46.0832C45.2234 46.8532 44.5838 47.4846 43.8038 47.4846Z" fill="#A8A6A7"/>
<path d="M58.171 47.4846H49.279C48.499 47.4846 47.8594 46.8532 47.8594 46.0832V45.0514C47.8594 44.2814 48.499 43.65 49.279 43.65H58.171C58.951 43.65 59.5906 44.2814 59.5906 45.0514V46.0832C59.6062 46.8532 58.9666 47.4846 58.171 47.4846Z" fill="#A8A6A7"/>
<path d="M72.5382 47.4846H63.6462C62.8662 47.4846 62.2266 46.8532 62.2266 46.0832V45.0514C62.2266 44.2814 62.8662 43.65 63.6462 43.65H72.5382C73.3182 43.65 73.9578 44.2814 73.9578 45.0514V46.0832C73.9578 46.8532 73.3182 47.4846 72.5382 47.4846Z" fill="#A8A6A7"/>
<path d="M68.8248 84.768C78.0521 84.768 85.5324 77.3836 85.5324 68.2746C85.5324 59.1655 78.0521 51.7812 68.8248 51.7812C59.5974 51.7812 52.1172 59.1655 52.1172 68.2746C52.1172 77.3836 59.5974 84.768 68.8248 84.768Z" fill="#F4AD3D"/>
<path d="M68.4512 85.8152C63.5684 85.8152 58.9664 83.9364 55.5188 80.533C52.0712 77.1296 50.168 72.5866 50.168 67.7664C50.168 62.9462 52.0712 58.4032 55.5188 54.9998C58.9664 51.5964 63.5684 49.7176 68.4512 49.7176C73.334 49.7176 77.936 51.5964 81.3836 54.9998C84.8312 58.4032 86.7344 62.9462 86.7344 67.7664C86.7344 72.5866 84.8312 77.1296 81.3836 80.533C77.9204 83.9364 73.334 85.8152 68.4512 85.8152ZM68.4512 52.8438C64.4108 52.8438 60.62 54.3992 57.7652 57.2174C54.9104 60.0356 53.3348 63.7778 53.3348 67.7664C53.3348 71.755 54.9104 75.4972 57.7652 78.3154C60.62 81.1336 64.4108 82.689 68.4512 82.689C72.4916 82.689 76.2824 81.1336 79.1372 78.3154C81.992 75.4972 83.5676 71.755 83.5676 67.7664C83.5676 63.7778 81.992 60.0356 79.1372 57.2174C76.2824 54.3992 72.476 52.8438 68.4512 52.8438Z" fill="#00583C"/>
<path d="M74.2996 61.745H73.4104V60.5438C73.4104 60.205 73.1452 59.9586 72.8176 59.9586C72.4744 59.9586 72.2248 60.2204 72.2248 60.5438V61.745H65.1268V60.5438C65.1268 60.205 64.8616 59.9586 64.534 59.9586C64.1908 59.9586 63.9412 60.2204 63.9412 60.5438V61.745H63.052C62.1316 61.745 61.3984 62.4842 61.3984 63.3774V73.911C61.3984 74.8196 62.1472 75.5434 63.052 75.5434H74.3308C75.2512 75.5434 75.9844 74.8042 75.9844 73.911V63.3774C75.9688 62.4688 75.22 61.745 74.2996 61.745ZM74.2996 74.7734H63.0208C62.5372 74.7734 62.1472 74.3884 62.1472 73.911V66.1186H75.1732V73.911C75.1888 74.3884 74.7832 74.7734 74.2996 74.7734Z" fill="white"/>
<path d="M65.9384 67.366H64.5968C64.2848 67.366 64.0352 67.6124 64.0352 67.9204V69.2448C64.0352 69.5528 64.2848 69.7992 64.5968 69.7992H65.9384C66.2504 69.7992 66.5 69.5528 66.5 69.2448V67.9204C66.4844 67.6124 66.2504 67.366 65.9384 67.366Z" fill="white"/>
<path d="M69.4149 67.366H68.0733C67.7613 67.366 67.5117 67.6124 67.5117 67.9204V69.2448C67.5117 69.5528 67.7613 69.7992 68.0733 69.7992H69.4149C69.7269 69.7992 69.9765 69.5528 69.9765 69.2448V67.9204C69.9609 67.6124 69.7113 67.366 69.4149 67.366Z" fill="white"/>
<path d="M72.7391 67.366H71.3975C71.0855 67.366 70.8359 67.6124 70.8359 67.9204V69.2448C70.8359 69.5528 71.0855 69.7992 71.3975 69.7992H72.7391C73.0511 69.7992 73.3007 69.5528 73.3007 69.2448V67.9204C73.3007 67.6124 73.0511 67.366 72.7391 67.366Z" fill="white"/>
<path d="M65.9384 70.6462H64.5968C64.2848 70.6462 64.0352 70.8926 64.0352 71.2006V72.525C64.0352 72.833 64.2848 73.0794 64.5968 73.0794H65.9384C66.2504 73.0794 66.5 72.833 66.5 72.525V71.2006C66.4844 70.8926 66.2504 70.6462 65.9384 70.6462Z" fill="white"/>
<path d="M69.4149 70.6462H68.0733C67.7613 70.6462 67.5117 70.8926 67.5117 71.2006V72.525C67.5117 72.833 67.7613 73.0794 68.0733 73.0794H69.4149C69.7269 73.0794 69.9765 72.833 69.9765 72.525V71.2006C69.9609 70.8926 69.7113 70.6462 69.4149 70.6462Z" fill="white"/>
<path d="M72.7391 70.6462H71.3975C71.0855 70.6462 70.8359 70.8926 70.8359 71.2006V72.525C70.8359 72.833 71.0855 73.0794 71.3975 73.0794H72.7391C73.0511 73.0794 73.3007 72.833 73.3007 72.525V71.2006C73.3007 70.8926 73.0511 70.6462 72.7391 70.6462Z" fill="white"/>
</g>
</g>
<defs>
<clipPath id="clip0_4127_1210">
<rect width="78" height="77" fill="white" transform="translate(9 9)"/>
</clipPath>
</defs>
</svg>
