<svg width="98" height="90" viewBox="0 0 98 90" fill="none" xmlns="http://www.w3.org/2000/svg">
<mask id="mask0_4127_1118" style="mask-type:alpha" maskUnits="userSpaceOnUse" x="0" y="0" width="98" height="90">
<rect width="98" height="90" fill="#D9D9D9"/>
</mask>
<g mask="url(#mask0_4127_1118)">
<path fill-rule="evenodd" clip-rule="evenodd" d="M81.2554 50.6146C80.818 50.2083 80.5633 49.6312 80.5421 49.0364C80.5208 48.4417 80.7425 47.8521 81.1477 47.4135L82.6737 45.7523C83.0789 45.3136 83.6543 45.0582 84.2474 45.0369C84.8404 45.0156 85.4283 45.238 85.8657 45.6443L87.5221 47.1747C87.9595 47.5811 88.2141 48.1582 88.2354 48.7529C88.2566 49.3476 88.0349 49.9372 87.6297 50.3759L86.1037 52.0371C85.6986 52.4757 85.1393 52.7377 84.5301 52.7524C83.937 52.7737 83.3492 52.5514 82.9118 52.145L81.2554 50.6146Z" fill="#33BA75"/>
<path d="M80.4804 51.4502C79.8243 50.8407 79.4391 49.9831 79.4105 49.0829C79.3819 48.1827 79.6998 47.3112 80.3076 46.6532L81.8497 44.9987C82.4575 44.3407 83.3126 43.9543 84.2102 43.9257C85.1078 43.897 85.9768 44.2158 86.6329 44.8253L88.2798 46.3329C88.9359 46.9424 89.3212 47.8 89.3497 48.7002C89.3783 49.6004 89.0604 50.4719 88.4526 51.1299L86.9105 52.7844C86.3027 53.4424 85.4476 53.8288 84.55 53.8574C83.6524 53.8861 82.7834 53.5673 82.1273 52.9578L80.4804 51.4502ZM85.2702 51.2606L86.8124 49.6061C87.015 49.3867 87.1177 49.0886 87.1038 48.7994C87.0965 48.4939 86.9659 48.2135 86.7472 48.0103L85.0974 46.4637C84.8787 46.2605 84.5814 46.1574 84.293 46.1714C83.9884 46.1787 83.7087 46.3097 83.5062 46.5291L81.964 48.1836C81.7614 48.403 81.6586 48.7011 81.6726 48.9903C81.6799 49.2958 81.8105 49.5762 82.0292 49.7794L83.679 51.326C83.8977 51.5292 84.1949 51.6323 84.4834 51.6183C84.788 51.611 85.0676 51.48 85.2702 51.2606Z" fill="#005A3A"/>
<path fill-rule="evenodd" clip-rule="evenodd" d="M13.0464 20.8957C12.9766 21.4906 13.151 22.0854 13.5174 22.5578C13.8838 23.0302 14.4246 23.3276 15.0177 23.4151L17.2508 23.6776C17.844 23.7475 18.4371 23.5726 18.9082 23.2052C19.3792 22.8377 19.6758 22.2954 19.763 21.7005L20.0247 19.4435C20.0945 18.8486 19.92 18.2538 19.5537 17.7814C19.1873 17.309 18.6465 17.0116 18.0533 16.9241L15.8203 16.6616C15.2271 16.5917 14.6339 16.7666 14.1629 17.134C13.6919 17.5014 13.3953 18.0438 13.308 18.6387L13.0464 20.8957Z" fill="#FFAA00"/>
<path d="M12.1448 20.6663C12.0401 21.5586 12.2843 22.4684 12.8426 23.1682C13.4009 23.8681 14.2034 24.3404 15.1106 24.4454L17.3611 24.7079C18.2508 24.8128 19.158 24.5679 19.8558 24.008C20.5537 23.4481 21.0247 22.6433 21.1294 21.7335L21.3911 19.4765C21.4957 18.5842 21.2515 17.6744 20.6932 16.9746C20.135 16.2748 19.3325 15.8024 18.4253 15.6974L16.1922 15.4524C15.3025 15.3475 14.3953 15.6099 13.6974 16.1523C12.9996 16.7122 12.5286 17.517 12.4239 18.4093L12.1448 20.6663ZM15.9131 17.6919L18.1636 17.9544C18.4602 17.9894 18.7219 18.1468 18.9138 18.3743C19.1057 18.6017 19.1754 18.9167 19.1406 19.2141L18.8789 21.4711C18.844 21.7685 18.687 22.031 18.4602 22.2234C18.2334 22.4159 17.9193 22.4859 17.6228 22.4509L15.3722 22.1884C15.0757 22.1534 14.814 21.996 14.6221 21.7685C14.4302 21.5411 14.3604 21.2261 14.3953 20.9287L14.657 18.6717C14.6919 18.3743 14.8489 18.1118 15.0757 17.9194C15.3199 17.7444 15.6165 17.6569 15.9131 17.6919Z" fill="#005A3A"/>
<path d="M20.2015 26.4135C20.3733 25.9925 20.6999 25.6539 21.1256 25.4883C21.5352 25.3161 22.0115 25.3037 22.4313 25.4759C22.8511 25.6482 23.1887 25.9758 23.3538 26.4027C23.5256 26.8134 23.538 27.2912 23.3662 27.7122C23.1944 28.1332 22.8678 28.4717 22.4421 28.6373C22.0325 28.8095 21.5562 28.822 21.1364 28.6497C20.7166 28.4775 20.379 28.1499 20.2139 27.723C20.026 27.3056 20.0297 26.8345 20.2015 26.4135Z" fill="#005A3A"/>
</g>
<g clip-path="url(#clip0_4127_1118)">
<path d="M77.0317 14.5116C72.2617 25.9434 69.8617 37.0102 67.9717 49.2888C61.4317 48.8216 58.4317 48.4566 51.9667 47.3908C53.1217 35.01 53.4817 23.7096 51.6367 11.4894C62.6017 8.80301 67.0267 9.32861 77.0317 14.5116Z" fill="#F4F4F4"/>
<path d="M69.2464 50.851L67.8514 50.7488C61.2364 50.267 58.2214 49.9166 51.7114 48.8216L50.3464 48.588L50.4664 47.2448C51.4714 36.4992 52.1164 24.7608 50.1364 11.6938L49.9414 10.3798L51.2614 10.0586C56.3614 8.81762 60.6214 8.08762 64.8664 8.59862C69.1114 9.10962 73.0714 10.8032 77.7214 13.2122L78.9214 13.8254L78.4114 15.0518C73.3114 27.272 71.0914 38.8352 69.4414 49.5078L69.2464 50.851ZM53.5864 46.1644C58.6414 46.982 61.5814 47.3324 66.6964 47.7266C68.2864 37.6088 70.4764 26.7172 75.1414 15.1832C66.7114 10.9638 62.5264 10.4528 53.3164 12.5844C55.0264 24.8776 54.5014 35.9736 53.5864 46.1644Z" fill="#00583C"/>
<path d="M65.1811 43.7846C61.8811 43.4342 60.2761 43.2444 56.9761 42.8064C57.1111 41.6092 56.3911 40.5434 55.3711 40.4266C56.0461 32.0024 56.2561 24.3374 55.6861 15.9132C57.1861 15.5044 58.3711 14.3656 58.2961 13.2122C63.5311 12.2194 66.2311 12.5406 71.0761 14.7306C70.7311 15.8402 71.6011 17.2126 72.9511 17.9718C70.3561 26.0164 68.6911 33.5062 67.2961 41.8428C66.3061 41.726 65.3461 42.5874 65.1811 43.7846Z" fill="#3A9EE9"/>
<path d="M83.6756 26.323C75.8006 35.5648 70.2656 45.2738 64.8356 56.3406C58.8356 53.5958 56.1356 52.2088 50.3906 48.9092C55.1456 37.5066 58.8506 26.8486 60.7556 14.5262C71.8256 15.811 75.8306 17.8842 83.6756 26.323Z" fill="#F4F4F4"/>
<path d="M65.5394 58.2824L64.1894 57.6692C58.1294 54.8952 55.4144 53.4936 49.6094 50.1794L48.4844 49.537L48.9794 48.369C53.1194 38.4702 57.2144 27.4764 59.2544 14.3218L59.4644 12.9202L60.9044 13.0954C66.0644 13.694 70.2794 14.497 74.1044 16.468C77.9294 18.439 81.1244 21.4466 84.7694 25.3594L85.6394 26.2938L84.8144 27.272C76.3994 37.1416 70.8794 47.3908 66.1694 56.9976L65.5394 58.2824ZM52.2644 48.296C56.8094 50.8802 59.4494 52.238 64.1294 54.4134C68.6294 45.3468 73.9094 35.74 81.6944 26.3814C75.0194 19.3442 71.2244 17.3732 61.9994 16.1614C59.9444 28.4838 56.1494 38.879 52.2644 48.296Z" fill="#00583C"/>
<path d="M63.9044 48.661C61.1444 47.2886 59.8094 46.6024 57.0944 45.157C57.5294 44.1496 57.2144 42.9816 56.3594 42.5436C59.2544 35.3604 61.5194 28.6882 63.3344 21.1254C64.7444 21.2422 66.0794 20.629 66.3344 19.5924C71.1344 20.41 73.3694 21.5634 76.9544 25.0528C76.3544 25.9142 76.7294 27.4034 77.6894 28.4984C73.2494 34.718 69.7694 40.7624 66.2744 47.639C65.4344 47.2156 64.3694 47.6682 63.9044 48.661Z" fill="#3A9EE9"/>
<path d="M71.45 24.1476C72.215 24.5418 72.56 25.3886 72.275 25.9872C71.975 26.5858 71.165 26.7464 70.445 26.3668C69.725 26.0018 69.335 25.228 69.59 24.6002C69.845 23.987 70.685 23.7534 71.45 24.1476Z" fill="white"/>
<path d="M68.1803 34.2216L68.0753 34.6742L67.8953 35.0246C67.8203 35.1268 67.7453 35.1998 67.6553 35.2728C67.5353 35.375 67.3853 35.4626 67.2203 35.5356C67.0853 35.594 66.9653 35.6962 66.9053 35.8568C66.8453 36.0174 66.8303 36.1926 66.9053 36.3532C66.9803 36.5138 67.1003 36.6306 67.2503 36.7036C67.4303 36.7766 67.6403 36.7766 67.8353 36.6744C68.1353 36.543 68.3903 36.3824 68.6003 36.178C68.7353 36.0466 68.8703 35.886 68.9903 35.7108L69.2753 35.8276C69.4553 35.9006 69.6203 35.9006 69.7853 35.8422C69.9503 35.7838 70.0703 35.667 70.1453 35.4918C70.2203 35.3312 70.2203 35.156 70.1603 34.9954C70.1003 34.8348 69.9653 34.718 69.8003 34.645L69.4703 34.5136C69.5153 34.1486 69.4703 33.7982 69.3503 33.4916C69.1853 33.0828 68.9003 32.7762 68.4803 32.601C68.0003 32.3966 67.5653 32.382 67.2053 32.5426C66.8903 32.674 66.5603 32.9368 66.2453 33.3164L65.6453 34.061C65.5403 34.1486 65.4503 34.2216 65.3603 34.2654C65.2703 34.2946 65.1953 34.2946 65.0903 34.2508C65.0003 34.207 64.9403 34.1632 64.9103 34.061C64.8203 33.7836 64.8653 33.6084 65.0003 33.3018C65.2103 32.8346 65.5703 32.7032 65.6903 32.6594L65.7353 32.6448C66.0053 32.528 66.1403 32.163 66.0053 31.871C65.9303 31.7104 65.8253 31.5936 65.6603 31.5352C65.4803 31.4622 65.2553 31.4622 65.0603 31.5644C64.8503 31.652 64.6553 31.7834 64.4753 31.944C64.3553 32.0462 64.2353 32.1776 64.1453 32.2944L64.0103 32.236C63.8453 32.163 63.6653 32.163 63.5003 32.2214C63.3503 32.2798 63.2303 32.382 63.1403 32.5718C63.0653 32.7324 63.0653 32.9076 63.1253 33.0682C63.1853 33.2288 63.3053 33.3602 63.4853 33.4332L63.6053 33.477C63.5303 33.8566 63.5603 34.2216 63.6803 34.5428C63.8453 34.9662 64.1453 35.2582 64.5803 35.448C65.0303 35.6378 65.4653 35.6378 65.8553 35.4772C66.2003 35.3312 66.5303 35.0684 66.8303 34.6742L67.1303 34.2362L67.4153 33.9588C67.4603 33.9296 67.5053 33.9004 67.5953 33.8566L67.6403 33.8274C67.6553 33.8128 67.6853 33.8128 67.6853 33.8128C67.7753 33.7836 67.8653 33.7836 67.9703 33.8274C68.0453 33.8566 68.1053 33.915 68.1353 34.0026C68.1653 34.061 68.1803 34.1632 68.1803 34.2216Z" fill="white"/>
<path d="M75.7406 42.8648C75.7406 40.12 73.3256 37.9008 70.3556 37.9008H69.9956C64.8506 37.4628 60.7856 37.6234 57.9356 37.9008H57.2156V37.9738C54.6056 38.2658 53.2106 38.6308 53.2106 38.6308L52.9256 31.1556L49.1606 31.871C47.0156 32.309 45.0506 33.3164 43.5656 34.7764L35.3306 42.8356C33.2756 44.8358 30.3956 45.9892 27.3656 45.9892H26.3306L22.2656 72.6488L32.5706 72.7364C47.2106 77.9632 64.8356 76.1236 64.8356 76.1236H66.3506C69.3206 76.1236 71.7356 73.9044 71.7356 71.1596C71.7356 69.1594 70.4606 67.4512 68.6156 66.6628H68.9906C71.9606 66.6628 74.3756 64.4436 74.3756 61.6988C74.3756 59.7862 72.8756 58.0926 71.1356 57.2604C71.0906 57.2312 71.0306 57.2166 70.9856 57.1874C73.5056 56.7786 75.7556 54.793 75.7556 52.3402C75.7556 50.121 74.1656 48.2376 71.9756 47.6098C74.1506 46.982 75.7406 45.0986 75.7406 42.8648Z" fill="white"/>
<path d="M14.5108 41.3026H27.0808C28.0258 41.3026 28.7908 42.0472 28.7908 42.967V77.4376C28.7908 78.3574 28.0258 79.102 27.0808 79.102H14.5108C13.5658 79.102 12.8008 78.3574 12.8008 77.4376V42.967C12.8008 42.0472 13.5658 41.3026 14.5108 41.3026Z" fill="white"/>
<path d="M71.0169 65.3926C65.5869 68.4878 57.5319 68.444 50.8869 68.444C38.9769 68.444 21.1269 57.5086 14.1819 48.6464C14.1669 54.8952 13.7769 71.8604 13.2969 78.6202C15.5169 79.1312 25.2519 79.3648 29.1969 79.102C31.2369 78.9706 28.0119 71.802 29.7819 71.7582C31.1619 71.7144 29.5869 71.6268 31.0569 71.7582C36.1869 72.2108 42.5919 75.1892 45.7569 75.7002H69.6219C70.0119 75.7002 70.3719 75.5396 70.6419 75.233C70.9119 74.9264 71.0319 74.5322 70.9869 74.1234C70.7319 71.4954 71.9319 67.8308 71.0169 65.3926Z" fill="#F3F3F3"/>
<path d="M27.0958 80.5767H14.5108C12.7408 80.5767 11.3008 79.175 11.3008 77.4377V42.9671C11.3008 41.2443 12.7408 39.8427 14.5108 39.8427H27.0808C28.8508 39.8427 30.2908 41.2443 30.2908 42.9671V77.4377C30.3058 79.175 28.8658 80.5767 27.0958 80.5767ZM14.5108 42.7627C14.3908 42.7627 14.3008 42.8503 14.3008 42.9671V77.4377C14.3008 77.5545 14.3908 77.6421 14.5108 77.6421H27.0808C27.2008 77.6421 27.2908 77.5545 27.2908 77.4377V42.9671C27.2908 42.8503 27.2008 42.7627 27.0808 42.7627H14.5108Z" fill="#00583C"/>
<path d="M19.0847 73.7146C20.3439 73.7146 21.3647 72.7211 21.3647 71.4954C21.3647 70.2698 20.3439 69.2762 19.0847 69.2762C17.8255 69.2762 16.8047 70.2698 16.8047 71.4954C16.8047 72.7211 17.8255 73.7146 19.0847 73.7146Z" fill="#A7A5A6"/>
<path d="M61.1623 77.6858C54.4123 77.6858 39.9523 77.1748 28.7773 73.189L29.8423 70.342C44.0173 75.3936 64.5673 74.6052 64.7623 74.5906H64.8223H66.3373C68.4373 74.5906 70.1623 73.043 70.1623 71.145C70.1623 69.831 69.3523 68.6484 68.0323 68.0644C67.4023 67.787 67.0123 67.1738 67.0273 66.5022C67.0573 65.6116 67.7923 64.8962 68.7073 64.8816C70.6573 64.8378 72.7723 63.6114 72.7723 61.6842C72.7723 60.3118 72.6373 59.4066 70.7023 58.5744C70.0573 58.297 69.6673 57.6546 69.7423 56.983C69.8173 56.3114 70.3423 55.742 71.0173 55.6106C72.8323 55.2456 74.1523 53.8732 74.1523 52.3256C74.1523 50.8802 73.0273 49.537 71.4223 49.0552C70.8523 48.88 70.2223 48.3106 70.3273 47.2886L70.4323 46.2374L71.4823 45.9746C73.1773 45.5512 74.1523 44.4124 74.1523 42.8648C74.1523 40.9668 72.4423 39.4192 70.3273 39.4192H69.8323C65.6473 39.0688 61.6873 39.0688 58.0723 39.4192L57.3673 39.4922C54.9523 39.755 53.6173 40.1054 53.6023 40.1054L51.7123 40.6018L51.6373 38.7038L51.4123 32.9952L49.4323 33.3748C47.5723 33.7544 45.9223 34.6158 44.6323 35.8714L36.2923 44.0474C34.2523 46.0476 32.8873 47.3762 29.2723 47.3762V44.3394C31.5973 44.3394 32.1673 43.77 34.0723 41.9012L42.4123 33.7252C44.1223 32.0462 46.3423 30.8928 48.8023 30.3964H48.8173L54.3823 29.3306L54.6673 36.7912C55.2973 36.689 56.0773 36.5722 57.0073 36.47L57.7423 36.397C61.5523 36.032 65.6773 36.032 70.0273 36.3824H70.3273C74.1523 36.3824 77.2573 39.2878 77.2573 42.8648C77.2573 44.8066 76.4323 46.471 74.9773 47.6098C76.3873 48.8216 77.2573 50.5298 77.2573 52.3402C77.2573 54.3696 76.1473 56.253 74.4073 57.4356C75.6523 58.735 75.8773 60.268 75.8773 61.6842C75.8773 63.407 75.0673 65.013 73.6123 66.1956C73.0873 66.619 72.4873 66.984 71.8423 67.2468C72.7423 68.3564 73.2523 69.7142 73.2523 71.145C73.2523 74.722 70.1473 77.6274 66.3223 77.6274H64.8373C64.5823 77.642 63.2473 77.6858 61.1623 77.6858Z" fill="#00583C"/>
</g>
<defs>
<clipPath id="clip0_4127_1118">
<rect width="75" height="73" fill="white" transform="translate(11 8)"/>
</clipPath>
</defs>
</svg>
